<?xml version="1.0" encoding="utf-8"?>
<!-- Generator: Adobe Illustrator 23.0.3, SVG Export Plug-In . SVG Version: 6.00 Build 0)  -->
<svg version="1.1" id="Layer_1" xmlns="http://www.w3.org/2000/svg" xmlns:xlink="http://www.w3.org/1999/xlink" x="0px" y="0px"
	 viewBox="0 0 55.2 47.3" style="enable-background:new 0 0 55.2 47.3;" xml:space="preserve">
<style type="text/css">
	.st0{fill:#69E781;}
	.st1{fill:#FFFFFF;}
</style>
<g>
	<g>
		<g>
			<path class="st0" d="M42.7,9.1h9.6l1.3-2c0.8-1.3,0.8-2.9,0-4.1c-0.7-1.4-2-2.1-3.6-2.1h-2.3L42.7,9.1z"/>
		</g>
	</g>
	<g>
		<g>
			<path class="st0" d="M40.4,13.1L29.9,30.5l4.8,8l15.3-25.5C50.1,13.1,40.4,13.1,40.4,13.1z"/>
		</g>
	</g>
</g>
<g>
	<g>
		<path class="st1" d="M22.6,25.9h5.6l4.9-8.3H17.6l-5.1-8.5h25.9l4.9-8.3H5.1C2.8,0.8,1,2.7,1,5c0,0.8,0.2,1.4,0.6,2.1L24,44.4
			c0.8,1.3,2.1,2,3.6,2s2.8-0.8,3.6-2l1.4-2.1L22.6,25.9z"/>
	</g>
</g>
</svg>
