<?xml version="1.0" encoding="utf-8"?>
<!-- Generator: Adobe Illustrator 23.0.3, SVG Export Plug-In . SVG Version: 6.00 Build 0)  -->
<svg version="1.1" id="Layer_1" xmlns="http://www.w3.org/2000/svg" xmlns:xlink="http://www.w3.org/1999/xlink" x="0px" y="0px"
	 viewBox="0 0 89.6 54.8" style="enable-background:new 0 0 89.6 54.8;" xml:space="preserve">
<style type="text/css">
	.st0{fill:#FFFFFF;}
	.st1{fill:#689E63;}
	.st2{fill:#454545;}
	.st3{fill:#808080;}
	.st4{fill:#515151;}
	.st5{fill:#646464;}
	.st6{fill:#5A5A5A;}
	.st7{fill:#3A3A3A;}
	.st8{fill:#3E853D;}
	.st9{fill:#74AB63;}
	.st10{fill:#70A861;}
	.st11{fill:#77B162;}
	.st12{fill:#6CA45E;}
	.st13{fill:#6BBE47;}
	.st14{fill:#69A15C;}
	.st15{fill:#77B45F;}
	.st16{fill:#649A58;}
	.st17{fill:#669E5A;}
	.st18{fill:#75B65B;}
	.st19{fill:#73B757;}
	.st20{fill:#488B44;}
	.st21{fill:#72B954;}
	.st22{fill:#6EBC4C;}
	.st23{fill:#70BA50;}
	.st24{fill:#3E863D;}
	.st25{fill:#56984D;}
	.st26{fill:#579D4B;}
	.st27{fill:#5A9752;}
	.st28{fill:#669D5A;}
	.st29{fill:#55944E;}
	.st30{fill:#5E9954;}
	.st31{fill:#619B57;}
	.st32{fill:#679E5B;}
	.st33{fill:#58A149;}
	.st34{fill:#6AA15D;}
	.st35{fill:#50914B;}
	.st36{fill:#54934E;}
	.st37{fill:#59A747;}
	.st38{fill:#428840;}
	.st39{fill:#4C8E47;}
	.st40{fill:#51904B;}
	.st41{fill:#699F64;}
	.st42{fill:#5AAB45;}
	.st43{fill:#609756;}
	.st44{fill:#4B8D48;}
	.st45{fill:#FEFEFE;}
	.st46{fill:#6AA065;}
	.st47{fill:#F7FAF7;}
</style>
<title>node-js</title>
<g>
	<path class="st0" d="M0.1,18.2c0.2-0.4,0.5-0.6,0.8-0.8c2.7-1.5,5.4-3.1,8.1-4.7c0.5-0.3,0.9-0.3,1.4,0c2.7,1.6,5.5,3.2,8.2,4.7
		c0.5,0.3,0.7,0.7,0.7,1.2c0,4.3,0,8.6,0,12.9c0,0.7-0.3,0.9-1,0.5c-1.6-0.9-3.2-1.8-4.8-2.7c-0.5-0.3-0.7-0.6-0.7-1.2
		c0-1.9,0-3.9,0-5.8c0-0.5-0.2-0.9-0.7-1.2c-0.7-0.4-1.3-0.7-1.9-1.1c-0.4-0.2-0.8-0.2-1.2,0c-0.6,0.4-1.2,0.7-1.9,1.1
		c-0.5,0.3-0.7,0.7-0.7,1.2c0,1.9,0,3.8,0,5.7c0,0.6-0.2,1.1-0.8,1.4c-1.5,0.9-3.1,1.7-4.6,2.6c-0.5,0.3-0.6,0.3-1-0.2
		c0,0,0,0,0-0.1c0.1-0.5,0-1,0-1.5c0-0.4,0-0.8,0-1.1c0-0.7,0-1.4,0-2.1c0-0.9,0-1.8,0-2.7c0-1,0-1.9,0-2.9c0-0.7,0-1.4,0-2
		C0.1,19,0.1,18.6,0.1,18.2z"/>
	<path class="st0" d="M89.7,21.2c-0.2,0.4-0.5,0.7-0.9,0.9c-1.5,0.9-3,1.7-4.5,2.6c-0.1,0-0.1,0.1-0.2,0.1c-0.5,0.2-0.8,0-0.8-0.5
		c0-0.7,0-1.4,0-2.1c0-0.4-0.1-0.6-0.4-0.8C82,21,81.2,20.5,80.4,20c-0.3-0.2-0.5-0.1-0.8,0c-0.8,0.5-1.6,0.9-2.4,1.4
		c-0.3,0.2-0.4,0.4-0.4,0.8c0,0.9,0,1.8,0,2.7c0,0.4,0.1,0.6,0.5,0.8c2.7,1.5,5.4,3.1,8.1,4.6c0.1,0.1,0.2,0.1,0.3,0.2
		c0.4,0.3,0.4,0.7,0,1c-0.7,0.4-1.3,0.7-2,1.1c-1,0.5-1.9,1.1-2.9,1.6c-0.5,0.3-0.9,0.3-1.4,0c-2.7-1.6-5.5-3.1-8.2-4.7
		c-0.5-0.3-0.7-0.6-0.7-1.2c0-3.2,0-6.4,0-9.6c0-0.5,0.2-0.9,0.7-1.1c2.7-1.6,5.5-3.1,8.2-4.7c0.5-0.3,1-0.3,1.5,0
		c2.7,1.6,5.4,3.2,8.2,4.7c0.3,0.2,0.6,0.4,0.6,0.8c0.1,0.8,0,1.6,0,2.4C89.6,20.9,89.6,21,89.7,21.2C89.7,21.1,89.7,21.1,89.7,21.2
		z"/>
	<path class="st1" d="M43.8,54.9c-1-0.6-2-1.2-3-1.8c-0.1-0.1-0.3-0.1-0.3-0.2c0-0.1,0.2-0.1,0.3-0.2c0.3-0.1,0.6-0.2,0.9-0.4
		c0.2-0.1,0.4-0.1,0.5,0c0.6,0.4,1.2,0.7,1.8,1.1c0.2,0.1,0.3,0.1,0.5,0c2.6-1.5,5.2-3,7.8-4.5c0.2-0.1,0.2-0.3,0.2-0.6
		c0-2.2,0-4.4,0-6.5c0-0.8,0-1.5,0-2.3c0-0.3-0.1-0.4-0.3-0.5c-2.6-1.5-5.2-3-7.8-4.5c-0.2-0.1-0.3-0.1-0.5,0
		c-2.6,1.5-5.2,3-7.8,4.5C36.1,39,36,39.2,36,39.4c0,3,0,6,0,9c0,0.2,0.1,0.4,0.3,0.5c0.7,0.4,1.3,0.7,1.9,1.1
		c0.4,0.2,0.8,0.4,1.3,0.2c0.4-0.1,0.7-0.4,0.7-0.8c0-0.2,0-0.4,0-0.6c0-2.8,0-5.7,0-8.5c0-0.5,0-0.5,0.5-0.5c1.1,0,1-0.1,1,1
		c0,2.8,0,5.5,0,8.3c0,0.4,0,0.7-0.1,1c-0.3,1-1,1.6-2,1.7c-0.8,0.1-1.5-0.2-2.2-0.5c-0.7-0.4-1.3-0.8-2-1.1
		c-0.6-0.4-0.9-0.9-0.9-1.6c0-3.1,0-6.1,0-9.2c0-0.7,0.3-1.2,0.9-1.6c2.7-1.5,5.3-3.1,8-4.6c0.6-0.3,1.2-0.4,1.8,0
		c2.7,1.5,5.3,3.1,8,4.6c0.6,0.4,0.9,0.9,0.9,1.6c0,3.1,0,6.1,0,9.2c0,0.7-0.3,1.3-0.9,1.6c-2.6,1.5-5.3,3-7.9,4.6
		c-0.2,0.1-0.3,0.2-0.5,0.3C44.5,54.9,44.1,54.9,43.8,54.9z"/>
	<path class="st2" d="M0.1,21.5c0,1,0,2,0,2.9c0,0,0,0-0.1,0C0.1,23.4,0.1,22.4,0.1,21.5C0.1,21.4,0.1,21.4,0.1,21.5z"/>
	<path class="st3" d="M89.7,21.1c-0.1,0-0.1-0.1-0.1-0.2c0-0.8,0-1.7,0-2.5c0,0,0,0,0.1,0C89.7,19.3,89.7,20.2,89.7,21.1z"/>
	<path class="st4" d="M0.1,24.4C0.1,24.4,0.1,24.4,0.1,24.4c0.1,0.9,0.1,1.8,0.1,2.7c0,0,0,0-0.1,0C0.1,26.2,0.1,25.3,0.1,24.4z"/>
	<path class="st5" d="M0.1,29.2c0,0.8,0,1.6,0,2.4c0,0.1,0,0.2-0.1,0.3C0.1,30.9,0.1,30,0.1,29.2C0.1,29.1,0.1,29.1,0.1,29.2z"/>
	<path class="st6" d="M0.1,29.2C0.1,29.2,0.1,29.2,0.1,29.2c-0.1-0.7-0.1-1.4-0.1-2.1c0,0,0,0,0.1,0C0.1,27.8,0.1,28.5,0.1,29.2z"/>
	<path class="st7" d="M0.1,21.5C0.1,21.5,0.1,21.5,0.1,21.5c-0.1-0.7-0.1-1.4-0.1-2c0.1,0.2,0.1,0.4,0.1,0.5
		C0.1,20.5,0.1,21,0.1,21.5z"/>
	<path class="st1" d="M46.6,39.6c0.8,0,1.5,0.1,2.2,0.3c1.1,0.4,1.6,1.2,1.7,2.3c0,0.3-0.1,0.4-0.4,0.4c-0.1,0-0.1,0-0.2,0
		c-0.6,0.1-1,0-1.1-0.7c-0.1-0.4-0.4-0.6-0.8-0.8c-1-0.3-1.9-0.3-2.9,0c-0.4,0.1-0.7,0.4-0.7,0.8c0,0.4,0.1,0.6,0.5,0.8
		c0.6,0.2,1.2,0.3,1.8,0.4c0.8,0.1,1.7,0.2,2.5,0.5c1,0.3,1.6,0.9,1.6,1.9c0,1-0.3,1.8-1.2,2.3c-0.7,0.4-1.5,0.6-2.3,0.6
		c-1,0-2,0-3-0.4c-1.1-0.4-1.7-1.3-1.8-2.4c0-0.3,0.1-0.4,0.4-0.4c0.1,0,0.1,0,0.2,0c0.3,0,0.6,0,0.8,0c0.3,0.1,0.2,0.5,0.3,0.7
		c0.2,0.5,0.5,0.7,1,0.9c1,0.3,2.1,0.3,3.1,0c0.3-0.1,0.5-0.2,0.7-0.4c0.5-0.5,0.4-1.3-0.3-1.5c-0.8-0.3-1.6-0.3-2.4-0.4
		c-0.7-0.1-1.4-0.2-2.1-0.5c-1.8-0.7-1.6-3-0.5-3.8c0.7-0.5,1.5-0.7,2.3-0.8C46.1,39.6,46.4,39.6,46.6,39.6z"/>
	<path class="st8" d="M33.2,34.4c-0.3,0-0.5,0-0.7-0.2c-2.8-1.6-5.6-3.2-8.4-4.9c-0.1-0.1-0.3-0.1-0.3-0.3c-0.1-0.2,0-0.3,0.1-0.4
		c0.2-0.4,0.4-0.8,0.7-1.2c0.3-0.5,0.6-1,0.9-1.5c0.3-0.5,0.6-0.9,0.8-1.4c0.2-0.3,0.4-0.7,0.6-1c0.1-0.1,0.1-0.2,0.2-0.3
		c0.1,0,0.1,0,0.2,0c0.2,0.1,0.2,0.3,0.3,0.5c0.2,0.4,0.5,0.8,0.7,1.3c0.2,0.3,0.4,0.7,0.6,1c0.2,0.4,0.4,0.7,0.6,1
		c0.2,0.4,0.4,0.7,0.6,1c0.2,0.3,0.3,0.7,0.6,1c0.2,0.5,0.5,0.9,0.8,1.4c0.3,0.6,0.6,1.1,0.9,1.7c0.3,0.6,0.6,1.2,1,1.7
		C33.2,34.1,33.4,34.2,33.2,34.4z"/>
	<path class="st9" d="M33.2,34.4c-0.3-0.6-0.7-1.2-1-1.8c0-0.1-0.1-0.2-0.1-0.2c0.1-0.3,0.1-0.6,0.1-0.9c0-5.9,0-11.7,0-17.6
		c0-0.3-0.1-0.6,0-0.8c0.4-0.2,0.8-0.5,1.3-0.3c0.1,0.2,0.2,0.3,0.1,0.5c0,0.3,0,0.5,0,0.8c0,6.5,0,13.1,0,19.6c0,0.2,0,0.5-0.1,0.7
		C33.4,34.4,33.3,34.4,33.2,34.4z"/>
	<path class="st10" d="M33.5,34.3c0-6.9,0-13.8,0-20.7c0-0.2,0-0.4,0.1-0.6c0.2,0,0.2,0.2,0.3,0.3c0.1,0.2,0.2,0.3,0.3,0.5
		c0.2,0.4,0.5,0.7,0.5,1.1c0,0.3,0,0.5,0,0.8c0,5.7,0,11.5,0,17.2c0,0.2,0,0.5-0.1,0.7C34.2,34,33.8,34.1,33.5,34.3z"/>
	<path class="st11" d="M32.2,13c0.1,0.2,0.1,0.3,0.1,0.5c0,6.1,0,12.1,0,18.2c0,0.2,0,0.4-0.2,0.5c-0.3-0.6-0.7-1.1-0.9-1.7
		c0-0.3,0-0.7,0-1c0-5.2,0-10.4,0-15.6c0-0.1,0-0.2,0-0.3C31.5,13.4,31.9,13.2,32.2,13z"/>
	<path class="st12" d="M34.6,33.7c0-6.3,0-12.6,0-18.8c0.1,0,0.2,0,0.2,0.1c0.3,0.5,0.6,1,0.9,1.5c0,0.1,0,0.2,0,0.2
		c0,0.2,0,0.5,0,0.7c0,5.1,0,10.2,0,15.3c0,0.1,0,0.2,0,0.3C35.4,33.4,34.9,33.5,34.6,33.7z"/>
	<path class="st13" d="M27.5,23.8c-0.1-0.1-0.2-0.3-0.3-0.5c-0.3-0.2-0.4-0.6-0.6-1c-0.3-0.5-0.5-1-0.8-1.4c-0.5-1-1.1-2-1.6-3
		c0-0.1-0.1-0.1-0.1-0.2c0.7-0.5,1.5-0.9,2.3-1.4c0.4-0.2,0.8-0.5,1.2-0.7c0.1,0.1,0.1,0.3,0.1,0.4c0,2.4,0,4.8,0,7.2
		C27.7,23.5,27.7,23.7,27.5,23.8z"/>
	<path class="st14" d="M35.7,33.1c-0.1-0.1-0.1-0.2-0.1-0.3c0-5.2,0-10.4,0-15.6c0-0.2,0-0.3,0.1-0.5c0,0,0,0,0,0
		c0.4,0.5,0.8,1,0.9,1.6c0,3.2,0,6.4,0,9.7c0,1.6,0,3.1,0,4.7C36.3,32.8,36,32.9,35.7,33.1z"/>
	<path class="st15" d="M31.2,13.6c0.1,0.1,0.1,0.2,0.1,0.4c0,5.4,0,10.9,0,16.3c0,0.1,0,0.2-0.1,0.3c-0.3-0.4-0.5-0.9-0.8-1.4
		c0-0.2,0-0.5,0-0.7c0-4.7,0-9.4,0-14.1c0-0.1,0-0.2,0-0.3C30.7,13.9,30.9,13.7,31.2,13.6z"/>
	<path class="st1" d="M81.9,23.5c0.3,0.8-0.2,1.2-0.9,1.6c-0.7,0.4-1.2,0.4-1.9,0c-0.7-0.4-1-0.8-1-1.7c0-0.8,0.2-1.2,0.9-1.6
		c0.7-0.4,1.2-0.4,2,0C81.7,22.3,82.1,22.7,81.9,23.5z"/>
	<path class="st16" d="M34.1,13.9c-0.3-0.2-0.3-0.6-0.6-0.8c0-0.1-0.2-0.2-0.1-0.4c0.8,0.4,1.6,0.9,2.4,1.3c0,0,0.1,0,0.1,0.1
		c1.1,1.7,2.4,3.3,3.6,5c0.4,0.6,0.8,1.1,1.2,1.6c0,0.3-0.2,0.5-0.3,0.8c-0.1,0.1-0.1,0.3-0.3,0.4C40,22,40,21.8,39.9,21.7
		c-1.1-1.4-2.1-2.9-3.2-4.3C35.8,16.2,35,15,34.1,13.9z"/>
	<path class="st17" d="M36.5,32.6c-0.2-0.1-0.1-0.2-0.1-0.4c0-3.5,0-6.9,0-10.4c0-1.1,0-2.2,0-3.3c0-0.2,0-0.3,0.1-0.4c0,0,0,0,0,0
		c0.3,0.2,0.9,1.3,0.8,1.6c0,4,0,8,0,12c0,0.2,0,0.3-0.1,0.5C37,32.3,36.8,32.5,36.5,32.6z"/>
	<path class="st18" d="M30.4,14c0.1,0.1,0.1,0.3,0.1,0.4c0,4.8,0,9.5,0,14.3c0,0.1,0,0.3-0.1,0.4c-0.2-0.3-0.4-0.7-0.6-1
		c-0.1-0.1,0-0.3,0-0.4c0-4.4,0-8.8,0-13.2c0-0.1,0-0.2,0-0.3C30.1,14.2,30.2,14.1,30.4,14z"/>
	<path class="st19" d="M29.9,14.3c0.1,0.1,0.1,0.3,0.1,0.4c0,4.3,0,8.6,0,12.8c0,0.2-0.1,0.4-0.1,0.5c-0.2-0.3-0.4-0.7-0.6-1
		c0-0.3,0-0.5,0-0.8c0-3.7,0-7.4,0-11.1c0-0.2,0-0.4,0.1-0.6C29.6,14.5,29.7,14.4,29.9,14.3z"/>
	<path class="st20" d="M40.3,30.4c-0.1,0.1-0.3,0.2-0.5,0.3c-0.2,0-0.2-0.1-0.3-0.3c0-0.1,0-0.3,0-0.5c0-2,0-4,0-6
		c0-0.2,0-0.4,0-0.7c0-0.2,0-0.4,0.1-0.5c0,0,0.1-0.1,0.1-0.1c0.1-0.1,0.1-0.1,0.2-0.1c0.8,0.3,1.5,0.7,2.3,1.1
		c0.2,0.1,0.4,0.1,0.4,0.3c0,0.4,0,0.7,0,1.1c-0.1,0.3-0.3,0.1-0.4,0c-0.6-0.2-1.1-0.5-1.6-0.8c-0.1-0.1-0.3-0.2-0.5-0.2
		c0,0.2,0.2,0.3,0.1,0.5c-0.1,1.5,0,3,0,4.5C40.2,29.5,40.2,30,40.3,30.4z"/>
	<path class="st21" d="M29.4,14.6c0,3.1,0,6.2,0,9.3c0,0.9,0,1.9,0,2.8c0,0.2,0,0.3-0.1,0.4c-0.2-0.3-0.4-0.7-0.6-1
		c-0.1-0.1,0-0.3,0-0.4c0-3.3,0-6.6,0-9.9c0-0.3-0.1-0.5,0-0.8C29,14.8,29.2,14.7,29.4,14.6z"/>
	<path class="st22" d="M27.5,23.8c0-0.1,0.1-0.2,0.1-0.4c0-2.6,0-5.2,0-7.8c0.2-0.2,0.4-0.3,0.7-0.4c0.1,0.1,0.1,0.3,0.1,0.5
		c0,2.9,0,5.9,0,8.8c0,0.2,0,0.4-0.2,0.5C27.9,24.7,27.7,24.3,27.5,23.8z"/>
	<path class="st23" d="M28.2,25.1c0.1-0.1,0.1-0.2,0.1-0.4c0-3.1,0-6.3,0-9.4c0.1-0.1,0.3-0.2,0.5-0.3c0.1,0.2,0.1,0.4,0.1,0.6
		c0,3.3,0,6.6,0,9.9c0,0.2,0,0.4-0.1,0.6C28.5,25.8,28.4,25.4,28.2,25.1z"/>
	<path class="st8" d="M42.6,28.7c-0.1,0.3-0.3,0.5-0.5,0.6c-0.5,0.3-1,0.6-1.5,0.9c-0.1-0.1-0.1-0.3-0.1-0.4c0-1.4,0-2.7,0-4.1
		c0-0.1,0-0.3,0.1-0.4c0.3,0,0.3,0.3,0.4,0.4c0.5,0.8,1,1.6,1.4,2.5C42.6,28.3,42.7,28.5,42.6,28.7z"/>
	<path class="st24" d="M40.5,21.5c0-0.3,0.3-0.5,0.4-0.8c0-0.3,0.2-0.4,0.3-0.7c0.1-0.3,0.3-0.5,0.4-0.7c0.2-0.4,0.5-0.9,0.7-1.3
		c0-0.1,0.1-0.2,0.2-0.1c0.1,0.1,0.2,0.2,0.2,0.4c0.1,0.7,0,1.4,0,2.1c0,0.7,0,1.3,0,2c0,0.2-0.1,0.2-0.2,0.1
		c-0.6-0.3-1.3-0.6-1.9-0.9C40.5,21.7,40.4,21.6,40.5,21.5z"/>
	<path class="st25" d="M25.8,20.9c0.4,0.6,0.7,1.3,1.1,2c0.1,0.1,0.2,0.3,0.3,0.4c0,0-0.1,0-0.1,0c-0.1,0.1-0.2,0.1-0.3,0
		c-1-0.5-2-0.9-3-1.5c-0.1,0-0.1-0.1-0.2-0.2c0-0.6,0-1.2,0-1.8c0.2-0.1,0.3,0,0.4,0.1C24.6,20.3,25.2,20.6,25.8,20.9z"/>
	<path class="st26" d="M23.6,21.7c1,0.5,2.1,1,3.1,1.5c0.1,0.1,0.3,0.2,0.4,0.1c-0.2,0.5-0.5,0.9-0.8,1.3c-0.1,0-0.2,0-0.3-0.1
		c-0.7-0.4-1.5-0.8-2.2-1.1c-0.1,0-0.1-0.1-0.2-0.2C23.6,22.8,23.6,22.3,23.6,21.7z"/>
	<path class="st27" d="M39.7,22.8c0,0.1-0.1,0.3-0.1,0.4c-0.2,0-0.2-0.1-0.3-0.2c-0.1-0.3-0.3-0.5-0.5-0.8c-0.1-0.1-0.1-0.3-0.3-0.3
		c-0.1,0.1,0,0.3,0,0.4c0,2.9,0,5.8,0,8.7c0,0.2,0,0.3,0,0.5c-0.1,0.1-0.2,0.2-0.4,0.2c-0.2,0.1-0.2,0-0.2-0.2c0-0.1,0-0.2,0-0.3
		c0-3.3,0-6.6,0-9.9c0-0.1,0-0.3,0-0.4c0.1-0.2,0.2-0.2,0.3,0c0.4,0.7,1,1.2,1.4,1.9C39.7,22.7,39.7,22.7,39.7,22.8z"/>
	<path class="st28" d="M41.2,20.1c-0.1,0.2-0.2,0.4-0.4,0.6c-0.4-0.3-0.7-0.8-0.9-1.1c-1.2-1.7-2.5-3.3-3.7-5
		c-0.1-0.1-0.2-0.3-0.2-0.5c0.5,0.3,1,0.6,1.5,0.8c0.1,0.4,0.4,0.7,0.6,1c0.9,1.3,1.9,2.6,2.8,3.8C41,19.9,41.1,20,41.2,20.1z"/>
	<path class="st29" d="M38.5,31.5c-0.1-0.1-0.1-0.2-0.1-0.4c0-3.1,0-6.2,0-9.3c0-0.1-0.1-0.2,0.1-0.3c0.1,0,0.2,0.1,0.2,0.2
		c0.1,0.2,0.2,0.3,0.3,0.5c0.1,2.4,0,4.7,0,7.1c0,0.6,0,1.2,0,1.8C38.8,31.3,38.6,31.4,38.5,31.5z"/>
	<path class="st30" d="M39.7,22.8c-0.4-0.3-0.7-0.8-1-1.2c-0.2-0.2-0.5-0.4-0.5-0.8c0,0-0.1-0.1-0.1-0.1c0,0-0.1,0.1-0.1,0.1
		c0,0.1,0,0.2,0,0.3c0,3.4,0,6.8,0,10.2c0,0.1-0.1,0.3,0.2,0.4c-0.1,0.1-0.2,0.1-0.4,0.2c-0.2,0-0.2-0.1-0.2-0.3c0-0.1,0-0.3,0-0.5
		c0-3.4,0-6.8,0-10.2c0-0.2,0-0.5,0.1-0.7c0.2-0.3,0.3-0.1,0.5,0c0.3,0.3,0.5,0.6,0.7,0.9C39.1,21.7,39.5,22.2,39.7,22.8
		C39.7,22.7,39.7,22.8,39.7,22.8z"/>
	<path class="st31" d="M37.7,20.1c-0.1,0.2-0.1,0.4-0.1,0.5c0,3.6,0,7.2,0,10.8c0,0.2-0.1,0.4,0.1,0.5c-0.1,0.1-0.3,0.2-0.5,0.3
		c0-4.1,0-8.2,0-12.3c0-0.1,0-0.2,0.1-0.3C37.6,19.6,37.7,19.9,37.7,20.1z"/>
	<path class="st32" d="M41.2,20.1c-0.2,0-0.3-0.1-0.3-0.3c-1.1-1.5-2.2-2.9-3.2-4.4c-0.1-0.1-0.3-0.3-0.1-0.5c0.5,0.3,1,0.6,1.5,0.9
		c0.7,1,1.4,1.9,2.1,2.9c0.2,0.2,0.3,0.4,0.5,0.7C41.4,19.7,41.3,19.9,41.2,20.1z"/>
	<path class="st33" d="M23.6,23.3c0.9,0.4,1.8,0.9,2.7,1.3c-0.3,0.5-0.5,1-0.8,1.4c-0.7-0.2-1.3-0.5-1.9-0.9
		C23.6,24.6,23.6,23.9,23.6,23.3z"/>
	<path class="st34" d="M41.6,19.4c-0.4-0.1-0.5-0.5-0.8-0.8c-0.6-0.7-1.1-1.5-1.7-2.2c-0.1-0.2-0.2-0.3-0.2-0.5c0,0,0.1,0,0.1,0
		c1.1,0.6,2.2,1.3,3.3,1.9c0.1,0,0.1,0.1,0.2,0.2C42.1,18.4,41.8,18.9,41.6,19.4z"/>
	<path class="st35" d="M38.9,31.2c-0.1-0.1-0.1-0.2-0.1-0.4c0-2.8,0-5.5,0-8.3c0-0.1,0-0.2,0.1-0.3c0.1,0.3,0.4,0.5,0.4,0.8
		c0,0.2,0,0.4,0,0.7c0,2.2,0,4.5,0,6.7c0,0.2,0,0.4-0.1,0.6C39.2,31.1,39.1,31.2,38.9,31.2z"/>
	<path class="st36" d="M25.8,20.9c-0.1,0.1-0.2,0-0.3,0c-0.5-0.3-1.1-0.5-1.6-0.8c-0.1,0-0.2-0.1-0.3-0.1c0-0.5,0-1,0-1.5
		c0-0.3,0.2-0.6,0.5-0.8c0.4,0.4,0.5,0.9,0.8,1.4C25.2,19.7,25.5,20.3,25.8,20.9z"/>
	<path class="st37" d="M23.6,25.2c0.6,0.3,1.3,0.5,1.9,0.9c-0.2,0.5-0.5,1-0.8,1.5c-0.4,0-0.7-0.3-1.1-0.5
		C23.6,26.4,23.6,25.8,23.6,25.2z"/>
	<path class="st38" d="M40.7,25.3c-0.2,0-0.1,0.2-0.1,0.3c0,1.6,0,3.1,0,4.7c-0.1,0.1-0.2,0.2-0.3,0.2c-0.2,0-0.2-0.2-0.2-0.3
		c0-1.8,0-3.6,0-5.3c0-0.1,0-0.3,0.1-0.3C40.5,24.7,40.7,25,40.7,25.3z"/>
	<path class="st39" d="M39.3,31c0-2.6,0-5.1,0-7.7c0-0.1,0-0.2,0.1-0.3c0.1,0.1,0.1,0.1,0.2,0.2c0.1,0.1,0.1,0.3,0.1,0.4
		c0,2.2,0,4.4,0,6.6c0,0.2-0.1,0.4,0.2,0.5C39.7,30.9,39.4,30.9,39.3,31z"/>
	<path class="st40" d="M42.6,22.6c0-1.4,0-2.8,0-4.2c0.1,0.1,0.1,0.2,0.1,0.3c0,3.3,0,6.5,0,9.8c0,0.1,0,0.2-0.1,0.3
		c-0.1-0.5-0.5-0.9-0.7-1.4c-0.3-0.6-0.7-1-0.9-1.6c0.1-0.2,0.2-0.1,0.3-0.1c0.2,0.1,0.4,0.2,0.6,0.3c0.6,0.3,0.6,0.4,0.6-0.4
		c0-0.2,0-0.3,0.1-0.5c0-0.4,0-0.8,0-1.3C42.5,23.4,42.5,23,42.6,22.6z"/>
	<path class="st41" d="M56.9,37.2c0.9,0,1.6,0.7,1.6,1.6c0,0.8-0.7,1.5-1.6,1.5c-0.9,0-1.6-0.7-1.6-1.6
		C55.4,37.9,56.1,37.2,56.9,37.2z"/>
	<path class="st42" d="M23.6,27c0.4,0.1,0.7,0.3,1.1,0.5c-0.3,0.5-0.6,1-0.8,1.5c-0.1-0.2-0.2-0.4-0.2-0.6
		C23.6,28,23.6,27.5,23.6,27z"/>
	<path class="st0" d="M66.2,16.2c0-2.1,0-4.2,0-6.3c0-1.9,0-3.8,0-5.8c0-0.6-0.2-1-0.8-1.3c-0.2-0.1-0.5-0.3-0.7-0.4
		C63.4,1.7,62,1,60.7,0.2c-0.5-0.3-0.9,0-0.9,0.5c0,0.1,0,0.2,0,0.3c0,4.2,0,8.4,0,12.6c0,0.5-0.2,0.7-0.7,0.4
		c-0.6-0.4-1.3-0.7-1.9-1.1c-0.4-0.3-0.8-0.2-1.2,0c-2.8,1.6-5.6,3.2-8.3,4.8C47.2,18,47,18.3,47,18.8c0,3.2,0,6.4,0,9.6
		c0,0.5,0.2,0.9,0.7,1.2c2.7,1.6,5.5,3.2,8.2,4.8c0.5,0.3,0.9,0.3,1.4,0c2.7-1.6,5.4-3.1,8.1-4.7c0.5-0.3,0.8-0.7,0.8-1.3
		C66.2,24.3,66.2,20.3,66.2,16.2z M59.5,25.7c-0.9,0.5-1.8,1-2.7,1.5c-0.2,0.1-0.3,0.1-0.5,0c-0.9-0.5-1.8-1-2.7-1.5
		c-0.2-0.1-0.3-0.3-0.3-0.5c0-1,0-2,0-3c0-0.2,0.1-0.4,0.3-0.5c0.9-0.5,1.8-1,2.7-1.6c0.2-0.1,0.3-0.1,0.5,0c0.9,0.5,1.8,1,2.7,1.6
		c0.2,0.1,0.3,0.3,0.3,0.5c0,0.5,0,1,0,1.5c0,0.5,0,1,0,1.5C59.8,25.4,59.7,25.5,59.5,25.7z"/>
	<path class="st43" d="M37.7,20.1c-0.1-0.2-0.1-0.4-0.3-0.6c-0.2-0.5-0.5-1-0.8-1.5c-0.2-0.5-0.5-1-0.8-1.5c-0.4-0.6-0.6-1.2-1-1.8
		c-0.1-0.4-0.4-0.6-0.5-1c0.3,0.1,0.4,0.3,0.5,0.5c1.8,2.4,3.6,4.8,5.3,7.2c0.1,0.1,0.1,0.2,0.3,0.3c0,0.3-0.2,0.5-0.3,0.7
		c0,0-0.1,0.1-0.1,0.1c-0.5-0.5-0.8-1.1-1.2-1.6C38.3,20.8,38.1,20.3,37.7,20.1z"/>
	<path class="st38" d="M39.9,22.6c0.1-0.3,0.2-0.5,0.3-0.7c0-0.1,0.1-0.2,0.2-0.4c0.7,0.4,1.4,0.7,2.2,1.1c0,0.4,0,0.8,0,1.3
		c-0.1,0-0.2,0-0.3-0.1C41.5,23.4,40.7,23,39.9,22.6z"/>
	<path class="st44" d="M42.6,25.1c0,0.3,0,0.6,0,0.9c0,0.3,0,0.4-0.3,0.2c-0.3-0.2-0.7-0.3-1-0.5c-0.1,0-0.2-0.1-0.3,0
		c-0.1-0.1-0.2-0.2-0.3-0.4c-0.2-0.3-0.3-0.6-0.5-0.8c0-0.1-0.1-0.1-0.1-0.2c-0.1-0.1-0.2-0.2-0.1-0.3c0.1-0.1,0.2,0,0.3,0.1
		c0.6,0.3,1.1,0.6,1.7,0.8C42.3,24.9,42.4,25,42.6,25.1z"/>
	<path class="st45" d="M55.6,38.7c0-0.7,0.6-1.3,1.3-1.3c0.7,0,1.3,0.6,1.3,1.3c0,0.7-0.6,1.3-1.3,1.3
		C56.2,40.1,55.6,39.5,55.6,38.7z"/>
	<path class="st46" d="M56.4,38.7c0-0.2,0-0.3,0-0.5c0-0.4,0-0.4,0.5-0.4c0.5,0,0.8,0.2,0.7,0.5c-0.2,0.4,0,0.7,0,1.1
		c0,0.1,0.1,0.2-0.1,0.2c-0.1,0-0.2,0-0.3-0.1c0-0.1,0-0.3-0.1-0.4c0-0.2-0.2-0.2-0.3-0.2c-0.2,0-0.2,0.1-0.2,0.2c0,0,0,0,0,0.1
		c0,0.1,0.1,0.4-0.2,0.4c-0.3,0-0.1-0.3-0.2-0.4C56.3,39,56.4,38.9,56.4,38.7z"/>
	<path class="st47" d="M56.7,38.4c0-0.2,0-0.3,0.2-0.2c0.2,0,0.3,0,0.3,0.2c0,0.2-0.1,0.2-0.3,0.3C56.7,38.6,56.7,38.5,56.7,38.4z"
		/>
</g>
</svg>
