<svg xmlns="http://www.w3.org/2000/svg" viewBox="0 0 64.51 56.13"><title>vue-js</title><path d="M12.88.48c-4,0-8,0-12,0-.18,0-.58.66-.5.8Q16,28.47,31.79,55.57a1.13,1.13,0,0,0,1,0Q48.52,28.47,64.18,1.35c.08-.15-.31-.83-.48-.83-4-.05-8,0-12.05,0-3.77,0-7.55,0-11.32,0a1.23,1.23,0,0,0-.83.57C37.21,4.94,35,8.86,32.65,12.75a.89.89,0,0,1-.78,0C29.57,8.86,27.32,4.94,25,1.05a1.23,1.23,0,0,0-.82-.57C20.43.45,16.66.47,12.88.48Z" style="fill:#fefefe"/><path d="M51.65.48c4,0,8,0,12.05,0,.17,0,.56.68.48.83Q48.52,28.47,32.77,55.53a1.13,1.13,0,0,1-1,0Q16,28.48.33,1.32c-.08-.14.32-.8.5-.8,4-.05,8,0,12.05,0a2.88,2.88,0,0,0,.17.52q9.4,16.26,18.85,32.5a.91.91,0,0,0,.77-.06Q38.85,22.87,45,12.28C47.23,8.36,49.43,4.42,51.65.48Z" style="fill:#67b181"/><path d="M51.65.48C49.43,4.42,47.23,8.36,45,12.28Q38.86,22.87,32.67,33.44a.91.91,0,0,1-.77.06Q22.45,17.27,13.05,1a2.88,2.88,0,0,1-.17-.52c3.78,0,7.55,0,11.33,0a1.23,1.23,0,0,1,.82.57c2.29,3.89,4.54,7.81,6.84,11.7a.89.89,0,0,0,.78,0C35,8.86,37.21,4.94,39.5,1.05a1.23,1.23,0,0,1,.83-.57C44.1.46,47.88.48,51.65.48Z" style="fill:#394a5d"/></svg>