<?xml version="1.0" encoding="iso-8859-1"?>
<!-- Generator: Adobe Illustrator 19.0.0, SVG Export Plug-In . SVG Version: 6.00 Build 0)  -->
<svg version="1.1" id="Capa_1" xmlns="http://www.w3.org/2000/svg" xmlns:xlink="http://www.w3.org/1999/xlink" x="0px" y="0px"
	 viewBox="0 0 400 400" style="enable-background:new 0 0 400 400;" xml:space="preserve">
<g>
	<g>
		<path style="fill:#5D505B;" d="M400,318.644c0,44.93-35.98,81.356-80.367,81.356H80.365C35.98,400,0,363.574,0,318.644V81.356
			C0,36.423,35.98,0,80.365,0h239.268C364.02,0,400,36.423,400,81.356V318.644z"/>
		<path style="fill:#534551;" d="M399.881,318.644V226.73l-106.135-98.853l-41.356,74.21l-14.116,24.643l-49.859,14.611
			L73.244,282.48L179.907,400h139.606C363.898,400,399.881,363.574,399.881,318.644z"/>
		<g>
			<path style="fill:#C3E05E;" d="M323.477,194.686c0-69.021-55.273-90.813-123.456-90.813c-68.185,0-123.46,21.793-123.46,90.813
				c0,69.024,55.275,77.876,123.46,77.876C268.203,272.562,323.477,263.71,323.477,194.686z"/>
			<path style="fill:#D66D5D;" d="M301.097,209.322c0.015-0.145,0.027-0.29,0.027-0.436c0-11.678-45.251-21.142-101.068-21.142
				c-55.82,0-101.07,9.463-101.07,21.142c0,0.062,0.01,0.125,0.01,0.189h-0.019l-8.532,56.641h219.148L301.097,209.322z"/>
			<path style="fill:#7996B1;" d="M229.747,206.399c0,16.618-13.311,30.091-29.727,30.091l0,0
				c-16.418,0-29.729-13.473-29.729-30.091V175.92c0-16.618,13.311-30.09,29.729-30.09l0,0c16.416,0,29.727,13.473,29.727,30.09
				V206.399z"/>
			<path style="fill:#8ABFCD;" d="M222.735,202.804c0,12.703-10.171,22.995-22.715,22.995l0,0
				c-12.548,0-22.717-10.292-22.717-22.995v-23.285c0-12.703,10.169-22.999,22.717-22.999l0,0c12.544,0,22.715,10.296,22.715,22.999
				V202.804z"/>
			<ellipse style="fill:#5D505B;" cx="200.02" cy="191.161" rx="11.605" ry="11.747"/>
			<path style="fill:#7996B1;" d="M327.575,277.066c0,10.524-8.425,19.058-18.82,19.058H91.284
				c-10.395,0-18.822-8.533-18.822-19.058l0,0c0-10.521,8.427-19.052,18.822-19.052h217.471
				C319.15,258.015,327.575,266.545,327.575,277.066L327.575,277.066z"/>
		</g>
		<path style="opacity:0.28;fill:#534551;enable-background:new    ;" d="M327.575,277.066c0-10.521-8.425-19.052-18.82-19.052
			h-0.32l-1.878-12.448c10.738-11.541,16.92-27.845,16.92-50.881c0-69.021-55.273-90.813-123.456-90.813v192.252h108.734
			C319.15,296.124,327.575,287.591,327.575,277.066z"/>
	</g>
</g>
<g>
</g>
<g>
</g>
<g>
</g>
<g>
</g>
<g>
</g>
<g>
</g>
<g>
</g>
<g>
</g>
<g>
</g>
<g>
</g>
<g>
</g>
<g>
</g>
<g>
</g>
<g>
</g>
<g>
</g>
</svg>
