<?xml version="1.0" encoding="iso-8859-1"?>
<!-- Generator: Adobe Illustrator 19.0.0, SVG Export Plug-In . SVG Version: 6.00 Build 0)  -->
<svg version="1.1" id="Capa_1" xmlns="http://www.w3.org/2000/svg" xmlns:xlink="http://www.w3.org/1999/xlink" x="0px" y="0px"
	 viewBox="0 0 400 400" style="enable-background:new 0 0 400 400;" xml:space="preserve">
<g>
	<g>
		<path style="fill:#7996B1;" d="M400,318.644C400,363.577,364.02,400,319.633,400H80.365C35.98,400,0,363.577,0,318.644V81.356
			C0,36.423,35.98,0,80.365,0h239.268C364.02,0,400,36.423,400,81.356V318.644z"/>
		<path style="fill:#708DA8;" d="M400,318.644V118.558l-105.87-50.47L179.358,144.44v120.793l-13.214,77.664L266.937,400h52.696
			C364.018,400,400,363.574,400,318.644z"/>
		<g>
			<path style="fill:#C3E05E;" d="M196.593,331.706c0,9.634-7.716,17.446-17.232,17.446l0,0c-9.519,0-17.236-7.812-17.236-17.446
				V89.931c0-9.634,7.717-17.444,17.236-17.444l0,0c9.517,0,17.232,7.811,17.232,17.444V331.706z"/>
			<polygon style="fill:#5D505B;" points="202.935,102.837 141.817,102.837 141.817,160.038 202.935,160.038 294.13,194.788 
				294.13,68.088 			"/>
			<polygon style="fill:#938991;" points="294.13,68.088 266.937,78.45 266.937,184.425 294.13,194.788 			"/>
		</g>
		<polygon style="opacity:0.28;fill:#534551;enable-background:new    ;" points="202.935,160.038 294.13,194.788 294.13,68.088 
			202.935,102.837 196.593,102.837 196.593,160.038 		"/>
	</g>
</g>
<g>
</g>
<g>
</g>
<g>
</g>
<g>
</g>
<g>
</g>
<g>
</g>
<g>
</g>
<g>
</g>
<g>
</g>
<g>
</g>
<g>
</g>
<g>
</g>
<g>
</g>
<g>
</g>
<g>
</g>
</svg>
