<?xml version="1.0" encoding="iso-8859-1"?>
<!-- Generator: Adobe Illustrator 19.0.0, SVG Export Plug-In . SVG Version: 6.00 Build 0)  -->
<svg version="1.1" id="Capa_1" xmlns="http://www.w3.org/2000/svg" xmlns:xlink="http://www.w3.org/1999/xlink" x="0px" y="0px"
	 viewBox="0 0 400 400" style="enable-background:new 0 0 400 400;" xml:space="preserve">
<g>
	<g>
		<path style="fill:#5D505B;" d="M400,318.644c0,44.93-35.98,81.356-80.367,81.356H80.365C35.98,400,0,363.574,0,318.644V81.356
			C0,36.423,35.98,0,80.365,0h239.268C364.02,0,400,36.423,400,81.356V318.644z"/>
		<path style="fill:#534551;" d="M399.881,318.644V211.589L249.39,50.776l3,151.312l29.032,91.542L200,331.66l-82.793-8.69
			l62.7,77.03h139.606C363.898,400,399.881,363.574,399.881,318.644z"/>
		<g>
			<g>
				<path style="fill:#C3E05E;" d="M180.629,83.078c0-17.84,14.286-32.302,31.909-32.302s31.908,14.461,31.908,32.302
					c0,5.739-1.497,11.12-4.092,15.792c4.726,3.42,8.782,7.71,12.035,12.632c5.604-8.038,8.906-17.838,8.906-28.423
					c0-27.262-21.83-49.361-48.758-49.361c-26.929,0-48.761,22.1-48.761,49.361c0,1.322,0.068,2.629,0.168,3.926
					c5.269-2.3,10.907-3.641,16.685-3.88C180.631,83.107,180.629,83.093,180.629,83.078z"/>
				<path style="fill:#D66D5D;" d="M148.981,154.359l32.192,144.681c6.408,28.796,32.951,47.271,59.289,41.268l31.294-7.138
					c26.336-6.004,42.493-34.215,36.085-63.013l-32.192-144.682c-6.407-28.798-32.951-47.271-59.291-41.265l-31.292,7.134
					C158.731,97.35,142.574,125.561,148.981,154.359z M189.05,128.481c-2.453-11.026,4.386-21.979,15.279-24.459
					c10.89-2.486,21.709,4.44,24.162,15.467c2.453,11.024-4.389,21.974-15.279,24.46
					C202.319,146.432,191.503,139.506,189.05,128.481z"/>
				<path style="fill:none;" d="M192.515,84.21l31.296,7.134c6.12,1.397,11.681,4.003,16.544,7.525
					c2.595-4.671,4.092-10.052,4.092-15.792c0-17.84-14.285-32.302-31.908-32.302c-17.624,0-31.909,14.461-31.909,32.302
					c0,0.015,0.002,0.029,0.002,0.046C184.553,82.963,188.536,83.303,192.515,84.21z"/>
				<path style="fill:none;" d="M180.284,120.08c-2.083,10.822,4.684,21.429,15.379,23.869c9.665,2.204,19.258-3.01,23.013-11.916
					c-2.011,0.258-4.057,0.404-6.138,0.404C200.168,132.437,188.881,127.766,180.284,120.08z"/>
				<path style="fill:none;" d="M218.188,114.842c-2.622-5.304-7.483-9.417-13.64-10.82c-5.071-1.158-10.113-0.254-14.316,2.131
					c5.753,5.7,13.619,9.224,22.306,9.224C214.469,115.377,216.351,115.175,218.188,114.842z"/>
				<path style="fill:#C3E05E;" d="M218.188,114.842c-1.838,0.333-3.72,0.535-5.65,0.535c-8.687,0-16.552-3.524-22.306-9.224
					c-4.824,2.74-8.536,7.442-9.848,13.335c-0.043,0.198-0.062,0.396-0.101,0.591c8.598,7.686,19.885,12.357,32.254,12.357
					c2.081,0,4.127-0.146,6.138-0.404c0.478-1.128,0.874-2.311,1.149-3.552C220.893,123.691,220.199,118.916,218.188,114.842z"/>
				<path style="fill:#938991;" d="M204.549,104.022c6.156,1.403,11.018,5.516,13.64,10.82c9.529-1.726,17.584-7.719,22.166-15.973
					c-4.863-3.522-10.424-6.128-16.544-7.525l-31.296-7.134c-3.979-0.908-7.962-1.247-11.884-1.086
					c0.015,9.026,3.693,17.176,9.602,23.029C194.436,103.768,199.478,102.864,204.549,104.022z"/>
				<path style="fill:#938991;" d="M218.676,132.033c-3.755,8.905-13.348,14.12-23.013,11.916
					c-10.695-2.44-17.462-13.046-15.379-23.869c-9.208-8.231-15.314-19.928-16.338-33.076
					c-14.804,6.464-26.708,20.444-30.718,38.472l-32.194,144.682c-6.407,28.798,9.75,57.009,36.087,63.013l31.293,7.138
					c26.338,6.004,52.88-12.472,59.287-41.268l32.192-144.681c3.474-15.608,0.309-31.036-7.504-42.857
					C244.677,122.562,232.594,130.264,218.676,132.033z"/>
				<path style="fill:#938991;" d="M240.354,98.87c-4.582,8.254-12.637,14.247-22.166,15.973c2.011,4.074,2.704,8.849,1.637,13.639
					c-0.275,1.241-0.672,2.423-1.149,3.552c13.918-1.77,26.001-9.472,33.714-20.532C249.137,106.58,245.08,102.29,240.354,98.87z"/>
				<path style="fill:#C3E05E;" d="M180.284,120.08c0.039-0.196,0.058-0.394,0.101-0.591c1.312-5.893,5.024-10.596,9.848-13.335
					c-5.908-5.854-9.587-14.003-9.602-23.029c-5.778,0.239-11.417,1.58-16.685,3.88C164.97,100.152,171.075,111.849,180.284,120.08z
					"/>
			</g>
			<g>
				<path style="fill:#5D505B;" d="M221.851,231.544c-0.96,4.174-5.081,6.775-9.206,5.804l-76.359-17.963
					c-4.125-0.968-6.693-5.142-5.733-9.317l0,0c0.958-4.179,5.079-6.778,9.204-5.809l76.359,17.965
					C220.241,223.192,222.81,227.366,221.851,231.544L221.851,231.544z"/>
				<path style="fill:#5D505B;" d="M214.389,261.158c-0.959,4.174-5.079,6.775-9.204,5.804l-76.361-17.963
					c-4.123-0.969-6.691-5.142-5.733-9.318l0,0c0.958-4.178,5.082-6.777,9.204-5.806l76.361,17.963
					C212.778,252.809,215.347,256.979,214.389,261.158L214.389,261.158z"/>
				<path style="fill:#5D505B;" d="M208.707,290.776c-0.961,4.174-5.082,6.775-9.207,5.804l-76.361-17.963
					c-4.123-0.971-6.691-5.142-5.731-9.318l0,0c0.958-4.178,5.079-6.777,9.204-5.808l76.359,17.965
					C207.097,282.424,209.665,286.598,208.707,290.776L208.707,290.776z"/>
			</g>
		</g>
		<path style="fill:none;" d="M180.629,83.078c0,0.015,0.002,0.029,0.002,0.046c3.922-0.161,7.905,0.179,11.884,1.086l11.697,2.665
			V51.926C190.633,55.637,180.629,68.159,180.629,83.078z"/>
		<path style="opacity:0.28;fill:#534551;enable-background:new    ;" d="M240.463,340.308l31.294-7.138
			c26.336-6.004,42.493-34.215,36.085-63.013L275.65,125.475c-2.585-11.616-8.447-21.547-16.249-28.873
			c1.213-4.303,1.896-8.828,1.896-13.524c0-27.262-21.83-49.361-48.758-49.361c-2.84,0-5.62,0.26-8.326,0.731v17.478
			c2.658-0.727,5.44-1.149,8.326-1.149c17.623,0,31.908,14.461,31.908,32.302c0,1.232-0.082,2.444-0.216,3.641
			c-8.666-3.622-18.279-4.696-27.872-2.508l-11.921,2.716l-0.226-0.052v246.713c0.073-0.048,0.151-0.094,0.226-0.142
			C214.966,340.381,227.734,343.21,240.463,340.308z"/>
	</g>
</g>
<g>
</g>
<g>
</g>
<g>
</g>
<g>
</g>
<g>
</g>
<g>
</g>
<g>
</g>
<g>
</g>
<g>
</g>
<g>
</g>
<g>
</g>
<g>
</g>
<g>
</g>
<g>
</g>
<g>
</g>
</svg>
