<?xml version="1.0" encoding="iso-8859-1"?>
<!-- Generator: Adobe Illustrator 19.0.0, SVG Export Plug-In . SVG Version: 6.00 Build 0)  -->
<svg version="1.1" id="Capa_1" xmlns="http://www.w3.org/2000/svg" xmlns:xlink="http://www.w3.org/1999/xlink" x="0px" y="0px"
	 viewBox="0 0 400 400" style="enable-background:new 0 0 400 400;" xml:space="preserve">
<g>
	<g>
		<path style="fill:#D66D5D;" d="M400,318.644c0,44.93-35.982,81.356-80.367,81.356H80.365C35.98,400,0,363.574,0,318.644V81.356
			C0,36.423,35.98,0,80.365,0h239.268C364.018,0,400,36.423,400,81.356V318.644z"/>
		<path style="fill:#CE6352;" d="M400,318.644v-99.779L218.233,79.269l-76.18,243.534L249.731,400h69.901
			C364.018,400,400,363.574,400,318.644z"/>
		<g>
			<g>
				<path style="fill:#5D505B;" d="M261.528,258.658c0,35.426-28.369,64.145-63.362,64.145l0,0
					c-34.998,0-63.365-28.719-63.365-64.145V198.53c0-35.426,28.368-64.145,63.365-64.145l0,0c34.993,0,63.362,28.719,63.362,64.145
					V258.658z"/>
			</g>
			<g>
				<polygon style="fill:#C3E05E;" points="262.8,291.661 134.283,291.661 142.054,322.803 255.026,322.803 				"/>
			</g>
			<g>
				<polygon style="fill:#C3E05E;" points="274.109,219.022 122.971,219.022 127.466,187.882 269.614,187.882 				"/>
			</g>
			<g>
				<polygon style="fill:#C3E05E;" points="269.614,272.521 127.466,272.521 122.971,241.38 274.109,241.38 				"/>
			</g>
			<path style="fill:#5D505B;" d="M300.513,203.377l-36.595-91.06c-0.152-0.385-0.348-0.733-0.567-1.06
				c2.503-3.533,3.991-7.848,3.991-12.525c0-11.891-9.523-21.531-21.269-21.531s-21.268,9.641-21.268,21.531
				s9.521,21.526,21.268,21.526c2.969,0,5.795-0.618,8.36-1.729l35.8,89.079c0.874,2.18,2.951,3.502,5.141,3.502
				c0.697,0,1.404-0.132,2.09-0.415C300.304,209.525,301.667,206.249,300.513,203.377z M232.468,98.732
				c0-7.606,6.091-13.772,13.605-13.772s13.604,6.166,13.604,13.772c0,7.604-6.091,13.77-13.604,13.77
				C238.559,112.502,232.468,106.337,232.468,98.732z"/>
			<path style="fill:#C3E05E;" d="M255.026,134.385h-36.793v-27.56h23.04c4.417,0,7.999-3.624,7.999-8.093
				c0-4.474-3.582-8.098-7.999-8.098h-23.04V79.268h-40.14v55.117h-36.04l-7.771,31.144H262.8L255.026,134.385z"/>
		</g>
		<path style="opacity:0.28;fill:#534551;enable-background:new    ;" d="M262.8,291.661h-10.297
			c3.467-5.84,6.033-12.284,7.524-19.14h9.587l4.495-31.142h-12.581v-22.357h12.581l-4.495-31.14h-8.97
			c-1.331-8.058-4.136-15.61-8.14-22.353H262.8l-7.773-31.144h-36.793v-27.56h8.14c3.162,7.875,10.783,13.433,19.7,13.433
			c2.969,0,5.795-0.618,8.36-1.729l35.8,89.079c0.874,2.18,2.951,3.502,5.141,3.502c0.697,0,1.404-0.132,2.09-0.415
			c2.84-1.17,4.203-4.446,3.049-7.318l-36.595-91.06c-0.152-0.385-0.348-0.733-0.567-1.06c2.503-3.533,3.991-7.848,3.991-12.525
			c0-11.891-9.523-21.531-21.269-21.531c-8.915,0-16.538,5.558-19.7,13.434h-8.14V79.269H198.54v243.534h56.486L262.8,291.661z
			 M241.273,90.635h-6.188c2.474-3.435,6.467-5.675,10.987-5.675c7.514,0,13.604,6.166,13.604,13.772
			c0,7.604-6.091,13.77-13.604,13.77c-4.521,0-8.516-2.242-10.989-5.677h6.189c4.417,0,7.999-3.624,7.999-8.093
			C249.272,94.259,245.69,90.635,241.273,90.635z"/>
	</g>
</g>
<g>
</g>
<g>
</g>
<g>
</g>
<g>
</g>
<g>
</g>
<g>
</g>
<g>
</g>
<g>
</g>
<g>
</g>
<g>
</g>
<g>
</g>
<g>
</g>
<g>
</g>
<g>
</g>
<g>
</g>
</svg>
