<?xml version="1.0" encoding="iso-8859-1"?>
<!-- Generator: Adobe Illustrator 19.0.0, SVG Export Plug-In . SVG Version: 6.00 Build 0)  -->
<svg version="1.1" id="Capa_1" xmlns="http://www.w3.org/2000/svg" xmlns:xlink="http://www.w3.org/1999/xlink" x="0px" y="0px"
	 viewBox="0 0 400 400" style="enable-background:new 0 0 400 400;" xml:space="preserve">
<g>
	<g>
		<path style="fill:#5D505B;" d="M400,318.644c0,44.93-35.98,81.356-80.367,81.356H80.365C35.98,400,0,363.574,0,318.644V81.356
			C0,36.423,35.98,0,80.365,0h239.268C364.02,0,400,36.423,400,81.356V318.644z"/>
		<path style="fill:#534551;" d="M399.881,318.644V199.998L215.367,77.972L200,200l-7.603,53.237L200,304.676l-52.958,12.215
			L266.771,400h52.743C363.898,400,399.881,363.574,399.881,318.644z"/>
		<g>
			<path style="fill:#D66D5D;" d="M252.958,316.891c0,5.02-4.021,9.089-8.979,9.089h-87.957c-4.958,0-8.98-4.069-8.98-9.089l0,0
				c0-5.019,4.022-9.091,8.98-9.091h87.957C248.938,307.8,252.958,311.872,252.958,316.891L252.958,316.891z"/>
			<path style="fill:#D66D5D;" d="M333.542,174.454c0,14.832-30.646,26.856-45.297,26.856h-61.716
				c-14.651,0-26.529-12.024-26.529-26.856l0,0c0-14.834,11.878-26.854,26.529-26.854h61.716
				C302.896,147.6,333.542,159.62,333.542,174.454L333.542,174.454z"/>
			<path style="fill:#D66D5D;" d="M66.459,174.454c0,14.832,30.644,26.856,45.296,26.856h61.717
				c14.65,0,26.527-12.024,26.527-26.856l0,0c0-14.834-11.877-26.854-26.527-26.854h-61.717
				C97.104,147.6,66.459,159.62,66.459,174.454L66.459,174.454z"/>
			<path style="fill:#C3E05E;" d="M239.143,262.879c0,21.888-17.521,64.942-39.143,64.942l0,0
				c-21.616,0-39.143-43.055-39.143-64.942V114.422c0-21.885,17.527-39.625,39.143-39.625l0,0c21.621,0,39.143,17.74,39.143,39.625
				V262.879z"/>
			<path style="fill:#7996B1;" d="M200,152.744c16.723,0,31.314-9.193,39.143-22.851v-15.471c0-21.885-17.521-39.625-39.143-39.625
				c-21.616,0-39.143,17.74-39.143,39.625v15.471C168.686,143.551,183.28,152.744,200,152.744z"/>
			<ellipse style="fill:#FFFFFF;" cx="215.368" cy="108.968" rx="16.89" ry="17.101"/>
		</g>
		<path style="opacity:0.28;fill:#534551;enable-background:new    ;" d="M207.767,325.979h36.213c4.958,0,8.979-4.069,8.979-9.089
			c0-5.019-4.021-9.091-8.979-9.091h-18.685c8.469-14.197,13.848-32.801,13.848-44.921V201.31h49.103
			c14.651,0,45.297-12.024,45.297-26.856c0-14.834-30.646-26.854-45.297-26.854h-49.103v-17.707v-15.471
			c0-21.885-17.521-39.625-39.143-39.625c-0.512,0-1.014,0.056-1.521,0.079v252.853c0.506,0.048,1.012,0.093,1.521,0.093
			C202.659,327.821,205.256,327.164,207.767,325.979z"/>
	</g>
</g>
<g>
</g>
<g>
</g>
<g>
</g>
<g>
</g>
<g>
</g>
<g>
</g>
<g>
</g>
<g>
</g>
<g>
</g>
<g>
</g>
<g>
</g>
<g>
</g>
<g>
</g>
<g>
</g>
<g>
</g>
</svg>
