<?xml version="1.0" encoding="iso-8859-1"?>
<!-- Generator: Adobe Illustrator 19.0.0, SVG Export Plug-In . SVG Version: 6.00 Build 0)  -->
<svg version="1.1" id="Capa_1" xmlns="http://www.w3.org/2000/svg" xmlns:xlink="http://www.w3.org/1999/xlink" x="0px" y="0px"
	 viewBox="0 0 400 400" style="enable-background:new 0 0 400 400;" xml:space="preserve">
<g>
	<g>
		<path style="fill:#D66D5D;" d="M80.366,400h239.268c1.146,0,2.28-0.039,3.414-0.088H76.953C78.085,399.961,79.221,400,80.366,400z
			"/>
		<path style="fill:#D66D5D;" d="M400,318.644C400,363.577,364.018,400,319.634,400H80.366C35.982,400,0,363.577,0,318.644V81.354
			C0,36.423,35.982,0,80.366,0h239.268C364.018,0,400,36.423,400,81.354V318.644z"/>
		<path style="fill:#CE6352;" d="M346.586,101.574L46.229,304.376l56.87,95.536h216.535c44.384,0,80.366-36.425,80.366-81.355
			V167.482L346.586,101.574z"/>
		<g>
			<path style="fill:#C3E05E;" d="M133.909,241.58c-3.259-5.927-9.449-9.609-16.155-9.609c-3.122,0-6.222,0.818-8.965,2.364
				l-42.106,23.724c-5.143,2.897-7.218,7.535-9.056,12.439l-12.385,33.505c-0.204,0.55,0.074,1.164,0.619,1.372l31.715,12.016
				c0.117,0.043,0.243,0.066,0.368,0.066c0.15,0,0.298-0.031,0.436-0.096c0.255-0.116,0.453-0.331,0.551-0.598l10.65-28.809
				l37.172-20.945C135.651,261.999,138.861,250.589,133.909,241.58z"/>
			<g>
				<path style="fill:#5D505B;" d="M355.719,115.994l-8.213-14.938c-0.282-0.517-0.926-0.698-1.432-0.413L97.51,240.69
					c-8.896,5.011-12.105,16.414-7.154,25.42c3.255,5.927,9.445,9.606,16.149,9.606c0.002,0,0.002,0,0.002,0
					c3.12,0,6.218-0.815,8.961-2.36l19.379-10.908l1.302,2.367c2.453,4.465,7.117,7.238,12.169,7.238
					c2.354,0,4.69-0.616,6.759-1.782c3.249-1.83,5.597-4.829,6.617-8.451c1.018-3.618,0.582-7.424-1.226-10.711l-1.299-2.364
					l108.789-61.293c0.508-0.285,0.691-0.935,0.407-1.449l-8.215-14.944l95.161-53.616c0.245-0.137,0.424-0.366,0.5-0.639
					C355.89,116.533,355.854,116.241,355.719,115.994z M155.351,259.655c-0.413,2.223-1.61,3.994-3.37,4.987
					c-3.531,1.988-8.626-0.035-10.831-4.045l-0.711-1.297l4.168-2.348l0.138,1.902c0.156,2.138,2.042,3.782,4.149,3.626
					c2.13-0.16,3.736-2.046,3.58-4.2l-0.401-5.535l1.509-0.852l0.714,1.297C155.367,255.14,155.751,257.496,155.351,259.655z"/>
				<path style="fill:#5D505B;" d="M345.416,128.582c-0.281-0.516-0.925-0.695-1.431-0.412l-73.173,41.226
					c-0.245,0.137-0.424,0.366-0.5,0.639c-0.078,0.271-0.043,0.562,0.093,0.81l5.667,10.307c0.191,0.35,0.551,0.547,0.919,0.547
					c0.175,0,0.35-0.043,0.513-0.135l73.173-41.228c0.244-0.138,0.423-0.367,0.499-0.639c0.078-0.271,0.044-0.562-0.092-0.81
					L345.416,128.582z"/>
			</g>
			<path style="fill:#C3E05E;" d="M294.783,163.858c-2.246-4.086-6.513-6.624-11.138-6.624c-2.152,0-4.291,0.562-6.183,1.63
				l-83.003,46.767c-0.508,0.285-0.69,0.935-0.407,1.449l11.361,20.667c0.136,0.247,0.362,0.429,0.632,0.506
				c0.095,0.028,0.191,0.041,0.288,0.041c0.177,0,0.354-0.046,0.512-0.135l83.004-46.768c2.974-1.673,5.123-4.419,6.054-7.731
				C296.837,170.349,296.438,166.868,294.783,163.858z"/>
		</g>
		<g>
			<path style="fill:none;" d="M153.989,250.445l-3.017,1.699l0.45,6.214c0.115,1.573-1.053,2.943-2.607,3.06
				c-1.552,0.116-2.908-1.068-3.021-2.64l-0.259-3.57l-6.531,3.681l1.226,2.228c2.412,4.388,7.925,6.9,12.262,4.457
				c4.337-2.444,5.137-8.513,2.723-12.9L153.989,250.445z"/>
		</g>
		<g>
			<path style="fill:none;" d="M153.989,250.445l-3.017,1.699l0.45,6.214c0.115,1.573-1.053,2.943-2.607,3.06
				c-1.552,0.116-2.908-1.068-3.021-2.64l-0.259-3.57l-6.531,3.681l1.226,2.228c2.412,4.388,7.925,6.9,12.262,4.457
				c4.337-2.444,5.137-8.513,2.723-12.9L153.989,250.445z"/>
		</g>
		<path style="fill:none;" d="M355.719,115.994l-8.213-14.938c-0.282-0.517-0.926-0.698-1.432-0.413l-237.279,133.69
			c-0.002,0-0.004,0-0.006,0.002l-42.106,23.724c-5.143,2.897-7.218,7.535-9.056,12.439l-12.385,33.505
			c-0.204,0.55,0.074,1.164,0.619,1.372l31.715,12.016c0.117,0.043,0.243,0.066,0.368,0.066c0.15,0,0.298-0.031,0.436-0.096
			c0.255-0.116,0.453-0.331,0.551-0.598l10.65-28.809l37.172-20.945c0.027-0.015,0.049-0.031,0.074-0.048l8.02-4.514l1.302,2.367
			c2.453,4.465,7.117,7.238,12.169,7.238c2.354,0,4.69-0.616,6.759-1.782c3.249-1.83,5.597-4.829,6.617-8.451
			c1.018-3.618,0.582-7.424-1.226-10.711l-1.299-2.364l44.123-24.86l2.122,3.862c0.136,0.247,0.362,0.429,0.632,0.506
			c0.095,0.028,0.191,0.041,0.288,0.041c0.177,0,0.354-0.046,0.512-0.135l83.004-46.768c2.974-1.673,5.123-4.419,6.054-7.731
			c0.253-0.899,0.401-1.811,0.459-2.723l54.314-30.603c0.244-0.138,0.423-0.367,0.499-0.639c0.078-0.271,0.044-0.562-0.092-0.81
			l-5.668-10.304c-0.281-0.516-0.925-0.695-1.431-0.412L289.65,158.78c-1.553-0.841-3.275-1.349-5.075-1.482l70.736-39.856
			c0.245-0.137,0.424-0.366,0.5-0.639C355.89,116.533,355.854,116.241,355.719,115.994z"/>
		<path style="fill:none;" d="M355.719,115.994l-8.213-14.938c-0.282-0.517-0.926-0.698-1.432-0.413l-237.279,133.69
			c-0.002,0-0.004,0-0.006,0.002l-42.106,23.724c-5.143,2.897-7.218,7.535-9.056,12.439l-12.385,33.505
			c-0.204,0.55,0.074,1.164,0.619,1.372l31.715,12.016c0.117,0.043,0.243,0.066,0.368,0.066c0.15,0,0.298-0.031,0.436-0.096
			c0.255-0.116,0.453-0.331,0.551-0.598l10.65-28.809l37.172-20.945c0.027-0.015,0.049-0.031,0.074-0.048l8.02-4.514l1.302,2.367
			c2.453,4.465,7.117,7.238,12.169,7.238c2.354,0,4.69-0.616,6.759-1.782c3.249-1.83,5.597-4.829,6.617-8.451
			c1.018-3.618,0.582-7.424-1.226-10.711l-1.299-2.364l44.123-24.86l2.122,3.862c0.136,0.247,0.362,0.429,0.632,0.506
			c0.095,0.028,0.191,0.041,0.288,0.041c0.177,0,0.354-0.046,0.512-0.135l83.004-46.768c2.974-1.673,5.123-4.419,6.054-7.731
			c0.253-0.899,0.401-1.811,0.459-2.723l54.314-30.603c0.244-0.138,0.423-0.367,0.499-0.639c0.078-0.271,0.044-0.562-0.092-0.81
			l-5.668-10.304c-0.281-0.516-0.925-0.695-1.431-0.412L289.65,158.78c-1.553-0.841-3.275-1.349-5.075-1.482l70.736-39.856
			c0.245-0.137,0.424-0.366,0.5-0.639C355.89,116.533,355.854,116.241,355.719,115.994z"/>
		<path style="fill:none;" d="M153.582,251.895l-1.509,0.852l0.401,5.535c0.156,2.154-1.45,4.04-3.58,4.2
			c-2.107,0.156-3.993-1.488-4.149-3.626l-0.138-1.902l-4.168,2.348l0.711,1.297c2.205,4.01,7.3,6.033,10.831,4.045
			c1.76-0.993,2.957-2.765,3.37-4.987c0.401-2.159,0.017-4.516-1.055-6.464L153.582,251.895z"/>
		<path style="opacity:0.28;fill:#534551;enable-background:new    ;" d="M205.414,227.747c0.136,0.247,0.362,0.429,0.632,0.506
			c0.095,0.028,0.191,0.041,0.288,0.041c0.177,0,0.354-0.046,0.512-0.135l83.004-46.768c2.974-1.673,5.123-4.419,6.054-7.731
			c0.253-0.899,0.401-1.811,0.459-2.723l54.314-30.603c0.244-0.138,0.423-0.367,0.499-0.639c0.078-0.271,0.044-0.562-0.092-0.81
			l-5.668-10.304c-0.281-0.516-0.925-0.695-1.431-0.412L289.65,158.78c-1.553-0.841-3.275-1.349-5.075-1.482l70.736-39.856
			c0.245-0.137,0.424-0.366,0.5-0.639c0.078-0.271,0.043-0.562-0.093-0.81l-8.213-14.938c-0.282-0.517-0.926-0.698-1.432-0.413
			L200,182.945v42.795l3.292-1.855L205.414,227.747z"/>
	</g>
</g>
<g>
</g>
<g>
</g>
<g>
</g>
<g>
</g>
<g>
</g>
<g>
</g>
<g>
</g>
<g>
</g>
<g>
</g>
<g>
</g>
<g>
</g>
<g>
</g>
<g>
</g>
<g>
</g>
<g>
</g>
</svg>
