<?xml version="1.0" encoding="iso-8859-1"?>
<!-- Generator: Adobe Illustrator 19.0.0, SVG Export Plug-In . SVG Version: 6.00 Build 0)  -->
<svg version="1.1" id="Capa_1" xmlns="http://www.w3.org/2000/svg" xmlns:xlink="http://www.w3.org/1999/xlink" x="0px" y="0px"
	 viewBox="0 0 400 400" style="enable-background:new 0 0 400 400;" xml:space="preserve">
<g>
	<g>
		<path style="fill:#D66D5D;" d="M400,318.644c0,44.93-35.982,81.356-80.367,81.356H80.365C35.98,400,0,363.574,0,318.644V81.356
			C0,36.423,35.98,0,80.365,0h239.268C364.018,0,400,36.423,400,81.356V318.644z"/>
		<path style="fill:#CE6352;" d="M400,318.644V207.347l-79.808-71.09l-49.632,25.575l-32.289,14.251l-64.574,88.12l-42.647,33.384
			l-33.811-1.481L209.825,400h109.808C364.018,400,400,363.574,400,318.644z"/>
		<g>
			<path style="fill:#C3E05E;" d="M151.087,163.666c-28.935,7.74-46.192,37.758-38.544,67.047
				c7.646,29.292,37.3,46.759,66.233,39.02c28.933-7.74,46.19-37.758,38.544-67.049
				C209.673,173.394,180.021,155.924,151.087,163.666z M172.936,247.358c-16.726,4.476-33.87-5.625-38.292-22.558
				c-4.421-16.934,5.557-34.287,22.283-38.763c16.727-4.474,33.871,5.623,38.292,22.56
				C199.64,225.529,189.663,242.883,172.936,247.358z"/>
			<path style="opacity:0.35;fill:#C3E05E;enable-background:new    ;" d="M151.087,163.666
				c-28.935,7.74-46.192,37.758-38.544,67.047c7.646,29.292,37.3,46.759,66.233,39.02c28.933-7.74,46.19-37.758,38.544-67.049
				C209.673,173.394,180.021,155.924,151.087,163.666z M172.936,247.358c-16.726,4.476-33.87-5.625-38.292-22.558
				c-4.421-16.934,5.557-34.287,22.283-38.763c16.727-4.474,33.871,5.623,38.292,22.56
				C199.64,225.529,189.663,242.883,172.936,247.358z"/>
			<path style="fill:#5D505B;" d="M325.833,166.302c4.604,17.634,13.844,29.252-3.576,33.911L111.402,263.42
				c-17.419,4.658-36.93-12.21-41.532-29.844l0,0c-4.604-17.634,4.127-42.058,21.546-46.717l214.172-50.502
				c17.418-4.661,18.306,8.901,22.908,26.535L325.833,166.302z"/>
			<path style="fill:#C3E05E;" d="M117.205,200.204c-28.933,7.739-46.19,37.76-38.544,67.049c7.647,29.291,37.3,46.759,66.233,39.02
				c28.935-7.742,46.19-37.76,38.544-67.05C175.792,209.934,146.138,192.464,117.205,200.204z M139.054,283.896
				c-16.727,4.476-33.871-5.623-38.292-22.556c-4.419-16.935,5.557-34.287,22.283-38.763c16.729-4.476,33.87,5.625,38.292,22.557
				C165.757,262.067,155.78,279.423,139.054,283.896z"/>
			<path style="fill:#5D505B;" d="M337.057,162.097c4.551,17.436,0.691,33.594-8.622,36.084
				c-9.315,2.491-20.556-9.626-25.108-27.062c-4.553-17.434-0.691-33.594,8.622-36.084
				C321.262,132.541,332.504,144.661,337.057,162.097z"/>
			<path style="opacity:0.27;fill:#5D505B;enable-background:new    ;" d="M337.057,162.097c4.551,17.436,0.691,33.594-8.622,36.084
				c-9.315,2.491-20.556-9.626-25.108-27.062c-4.553-17.434-0.691-33.594,8.622-36.084
				C321.262,132.541,332.504,144.661,337.057,162.097z"/>
			<path style="fill:#C3E05E;" d="M332.148,163.408c3.229,12.363,0.489,23.818-6.111,25.584
				c-6.605,1.767-14.576-6.822-17.805-19.185c-3.225-12.363-0.489-23.818,6.116-25.586
				C320.949,142.454,328.922,151.047,332.148,163.408z"/>
		</g>
		<path style="fill:none;" d="M184.008,241.654c0.012,0.059,0.029,0.117,0.041,0.173c0.119-0.092,0.226-0.193,0.341-0.287
			L184.008,241.654z"/>
		<path style="fill:none;" d="M111.401,263.419c-3.241,0.865-6.551,0.984-9.827,0.497c5.41,15.356,21.623,24.223,37.479,19.98
			c7.635-2.043,13.837-6.784,17.934-12.93c-10.296-1.549-19.902-6.078-27.667-12.919L111.401,263.419z"/>
		<path style="opacity:0.28;fill:#534551;enable-background:new    ;" d="M217.037,231.754l105.22-31.542
			c1.925-0.514,3.509-1.12,4.824-1.803c0.455-0.054,0.909-0.11,1.354-0.229c9.313-2.49,13.173-18.648,8.622-36.084
			c-4.553-17.436-15.795-29.556-25.108-27.062c-0.434,0.117-0.845,0.292-1.256,0.466c-1.534,0.092-3.204,0.348-5.104,0.855
			l-104.115,24.549v96.266C208.877,250.311,214.281,241.496,217.037,231.754z"/>
	</g>
</g>
<g>
</g>
<g>
</g>
<g>
</g>
<g>
</g>
<g>
</g>
<g>
</g>
<g>
</g>
<g>
</g>
<g>
</g>
<g>
</g>
<g>
</g>
<g>
</g>
<g>
</g>
<g>
</g>
<g>
</g>
</svg>
