<?xml version="1.0" encoding="iso-8859-1"?>
<!-- Generator: Adobe Illustrator 19.0.0, SVG Export Plug-In . SVG Version: 6.00 Build 0)  -->
<svg version="1.1" id="Capa_1" xmlns="http://www.w3.org/2000/svg" xmlns:xlink="http://www.w3.org/1999/xlink" x="0px" y="0px"
	 viewBox="0 0 400 400" style="enable-background:new 0 0 400 400;" xml:space="preserve">
<g>
	<g>
		<path style="fill:#C3E05E;" d="M400,318.644c0,44.93-35.982,81.356-80.366,81.356H80.366C35.982,400,0,363.574,0,318.644V81.356
			C0,36.423,35.982,0,80.366,0h239.268C364.018,0,400,36.423,400,81.356V318.644z"/>
		<path style="fill:#B4D754;" d="M400,318.644V143.898L200,63.51l-37.649,270.502L297.896,400h21.737
			C364.018,400,400,363.574,400,318.644z"/>
		<g>
			<path style="fill:#7996B1;" d="M237.649,276.818c0,21.048-16.855,38.113-37.649,38.113l0,0
				c-20.794,0-37.649-17.065-37.649-38.113V151.653c0-21.05,16.855-88.143,37.649-88.143l0,0c20.794,0,37.649,67.093,37.649,88.143
				V276.818z"/>
			<path style="fill:#5D505B;" d="M261.456,282.462c0-24.868-19.912-45.022-44.473-45.022h-33.965
				c-24.563,0-44.475,20.154-44.475,45.022c0,16.966,9.276,31.735,22.97,39.408c-1.215,1.54-1.945,3.491-1.945,5.614
				c0,4.974,3.983,9.004,8.894,9.004h63.076c4.913,0,8.894-4.03,8.894-9.004c0-2.123-0.729-4.074-1.945-5.614
				C252.18,314.197,261.456,299.428,261.456,282.462z"/>
		</g>
		<path style="opacity:0.28;fill:#534551;enable-background:new    ;" d="M240.432,327.484c0-2.123-0.729-4.074-1.945-5.614
			c13.693-7.673,22.97-22.442,22.97-39.408c0-17.31-9.659-32.314-23.807-39.848v-90.961c0-21.05-16.855-88.143-37.649-88.143
			v272.978h31.538C236.451,336.488,240.432,332.458,240.432,327.484z"/>
	</g>
</g>
<g>
</g>
<g>
</g>
<g>
</g>
<g>
</g>
<g>
</g>
<g>
</g>
<g>
</g>
<g>
</g>
<g>
</g>
<g>
</g>
<g>
</g>
<g>
</g>
<g>
</g>
<g>
</g>
<g>
</g>
</svg>
