<?xml version="1.0" encoding="iso-8859-1"?>
<!-- Generator: Adobe Illustrator 19.0.0, SVG Export Plug-In . SVG Version: 6.00 Build 0)  -->
<svg version="1.1" id="Capa_1" xmlns="http://www.w3.org/2000/svg" xmlns:xlink="http://www.w3.org/1999/xlink" x="0px" y="0px"
	 viewBox="0 0 400 400" style="enable-background:new 0 0 400 400;" xml:space="preserve">
<g>
	<g>
		<path style="fill:#C3E05E;" d="M400,318.644C400,363.577,364.018,400,319.634,400H80.366C35.982,400,0,363.577,0,318.644V81.356
			C0,36.423,35.982,0,80.366,0h239.268C364.018,0,400,36.423,400,81.356V318.644z"/>
		<path style="fill:#B4D754;" d="M400,318.644V183.143L266.911,77.035l7.666,167.713l-159.965,70.365L218.933,400h100.701
			C364.018,400,400,363.574,400,318.644z"/>
		<g>
			<rect x="167.168" y="108.893" style="fill:#5D505B;" width="86.134" height="72.979"/>
			<rect x="167.168" y="108.893" style="opacity:0.35;fill:#483A46;enable-background:new    ;" width="86.134" height="72.979"/>
			<path style="fill:#5D505B;" d="M284.9,166.647v-66.296c0-14.807-11.857-26.81-26.481-26.81h-14.444
				c-14.627,0-26.483,12.003-26.483,26.81v34.421v18.648c0,7.33-5.869,13.271-13.107,13.271c-7.24,0-13.107-5.941-13.107-13.271
				v-18.648v-34.421c0-14.807-11.857-26.81-26.483-26.81H150.35c-14.627,0-26.481,12.003-26.481,26.81v66.296
				c-9.747,5.26-16.385,15.65-16.385,27.613v100.87c0,17.273,13.833,31.277,30.896,31.277h132.009
				c17.063,0,30.896-14.004,30.896-31.277V194.26C301.285,182.297,294.647,171.906,284.9,166.647z"/>
			<path style="fill:#D66D5D;" d="M167.403,238.678c0,5.987-4.793,10.839-10.706,10.839h-50.676
				c-5.914,0-10.708-4.852-10.708-10.839l0,0c0-5.987,4.793-10.84,10.708-10.84h50.676
				C162.609,227.838,167.403,232.69,167.403,238.678L167.403,238.678z"/>
			<path style="fill:#D66D5D;" d="M167.403,280.378c0,5.987-4.793,10.842-10.706,10.842h-50.676
				c-5.914,0-10.708-4.854-10.708-10.842l0,0c0-5.984,4.793-10.837,10.708-10.837h50.676
				C162.609,269.541,167.403,274.394,167.403,280.378L167.403,280.378z"/>
			<path style="fill:#D66D5D;" d="M313.457,238.678c0,5.987-4.794,10.839-10.708,10.839h-50.677
				c-5.911,0-10.705-4.852-10.705-10.839l0,0c0-5.987,4.794-10.84,10.705-10.84h50.677
				C308.663,227.838,313.457,232.69,313.457,238.678L313.457,238.678z"/>
			<path style="fill:#D66D5D;" d="M313.457,280.378c0,5.987-4.794,10.842-10.708,10.842h-50.677
				c-5.911,0-10.705-4.854-10.705-10.842l0,0c0-5.984,4.794-10.837,10.705-10.837h50.677
				C308.663,269.541,313.457,274.394,313.457,280.378L313.457,280.378z"/>
			<rect x="201.46" y="166.691" style="fill:#7996B1;" width="5.851" height="159.717"/>
		</g>
		<path style="opacity:0.28;fill:#534551;enable-background:new    ;" d="M270.389,326.408c17.063,0,30.896-14.004,30.896-31.277
			v-3.911h1.464c5.914,0,10.708-4.854,10.708-10.842c0-5.984-4.794-10.837-10.708-10.837h-1.464v-20.024h1.464
			c5.914,0,10.708-4.852,10.708-10.839s-4.794-10.84-10.708-10.84h-1.464v-33.577c0-11.963-6.638-22.355-16.385-27.613v-66.296
			c0-14.807-11.857-26.81-26.481-26.81h-14.444c-14.627,0-26.483,12.003-26.483,26.81v8.542h-13.105v217.515h2.925h63.077V326.408z"
			/>
	</g>
</g>
<g>
</g>
<g>
</g>
<g>
</g>
<g>
</g>
<g>
</g>
<g>
</g>
<g>
</g>
<g>
</g>
<g>
</g>
<g>
</g>
<g>
</g>
<g>
</g>
<g>
</g>
<g>
</g>
<g>
</g>
</svg>
