<?xml version="1.0" encoding="iso-8859-1"?>
<!-- Generator: Adobe Illustrator 19.0.0, SVG Export Plug-In . SVG Version: 6.00 Build 0)  -->
<svg version="1.1" id="Capa_1" xmlns="http://www.w3.org/2000/svg" xmlns:xlink="http://www.w3.org/1999/xlink" x="0px" y="0px"
	 viewBox="0 0 400 400" style="enable-background:new 0 0 400 400;" xml:space="preserve">
<g>
	<g>
		<path style="fill:#C3E05E;" d="M400,318.644C400,363.577,364.018,400,319.633,400H80.365C35.98,400,0,363.577,0,318.644V81.356
			C0,36.423,35.98,0,80.365,0h239.268C364.018,0,400,36.423,400,81.356V318.644z"/>
		<path style="fill:#B4D754;" d="M400,318.644V165.665L192.34,43.678l8.592,87.591l-55.647,213.115L239.686,400h79.947
			C364.018,400,400,363.577,400,318.644z"/>
		<g>
			<path style="fill:#5D505B;" d="M220.862,137.851c0-52.011-28.522-94.173-28.522-94.173s-28.52,42.163-28.52,94.173
				c0,52.009,28.52,94.171,28.52,94.171S220.862,189.86,220.862,137.851z"/>
			<path style="fill:#D66D5D;" d="M224.469,333.45V206.815c0-10.161-8.135-18.398-18.174-18.398h-27.907
				c-10.037,0-18.174,8.237-18.174,18.398V333.45H224.469z"/>
			<polygon style="fill:#7996B1;" points="239.686,344.384 209.827,344.384 209.827,291.52 239.686,307.288 			"/>
			<polygon style="fill:#7996B1;" points="145.284,344.384 175.143,344.384 175.143,291.52 145.284,307.288 			"/>
			<rect x="160.213" y="219.335" style="fill:#7996B1;" width="64.255" height="15.412"/>
		</g>
		<path style="opacity:0.28;fill:#534551;enable-background:new    ;" d="M209.827,344.384h29.858v-37.096l-15.217-8.035v-64.506
			v-15.412v-12.52c0-8.071-5.141-14.911-12.285-17.391c4.85-14.817,8.679-32.528,8.679-51.574c0-52.011-28.522-94.173-28.522-94.173
			V333.45h17.487L209.827,344.384L209.827,344.384z"/>
	</g>
</g>
<g>
</g>
<g>
</g>
<g>
</g>
<g>
</g>
<g>
</g>
<g>
</g>
<g>
</g>
<g>
</g>
<g>
</g>
<g>
</g>
<g>
</g>
<g>
</g>
<g>
</g>
<g>
</g>
<g>
</g>
</svg>
