<?xml version="1.0" encoding="iso-8859-1"?>
<!-- Generator: Adobe Illustrator 19.0.0, SVG Export Plug-In . SVG Version: 6.00 Build 0)  -->
<svg version="1.1" id="Capa_1" xmlns="http://www.w3.org/2000/svg" xmlns:xlink="http://www.w3.org/1999/xlink" x="0px" y="0px"
	 viewBox="0 0 400 400" style="enable-background:new 0 0 400 400;" xml:space="preserve">
<g>
	<g>
		<path style="fill:#D66D5D;" d="M400,318.644c0,44.93-35.982,81.356-80.367,81.356H80.365C35.98,400,0,363.574,0,318.644V81.356
			C0,36.423,35.98,0,80.365,0h239.268C364.018,0,400,36.423,400,81.356V318.644z"/>
		<path style="fill:#CE6352;" d="M400,318.644V172.709L199.533,55.881l-9.225,285.713L281.751,400h37.882
			C364.018,400,400,363.574,400,318.644z"/>
		<g>
			<path style="fill:#C3E05E;" d="M214.847,327.93c0,8.941-7.16,16.188-15.99,16.188l0,0c-8.832,0-15.992-7.246-15.992-16.188
				v-52.456c0-8.94,7.16-16.188,15.992-16.188l0,0c8.83,0,15.99,7.247,15.99,16.188V327.93z"/>
			<path style="fill:#5D505B;" d="M218.927,151.9c0.286-3.297,8.97-5.031,10.424-7.996c1.78-3.626,1.439-12.421,0-16.2
				c-1.781-4.686-13.65-9.882-13.305-14.89c0.3-4.378,11.471-7.288,13.305-11.264c0.177-0.383,0.123-1.287,0-1.69
				c-3.901-12.738-16.645-43.979-29.817-43.979c-13.175,0-25.918,31.242-29.821,43.979c-11.551,37.704,0,157.9,0,157.9h59.639
				c0,0,8.514-72.474,0-94.463C227.952,159.684,218.592,155.769,218.927,151.9z"/>
			<path style="fill:#7996B1;" d="M253.99,266.687c0,10.448-8.365,18.917-18.685,18.917h-72.898
				c-10.319,0-18.686-8.469-18.686-18.917l0,0c0-10.445,8.367-18.914,18.686-18.914h72.898
				C245.625,247.772,253.99,256.241,253.99,266.687L253.99,266.687z"/>
		</g>
		<path style="opacity:0.28;fill:#534551;enable-background:new    ;" d="M214.847,327.93v-42.326h20.459
			c10.319,0,18.685-8.469,18.685-18.917c0-10.445-8.365-18.914-18.685-18.914h-4.917c1.975-20.638,5.521-67.53-1.038-84.475
			c-1.398-3.614-10.759-7.529-10.424-11.397c0.286-3.297,8.97-5.031,10.424-7.996c1.78-3.626,1.439-12.421,0-16.2
			c-1.781-4.686-13.65-9.882-13.305-14.89c0.3-4.378,11.471-7.288,13.305-11.264c0.177-0.383,0.123-1.287,0-1.69
			C225.497,87.273,213.007,56.639,200,55.915V344.06C208.295,343.461,214.847,336.479,214.847,327.93z"/>
	</g>
</g>
<g>
</g>
<g>
</g>
<g>
</g>
<g>
</g>
<g>
</g>
<g>
</g>
<g>
</g>
<g>
</g>
<g>
</g>
<g>
</g>
<g>
</g>
<g>
</g>
<g>
</g>
<g>
</g>
<g>
</g>
</svg>
