<?xml version="1.0" encoding="iso-8859-1"?>
<!-- Generator: Adobe Illustrator 19.0.0, SVG Export Plug-In . SVG Version: 6.00 Build 0)  -->
<svg version="1.1" id="Capa_1" xmlns="http://www.w3.org/2000/svg" xmlns:xlink="http://www.w3.org/1999/xlink" x="0px" y="0px"
	 viewBox="0 0 400 400" style="enable-background:new 0 0 400 400;" xml:space="preserve">
<g>
	<g>
		<path style="fill:#D66D5D;" d="M400,318.644C400,363.577,364.018,400,319.634,400H80.366C35.982,400,0,363.577,0,318.644V81.354
			C0,36.423,35.982,0,80.366,0h239.268C364.018,0,400,36.423,400,81.354V318.644z"/>
		<path style="fill:#D66D5D;" d="M80.366,400h239.268c1.146,0,2.28-0.039,3.414-0.088H76.953C78.085,399.961,79.221,400,80.366,400z
			"/>
		<path style="fill:#CE6352;" d="M57.343,234.152v162.442c6.251,1.89,12.819,3.03,19.609,3.317h246.095
			c8.079-0.341,15.844-1.894,23.134-4.478V234.152H57.343z"/>
		<polygon style="fill:#5D505B;" points="335.28,278.284 223.563,237.818 223.563,172.824 335.28,225.555 		"/>
		<polygon style="fill:#938991;" points="249.901,336.034 201.763,318.5 201.763,290.339 249.901,313.186 		"/>
		<polygon style="fill:#938991;" points="154.115,336.034 202.254,318.5 202.254,290.339 154.115,313.186 		"/>
		<path style="fill:#938991;" d="M346.182,291.773c0,4.063-2.439,7.356-5.449,7.356l0,0c-3.015,0-5.452-3.293-5.452-7.356v-71.127
			c0-4.063,2.438-7.357,5.452-7.357l0,0c3.01,0,5.449,3.294,5.449,7.357V291.773z"/>
		<polygon style="fill:#5D505B;" points="68.244,278.284 179.961,237.818 179.961,172.824 68.244,225.555 		"/>
		<path style="fill:#938991;" d="M57.343,291.773c0,4.063,2.439,7.356,5.449,7.356l0,0c3.015,0,5.451-3.293,5.451-7.356v-71.127
			c0-4.063-2.437-7.357-5.451-7.357l0,0c-3.01,0-5.449,3.294-5.449,7.357V291.773z"/>
		<path style="fill:#938991;" d="M243.066,287.195c0.606-2.889,0.941-5.876,0.941-8.951v-87.518
			c0-23.621-18.916-42.766-42.245-42.766c-23.33,0-42.246,19.146-42.246,42.766v87.518c0,3.075,0.335,6.062,0.942,8.951H243.066z"/>
		<rect x="178.184" y="93.26" style="fill:#5D505B;" width="47.156" height="193.936"/>
		<polygon style="fill:#938991;" points="201.763,36.571 201.763,36.571 178.184,93.26 225.34,93.26 		"/>
		<path style="fill:#5D505B;" d="M213.06,320.359c0,6.315-5.057,11.437-11.297,11.437l0,0c-6.241,0-11.298-5.121-11.298-11.437
			v-52.713c0-6.315,5.057-11.437,11.298-11.437l0,0c6.24,0,11.297,5.121,11.297,11.437V320.359z"/>
		<path style="fill:#938991;" d="M207.658,339.254c0,3.298-2.637,5.967-5.896,5.967l0,0c-3.258,0-5.896-2.669-5.896-5.967v-42.766
			c0-3.293,2.638-5.966,5.896-5.966l0,0c3.259,0,5.896,2.673,5.896,5.966V339.254z"/>
		<path style="fill:#C3E05E;" d="M213.06,156.759c0,6.317-5.057,11.437-11.297,11.437l0,0c-6.241,0-11.298-5.12-11.298-11.437
			v-33.914c0-6.317,5.057-11.437,11.298-11.437l0,0c6.24,0,11.297,5.12,11.297,11.437V156.759z"/>
		<path style="fill:#FFFFFF;" d="M201.763,119.829c0-2.799-2.246-5.07-5.008-5.07c-2.764,0-5.009,2.271-5.009,5.07
			s2.245,5.07,5.009,5.07C199.517,124.899,201.763,122.628,201.763,119.829z"/>
		<path style="opacity:0.28;fill:#534551;enable-background:new    ;" d="M207.66,339.231v-9.181
			c2.645-1.648,4.575-4.342,5.186-7.539l37.058,13.497V313.16l-36.842-17.481v-8.506h12.281h17.726
			c0.606-2.89,0.941-5.879,0.941-8.951v-33.02l91.273,33.057v13.489c0,4.063,2.437,7.356,5.451,7.356
			c3.01,0,5.449-3.293,5.449-7.356v-71.123c0-4.063-2.439-7.356-5.449-7.356c-3.015,0-5.451,3.293-5.451,7.356v4.909l-92.144-43.493
			c-2.262-11.134-8.799-20.686-17.797-26.825V93.237l-23.089-55.512v307.422C205.278,344.89,207.66,342.358,207.66,339.231z"/>
	</g>
</g>
<g>
</g>
<g>
</g>
<g>
</g>
<g>
</g>
<g>
</g>
<g>
</g>
<g>
</g>
<g>
</g>
<g>
</g>
<g>
</g>
<g>
</g>
<g>
</g>
<g>
</g>
<g>
</g>
<g>
</g>
</svg>
