<?xml version="1.0" encoding="iso-8859-1"?>
<!-- Generator: Adobe Illustrator 19.0.0, SVG Export Plug-In . SVG Version: 6.00 Build 0)  -->
<svg version="1.1" id="Capa_1" xmlns="http://www.w3.org/2000/svg" xmlns:xlink="http://www.w3.org/1999/xlink" x="0px" y="0px"
	 viewBox="0 0 400 400" style="enable-background:new 0 0 400 400;" xml:space="preserve">
<g>
	<g>
		<path style="fill:#C3E05E;" d="M400,318.644C400,363.577,364.02,400,319.633,400H80.365C35.98,400,0,363.577,0,318.644V81.354
			C0,36.423,35.98,0,80.365,0h239.268C364.02,0,400,36.423,400,81.354V318.644z"/>
		<path style="fill:#B4D754;" d="M399.881,318.644v-95.166L267.833,95.148L277.801,200l44.331,47.572l-11.582,54.937l-72.276-2.448
			l-82.419-88.771l18.353,65.856l-35.886,33.04l-61.656-15.594L181.281,400h138.233C363.898,400,399.881,363.574,399.881,318.644z"
			/>
		<g>
			<g>
				<g>
					<rect x="270.13" y="193.187" style="fill:#D66D5D;" width="15.341" height="6.657"/>
				</g>
				<g>
					<path style="fill:#D66D5D;" d="M129.872,190.397h-15.341v-52.296c0-33.471,26.901-60.704,59.968-60.704h51.004
						c33.066,0,59.968,27.233,59.968,60.704v49.507H270.13v-49.507c0-24.91-20.019-45.175-44.627-45.175h-51.004
						c-24.606,0-44.627,20.265-44.627,45.175V190.397z"/>
				</g>
				<g>
					<rect x="114.531" y="193.187" style="fill:#D66D5D;" width="15.341" height="6.657"/>
				</g>
			</g>
			<g>
				<g>
					<path style="fill:#5D505B;" d="M155.854,211.289v-18.841H95.119v18.841c-17.253,10.467-28.806,29.57-28.806,51.413
						c0,33.082,26.492,59.9,59.174,59.9c32.68,0,59.172-26.818,59.172-59.9C184.66,240.859,173.107,221.756,155.854,211.289z
						 M125.488,302.509c-21.717,0-39.324-17.824-39.324-39.807c0-21.984,17.607-39.806,39.324-39.806
						c21.715,0,39.322,17.821,39.322,39.806C164.81,284.685,147.203,302.509,125.488,302.509z"/>
				</g>
				<g>
					<path style="fill:#5D505B;" d="M304.881,211.289v-18.841h-60.734v18.841c-17.253,10.467-28.806,29.57-28.806,51.413
						c0,33.082,26.494,59.9,59.174,59.9s59.172-26.818,59.172-59.9C333.687,240.859,322.134,221.756,304.881,211.289z
						 M274.515,302.509c-21.718,0-39.322-17.824-39.322-39.807c0-21.984,17.604-39.806,39.322-39.806
						c21.715,0,39.321,17.821,39.321,39.806C313.836,284.685,296.229,302.509,274.515,302.509z"/>
				</g>
			</g>
			<g>
				<path style="fill:#5D505B;" d="M129.855,97.566l11.419,10.375c2.517-2.839,5.381-5.354,8.518-7.465l-8.507-12.925
					C137.079,90.389,133.234,93.757,129.855,97.566z"/>
				<path style="fill:#5D505B;" d="M146.718,84.292l7.119,13.758c3.331-1.767,6.878-3.097,10.541-3.957l-3.46-15.13
					C155.983,80.118,151.207,81.912,146.718,84.292z"/>
				<path style="fill:#5D505B;" d="M167.135,77.853l1.871,15.413c1.806-0.225,3.652-0.339,5.493-0.339h6.782V77.398h-6.782
					C172.036,77.397,169.558,77.549,167.135,77.853z"/>
				<path style="fill:#5D505B;" d="M118.642,115.973l14.286,5.662c1.367-3.537,3.181-6.896,5.394-9.988l-12.427-9.107
					C122.923,106.695,120.482,111.214,118.642,115.973z"/>
				<rect x="114.531" y="142.897" style="fill:#5D505B;" width="15.341" height="13.389"/>
				<rect x="114.531" y="161.868" style="fill:#5D505B;" width="15.341" height="13.392"/>
				<polygon style="fill:#5D505B;" points="114.531,193.187 114.531,194.228 114.531,199.844 129.872,199.844 129.872,199.809 
					129.872,194.228 129.872,193.187 129.872,180.838 114.531,180.838 				"/>
				<rect x="186.792" y="77.397" style="fill:#5D505B;" width="13.229" height="15.529"/>
				<path style="fill:#5D505B;" d="M114.54,137.206l15.338,0.221c0.056-3.828,0.584-7.623,1.573-11.281l-14.798-4.099
					C115.323,126.968,114.611,132.068,114.54,137.206z"/>
				<rect x="205.531" y="77.397" style="fill:#5D505B;" width="13.227" height="15.529"/>
				<rect x="270.13" y="167.482" style="fill:#5D505B;" width="15.341" height="13.39"/>
				<path style="fill:#5D505B;" d="M225.503,77.397h-1.231v15.529h1.233c0.007,0,0.009,0,0.013,0c3.422,0,6.833,0.396,10.136,1.172
					l3.476-15.126c-4.442-1.045-9.02-1.576-13.609-1.576C225.516,77.397,225.509,77.397,225.503,77.397z"/>
				<polygon style="fill:#5D505B;" points="270.13,193.187 270.13,199.844 285.471,199.844 285.471,193.187 285.471,186.452 
					270.13,186.452 				"/>
				<path style="fill:#5D505B;" d="M284.697,128.338l-15.143,2.485c0.38,2.384,0.575,4.834,0.575,7.278v4.83h15.341v-4.83
					C285.471,134.829,285.212,131.542,284.697,128.338z"/>
				<rect x="270.13" y="148.512" style="fill:#5D505B;" width="15.341" height="13.392"/>
				<path style="fill:#5D505B;" d="M245.201,80.749l-5.04,14.667c3.547,1.249,6.934,2.956,10.067,5.073l8.514-12.923
					C254.528,84.723,249.974,82.429,245.201,80.749z"/>
				<path style="fill:#5D505B;" d="M263.803,91.388L254,103.335c2.899,2.438,5.486,5.239,7.693,8.329l12.433-9.099
					C271.165,98.42,267.691,94.661,263.803,91.388z"/>
				<path style="fill:#5D505B;" d="M277.552,107.936l-13.305,7.727c1.871,3.306,3.323,6.842,4.314,10.515l14.8-4.09
					C282.028,117.145,280.073,112.384,277.552,107.936z"/>
			</g>
		</g>
		<ellipse style="fill:none;" cx="125.487" cy="262.702" rx="39.323" ry="39.807"/>
		<path style="opacity:0.28;fill:#534551;enable-background:new    ;" d="M205.531,92.926h13.227h5.514h1.231
			c1.427,0,2.834,0.083,4.226,0.217c0.167,0.017,0.336,0.027,0.502,0.043c1.347,0.144,2.672,0.354,3.979,0.616
			c0.175,0.036,0.348,0.071,0.521,0.106c4.215,0.901,8.213,2.4,11.899,4.415c0.076,0.042,0.152,0.083,0.229,0.125
			c3.742,2.073,7.162,4.669,10.156,7.696c0.021,0.021,0.039,0.04,0.06,0.061c3,3.043,5.575,6.52,7.627,10.323
			c0.027,0.048,0.052,0.098,0.078,0.148c1.314,2.46,2.404,5.061,3.256,7.769c0.053,0.17,0.104,0.346,0.158,0.518
			c0.742,2.471,1.261,5.036,1.577,7.667c0.049,0.42,0.111,0.837,0.15,1.257c0.127,1.391,0.209,2.792,0.209,4.213v4.83v5.581v13.392
			v5.579v13.39v5.581v1.156v4.84h-25.983v18.841c-17.253,10.467-28.806,29.57-28.806,51.413c0,33.082,26.494,59.9,59.174,59.9
			s59.172-26.818,59.172-59.9c0-21.843-11.553-40.946-28.806-51.413v-18.841h-19.41v-4.84v-1.156v-5.581v-13.39v-5.579v-13.392
			v-5.581v-4.83c0-1.474-0.07-2.929-0.173-4.375c-0.022-0.323-0.045-0.644-0.071-0.966c-0.124-1.411-0.286-2.812-0.502-4.196
			c-0.013-0.075-0.015-0.15-0.027-0.225l-0.012,0.002c-0.342-2.121-0.794-4.205-1.348-6.247l0.023-0.006
			c-0.095-0.35-0.217-0.693-0.317-1.041c-0.164-0.566-0.333-1.13-0.512-1.688c-0.181-0.566-0.368-1.128-0.565-1.686
			c-0.173-0.489-0.36-0.972-0.545-1.455c-0.843-2.207-1.815-4.361-2.91-6.455c-0.144-0.275-0.285-0.554-0.434-0.825
			c-0.181-0.333-0.342-0.674-0.526-1.001l-0.033,0.019c-1.051-1.853-2.194-3.643-3.426-5.367l0.033-0.023
			c-1.859-2.602-3.94-5.031-6.178-7.302c-0.039-0.04-0.076-0.077-0.115-0.115c-1.293-1.307-2.624-2.577-4.03-3.759l-0.021,0.025
			c-1.616-1.361-3.305-2.633-5.059-3.818l0.019-0.029c-0.647-0.437-1.32-0.836-1.982-1.249c-0.088-0.054-0.175-0.11-0.264-0.164
			c-0.711-0.435-1.433-0.856-2.161-1.26c-0.229-0.129-0.46-0.252-0.69-0.376c-0.703-0.379-1.409-0.751-2.124-1.104
			c-0.145-0.069-0.29-0.131-0.435-0.2c-1.306-0.625-2.634-1.197-3.98-1.726c-0.418-0.162-0.833-0.333-1.257-0.487
			c-0.218-0.079-0.43-0.175-0.647-0.252l-0.009,0.027c-1.978-0.699-4.003-1.292-6.07-1.78l0.007-0.023
			c-0.27-0.062-0.543-0.108-0.812-0.167c-0.556-0.123-1.112-0.235-1.672-0.341c-0.479-0.091-0.958-0.183-1.439-0.262
			c-0.623-0.102-1.255-0.189-1.884-0.272c-0.434-0.056-0.865-0.121-1.302-0.169c-0.711-0.079-1.431-0.133-2.15-0.187
			c-0.364-0.025-0.727-0.062-1.09-0.083c-1.037-0.056-2.079-0.087-3.128-0.089c-0.044,0-0.089-0.004-0.132-0.004
			c-0.004,0-0.011,0-0.017,0h-1.231h-5.514h-13.227h-5.511H200v15.529h0.021h5.51V92.926z M274.515,222.896
			c21.715,0,39.321,17.821,39.321,39.806c0,21.982-17.606,39.807-39.321,39.807c-21.718,0-39.322-17.824-39.322-39.807
			C235.192,240.718,252.797,222.896,274.515,222.896z"/>
	</g>
</g>
<g>
</g>
<g>
</g>
<g>
</g>
<g>
</g>
<g>
</g>
<g>
</g>
<g>
</g>
<g>
</g>
<g>
</g>
<g>
</g>
<g>
</g>
<g>
</g>
<g>
</g>
<g>
</g>
<g>
</g>
</svg>
