<?xml version="1.0" encoding="iso-8859-1"?>
<!-- Generator: Adobe Illustrator 19.0.0, SVG Export Plug-In . SVG Version: 6.00 Build 0)  -->
<svg version="1.1" id="Capa_1" xmlns="http://www.w3.org/2000/svg" xmlns:xlink="http://www.w3.org/1999/xlink" x="0px" y="0px"
	 viewBox="0 0 400 400" style="enable-background:new 0 0 400 400;" xml:space="preserve">
<g>
	<g>
		<path style="fill:#C3E05E;" d="M400,318.644C400,363.577,364.018,400,319.633,400H80.365C35.98,400,0,363.577,0,318.644V81.354
			C0,36.423,35.98,0,80.365,0h239.268C364.018,0,400,36.423,400,81.354V318.644z"/>
		<path style="fill:#B4D754;" d="M400,318.644V158.695L264.889,65.008l-27.985,73.679l-29.029,47.987l-40.264,85.921l-32.758,66.423
			L220.638,400h98.995C364.018,400,400,363.574,400,318.644z"/>
		<g>
			<path style="fill:#5D505B;" d="M265.147,60.981c-5.194-3.622-68.4,64.461-68.4,64.461l-16.928,75.465l16.128,7.744l16.126,7.744
				l47.026-61.008C259.1,155.387,272.81,66.325,265.147,60.981z"/>
			<path style="fill:#D66D5D;" d="M217.792,219.144L174.1,198.16c-7.286-3.497-15.744-0.889-18.89,5.827
				c-3.148,6.718,0.208,14.999,7.493,18.496l4.505,2.165c-4.404,2.04-8.075,5.451-10.23,10.05c-2.169,4.63-2.449,9.699-1.197,14.466
				c-4.44,2.034-8.142,5.462-10.311,10.09s-2.449,9.696-1.197,14.464c-4.439,2.036-8.139,5.46-10.309,10.09
				c-3.738,7.975-1.917,17.268,3.848,24.029l-8.365,17.848c-2.268,4.842,0.152,10.812,5.404,13.336
				c5.254,2.522,11.353,0.643,13.621-4.199l8.363-17.847c8.822,0.24,17.082-4.211,20.819-12.186
				c2.169-4.63,2.449-9.696,1.197-14.464c4.441-2.036,8.141-5.462,10.311-10.09c2.167-4.628,2.449-9.696,1.197-14.466
				c4.439-2.033,8.139-5.46,10.308-10.088c2.155-4.601,2.445-9.636,1.22-14.38l4.506,2.165c7.285,3.497,15.743,0.889,18.89-5.827
				C228.432,230.921,225.077,222.641,217.792,219.144z"/>
		</g>
		<path style="opacity:0.28;fill:#534551;enable-background:new    ;" d="M148.474,334.82l8.363-17.847
			c8.822,0.24,17.082-4.211,20.819-12.186c2.169-4.63,2.449-9.696,1.197-14.464c4.441-2.036,8.141-5.462,10.311-10.09
			c2.167-4.628,2.449-9.696,1.197-14.466c4.439-2.033,8.139-5.46,10.308-10.088c2.155-4.601,2.445-9.636,1.22-14.38l4.506,2.165
			c7.285,3.497,15.743,0.889,18.89-5.827c3.148-6.718-0.206-14.998-7.491-18.495l-5.719-2.748l47.026-61.008
			c0,0,13.217-90.378,6.048-94.406L136.24,339.535C141.141,341.152,146.401,339.244,148.474,334.82z"/>
	</g>
</g>
<g>
</g>
<g>
</g>
<g>
</g>
<g>
</g>
<g>
</g>
<g>
</g>
<g>
</g>
<g>
</g>
<g>
</g>
<g>
</g>
<g>
</g>
<g>
</g>
<g>
</g>
<g>
</g>
<g>
</g>
</svg>
