<?xml version="1.0" encoding="iso-8859-1"?>
<!-- Generator: Adobe Illustrator 19.0.0, SVG Export Plug-In . SVG Version: 6.00 Build 0)  -->
<svg version="1.1" id="Capa_1" xmlns="http://www.w3.org/2000/svg" xmlns:xlink="http://www.w3.org/1999/xlink" x="0px" y="0px"
	 viewBox="0 0 400 400" style="enable-background:new 0 0 400 400;" xml:space="preserve">
<g>
	<g>
		<path style="fill:#5D505B;" d="M400,318.644C400,363.577,364.018,400,319.634,400H80.366C35.982,400,0,363.577,0,318.644V81.356
			C0,36.423,35.982,0,80.366,0h239.268C364.018,0,400,36.423,400,81.356V318.644z"/>
		<path style="fill:#534551;" d="M400,318.644V188.899l-125.784-81.874l-5.865,27.586l-76.479-34.408l-50.374,197.885
			l-32.003,11.308L273.095,400h46.539C364.018,400,400,363.574,400,318.644z"/>
		<g>
			<rect x="123.457" y="100.204" style="fill:#D66D5D;" width="68.415" height="144.173"/>
			<rect x="123.457" y="244.377" style="fill:#938991;" width="68.415" height="42.404"/>
			<rect x="109.494" y="286.781" style="fill:#736771;" width="96.34" height="22.615"/>
			<g>
				<path style="fill:#7996B1;" d="M292.453,136.351c0-17.955-14.378-32.51-32.114-32.51l0,0c-17.735,0-32.113,14.555-32.113,32.51
					v51.944c0,17.954,14.378,32.51,32.113,32.51l0,0c17.736,0,32.114-14.556,32.114-32.51V136.351z"/>
				<rect x="228.226" y="134.612" style="fill:#938991;" width="64.228" height="144.171"/>
				<rect x="233.919" y="278.783" style="fill:#736771;" width="52.643" height="15.692"/>
				<rect x="228.125" y="294.476" style="fill:#938991;" width="64.228" height="14.921"/>
			</g>
		</g>
		<polygon style="opacity:0.28;fill:#534551;enable-background:new    ;" points="123.457,100.204 123.457,244.377 123.457,286.781 
			109.494,286.781 109.494,309.396 157.664,309.396 157.664,100.204 		"/>
		<path style="opacity:0.28;fill:#534551;enable-background:new    ;" d="M228.312,134.612h-0.086v1.738v51.944v90.488h5.693v15.692
			h-5.794v14.921h32.115V103.846C243.13,103.899,229.208,117.504,228.312,134.612z"/>
	</g>
</g>
<g>
</g>
<g>
</g>
<g>
</g>
<g>
</g>
<g>
</g>
<g>
</g>
<g>
</g>
<g>
</g>
<g>
</g>
<g>
</g>
<g>
</g>
<g>
</g>
<g>
</g>
<g>
</g>
<g>
</g>
</svg>
