<?xml version="1.0" encoding="iso-8859-1"?>
<!-- Generator: Adobe Illustrator 19.0.0, SVG Export Plug-In . SVG Version: 6.00 Build 0)  -->
<svg version="1.1" id="Capa_1" xmlns="http://www.w3.org/2000/svg" xmlns:xlink="http://www.w3.org/1999/xlink" x="0px" y="0px"
	 viewBox="0 0 400 400" style="enable-background:new 0 0 400 400;" xml:space="preserve">
<g>
	<g>
		<path style="fill:#C3E05E;" d="M400,318.644c0,44.93-35.982,81.356-80.366,81.356H80.366C35.982,400,0,363.574,0,318.644V81.356
			C0,36.423,35.982,0,80.366,0h239.268C364.018,0,400,36.423,400,81.356V318.644z"/>
		<path style="fill:#B4D754;" d="M400,318.644V166.401l-83.963-44.238L85.157,346.736L173.821,400h145.813
			C364.018,400,400,363.574,400,318.644z"/>
		<g>
			<rect x="136.687" y="143.703" style="fill:#7996B1;" width="63.91" height="150.322"/>
			<rect x="136.687" y="129.702" style="fill:#7996B1;" width="63.91" height="25.998"/>
			<rect x="136.687" y="294.025" style="fill:#7996B1;" width="63.91" height="25.946"/>
			<path style="fill:#7996B1;" d="M133.052,269.16c0,27.466,30.243,49.731,67.545,49.731V269.16H133.052z"/>
			<polygon style="fill:#7996B1;" points="200.502,164.353 200.502,88.022 183.483,88.022 183.483,175.497 136.687,206.146 
				136.687,294.025 200.597,294.025 200.597,164.291 			"/>
			<rect x="183.483" y="73.562" style="fill:#7996B1;" width="17.113" height="14.459"/>
			<rect x="173.821" y="53.262" style="fill:#7996B1;" width="26.776" height="20.3"/>
			<rect x="85.157" y="137.241" style="fill:#7996B1;" width="51.53" height="194.419"/>
			<rect x="85.157" y="331.66" style="fill:#7996B1;" width="51.53" height="15.076"/>
			<rect x="85.157" y="122.164" style="fill:#7996B1;" width="51.53" height="15.078"/>
			<rect x="200.599" y="143.703" style="fill:#7996B1;" width="63.907" height="150.322"/>
			<rect x="200.599" y="129.702" style="fill:#7996B1;" width="63.907" height="25.998"/>
			<rect x="200.599" y="294.025" style="fill:#7996B1;" width="63.907" height="25.946"/>
			<path style="fill:#7996B1;" d="M268.144,269.16c0,27.466-30.243,49.731-67.545,49.731V269.16H268.144z"/>
			<rect x="200.599" y="143.703" style="opacity:0.26;fill:#7996B1;enable-background:new    ;" width="63.907" height="150.322"/>
			<rect x="200.599" y="129.702" style="opacity:0.26;fill:#7996B1;enable-background:new    ;" width="63.907" height="25.998"/>
			<rect x="200.599" y="294.025" style="opacity:0.26;fill:#7996B1;enable-background:new    ;" width="63.907" height="25.946"/>
			<path style="opacity:0.26;fill:#7996B1;enable-background:new    ;" d="M268.144,269.16c0,27.466-30.243,49.731-67.545,49.731
				V269.16H268.144z"/>
			<polygon style="fill:#7996B1;" points="200.693,164.353 200.693,88.022 217.709,88.022 217.709,175.497 264.506,206.146 
				264.506,294.025 200.599,294.025 200.599,164.291 			"/>
			<rect x="200.599" y="73.562" style="fill:#7996B1;" width="17.11" height="14.459"/>
			<rect x="200.599" y="53.262" style="fill:#7996B1;" width="26.775" height="20.3"/>
			<rect x="200.599" y="73.562" style="opacity:0.26;fill:#7996B1;enable-background:new    ;" width="17.11" height="14.459"/>
			<rect x="200.599" y="53.262" style="opacity:0.26;fill:#7996B1;enable-background:new    ;" width="26.775" height="20.3"/>
			<polygon style="opacity:0.26;fill:#7996B1;enable-background:new    ;" points="200.693,164.353 200.693,88.022 217.709,88.022 
				217.709,175.497 264.506,206.146 264.506,294.025 200.599,294.025 200.599,164.291 			"/>
			<rect x="264.506" y="137.241" style="fill:#7996B1;" width="51.531" height="194.419"/>
			<rect x="264.506" y="331.66" style="fill:#7996B1;" width="51.531" height="15.076"/>
			<rect x="264.506" y="122.164" style="fill:#7996B1;" width="51.531" height="15.078"/>
			<rect x="264.506" y="137.241" style="opacity:0.26;fill:#7996B1;enable-background:new    ;" width="51.531" height="194.419"/>
			<rect x="264.506" y="331.66" style="opacity:0.26;fill:#7996B1;enable-background:new    ;" width="51.531" height="15.076"/>
			<rect x="264.506" y="122.164" style="opacity:0.26;fill:#7996B1;enable-background:new    ;" width="51.531" height="15.078"/>
		</g>
		<rect x="136.687" y="143.703" style="fill:#736771;" width="63.91" height="150.322"/>
		<rect x="136.687" y="129.702" style="fill:#5D505B;" width="63.91" height="25.998"/>
		<rect x="136.687" y="294.025" style="fill:#5D505B;" width="63.91" height="25.946"/>
		<path style="fill:#736771;" d="M133.052,269.16c0,27.466,30.243,49.731,67.545,49.731V269.16H133.052z"/>
		<rect x="183.483" y="73.562" style="fill:#5D505B;" width="17.113" height="14.459"/>
		<rect x="85.157" y="137.241" style="fill:#736771;" width="51.53" height="194.419"/>
		<rect x="85.157" y="331.66" style="fill:#5D505B;" width="51.53" height="15.076"/>
		<rect x="85.157" y="122.164" style="fill:#FFFFFF;" width="51.53" height="15.078"/>
		<rect x="200.599" y="143.703" style="fill:#736771;" width="63.907" height="150.322"/>
		<rect x="200.599" y="129.702" style="fill:#5D505B;" width="63.907" height="25.998"/>
		<rect x="200.599" y="294.025" style="fill:#5D505B;" width="63.907" height="25.946"/>
		<path style="fill:#736771;" d="M268.144,269.16c0,27.466-30.243,49.731-67.545,49.731V269.16H268.144z"/>
		<g>
			<polygon style="fill:#938991;" points="200.502,88.022 183.483,88.022 183.483,175.497 136.687,206.146 136.687,294.025 
				200.597,294.025 200.597,164.291 200.502,164.353 			"/>
			<polygon style="fill:#938991;" points="217.709,175.497 217.709,88.022 200.693,88.022 200.693,164.353 200.599,164.291 
				200.599,294.025 264.506,294.025 264.506,206.146 			"/>
		</g>
		<rect x="200.599" y="73.562" style="fill:#5D505B;" width="17.11" height="14.459"/>
		<g>
			<rect x="173.821" y="53.262" style="fill:#938991;" width="26.776" height="20.3"/>
			<rect x="200.599" y="53.262" style="fill:#938991;" width="26.775" height="20.3"/>
		</g>
		<rect x="264.506" y="137.241" style="fill:#736771;" width="51.531" height="194.419"/>
		<rect x="264.506" y="331.66" style="fill:#5D505B;" width="51.531" height="15.076"/>
		<rect x="264.506" y="122.164" style="fill:#FFFFFF;" width="51.531" height="15.078"/>
		<polygon style="opacity:0.28;fill:#534551;enable-background:new    ;" points="264.503,122.084 264.503,129.623 217.707,129.623 
			217.707,87.943 217.707,73.483 227.372,73.483 227.372,53.183 200.597,53.183 200.597,73.483 200.597,87.943 200.691,87.943 
			200.691,129.623 200.597,129.623 200.597,143.624 200.597,155.621 200.597,164.212 200.597,269.081 200.597,293.946 
			200.597,318.812 200.597,319.893 264.503,319.893 264.503,331.581 264.503,346.657 316.035,346.657 316.035,331.581 
			316.035,137.162 316.035,122.084 		"/>
	</g>
</g>
<g>
</g>
<g>
</g>
<g>
</g>
<g>
</g>
<g>
</g>
<g>
</g>
<g>
</g>
<g>
</g>
<g>
</g>
<g>
</g>
<g>
</g>
<g>
</g>
<g>
</g>
<g>
</g>
<g>
</g>
</svg>
