<?xml version="1.0" encoding="utf-8"?>
<!-- Generator: Adobe Illustrator 23.0.2, SVG Export Plug-In . SVG Version: 6.00 Build 0)  -->
<svg version="1.1" id="Layer_1" xmlns="http://www.w3.org/2000/svg" xmlns:xlink="http://www.w3.org/1999/xlink" x="0px" y="0px"
	 viewBox="0 0 402 402" style="enable-background:new 0 0 402 402;" xml:space="preserve">
<style type="text/css">
	.st0{opacity:0.6;fill:#FFFFFF;}
</style>
<path class="st0" d="M201.4,0C90.6,0,3.8,83.7,3.8,190.5c0,31.6,7.7,63.6,22.4,92.6c1,2,2.9,3.3,4.9,3.6c0.4,7.8,8.6,14.1,44.9,19.4
	c23.7,3.5,56,5.9,91.3,6.8v7.8c-19.3,3.3-34.1,20.1-34.1,40.3c0,22.5,18.3,40.9,40.9,40.9c10.2,0,19.8-3.8,27.3-10.5
	c7.4,6.8,17,10.5,27.3,10.5c22.5,0,40.9-18.3,40.9-40.9c0-20.2-14.8-37.1-34.1-40.3V313c89.2-2.3,135-11.2,136.2-26.2
	c2.1-0.4,3.9-1.6,4.9-3.6c14.6-29,22.4-61,22.4-92.6C399,83.7,312.2,0,201.4,0z M48.1,286.2c1.8-0.8,3-2.4,3.6-4.1
	c25.2-4.7,67.5-8.1,115.6-9.2v26.4C101.2,297.6,61.2,291.3,48.1,286.2z M255.9,361.1c0,15-12.2,27.3-27.3,27.3
	c-8.6,0-16.6-4-21.8-11.1c-2.6-3.4-8.4-3.4-10.9,0c-5.2,7-13.2,11.1-21.8,11.1c-15,0-27.3-12.2-27.3-27.3c0-15,12.2-27.3,27.3-27.3
	c3.8,0,6.8-3,6.8-6.8v-54.4c6.7-0.1,13.6-0.1,20.4-0.1s13.7,0,20.4,0.1v54.4c0,3.8,3,6.8,6.8,6.8
	C243.6,333.9,255.9,346.1,255.9,361.1z M235.4,299.3v-26.4c45.3,1,85.5,4.1,111,8.4c0.8,1.7,2.3,3,4.2,3.6c1.6,0.5,2.9,0.9,3.9,1.3
	C341.4,291.3,301.4,297.6,235.4,299.3z M367,271.8c-28-7.8-92.6-12.9-165.6-12.9c-73,0-137.6,5.1-165.6,12.9
	c-12-25.7-18.4-53.7-18.4-81.3c0-55.7,25.5-104.7,66.1-136.9c3.5,1.8,6.6,4,9.5,6.6l-11.7,9.4c-2.9,2.4-3.4,6.6-1.1,9.6
	c1.4,1.7,3.3,2.6,5.3,2.6c1.5,0,3-0.5,4.3-1.5l12.2-9.8c3.1,4.4,5.6,9.3,7.7,14.2L97,88.9c-3.6,1.2-5.5,5-4.3,8.6
	c1,2.9,3.6,4.7,6.5,4.7c0.7,0,1.4-0.1,2.2-0.4l12.8-4.3c1.6,5.6,2.7,11.2,3.5,16.2l-12.8,2.1c-3.7,0.6-6.2,4.1-5.6,7.8
	c0.5,3.3,3.4,5.7,6.7,5.7c0.4,0,0.7,0,1.1-0.1l12.1-2c0.4,5.3,0.4,8.7,0.4,8.8c-0.1,3.8,3,6.9,6.7,6.9c0,0,0.1,0,0.1,0
	c3.7,0,6.8-3,6.8-6.7c0-0.7,0-4.9-0.5-11.3l15.2-2.5c3.7-0.6,6.2-4.1,5.6-7.8c-0.6-3.7-4.1-6.2-7.8-5.6l-14.6,2.4
	c-0.9-5.7-2.2-11.9-4-18.3l15.1-5c3.6-1.2,5.5-5,4.3-8.6c-1.2-3.6-5-5.5-8.6-4.3l-15.2,5.1c-2.6-6.4-5.9-12.7-10-18.4l11.2-8.9
	c2.9-2.4,3.4-6.6,1.1-9.6c-2.4-2.9-6.6-3.4-9.6-1.1l-11.5,9.2c-2.5-2.4-5.3-4.6-8.3-6.6c29.7-19.8,66.1-31.3,105.8-31.3
	c103.2,0,184,77.7,184,176.9C385.3,218.1,379,246.1,367,271.8z"/>
<path class="st0" d="M151.7,179.1c-2.7-2.7-7-2.7-9.6,0l-12.2,12.2l-12.2-12.2c-2.7-2.7-7-2.7-9.6,0c-2.7,2.7-2.7,7,0,9.6l12.2,12.2
	L108,213.2c-2.7,2.7-2.7,7,0,9.6c1.3,1.3,3.1,2,4.8,2s3.5-0.7,4.8-2l12.2-12.2l12.2,12.2c1.3,1.3,3.1,2,4.8,2c1.7,0,3.5-0.7,4.8-2
	c2.7-2.7,2.7-7,0-9.6L139.5,201l12.2-12.2C154.3,186.1,154.3,181.8,151.7,179.1z"/>
<path class="st0" d="M287.9,179.1c-2.7-2.7-7-2.7-9.6,0l-12.2,12.2l-12.2-12.2c-2.7-2.7-7-2.7-9.6,0c-2.7,2.7-2.7,7,0,9.6l12.2,12.2
	l-12.2,12.2c-2.7,2.7-2.7,7,0,9.6c1.3,1.3,3.1,2,4.8,2s3.5-0.7,4.8-2l12.2-12.2l12.2,12.2c1.3,1.3,3.1,2,4.8,2c1.7,0,3.5-0.7,4.8-2
	c2.7-2.7,2.7-7,0-9.6L275.7,201l12.2-12.2C290.6,186.1,290.6,181.8,287.9,179.1z"/>
</svg>
