<?xml version="1.0" encoding="iso-8859-1"?>
<!-- Generator: Adobe Illustrator 19.0.0, SVG Export Plug-In . SVG Version: 6.00 Build 0)  -->
<svg version="1.1" id="Capa_1" xmlns="http://www.w3.org/2000/svg" xmlns:xlink="http://www.w3.org/1999/xlink" x="0px" y="0px"
	 viewBox="0 0 400 400" style="enable-background:new 0 0 400 400;" xml:space="preserve">
<g>
	<g>
		<path style="fill:#7996B1;" d="M400,318.644C400,363.577,364.018,400,319.633,400H80.365C35.98,400,0,363.577,0,318.644V81.354
			C0,36.423,35.98,0,80.365,0h239.268C364.018,0,400,36.423,400,81.354V318.644z"/>
		<path style="fill:#708DA8;" d="M400,318.644v-40.788l-50.21-87.238l-225.577-3.672L71.407,245.25L136.847,400h182.786
			C364.018,400,400,363.574,400,318.644z"/>
		<g>
			<path style="fill:#5D505B;" d="M282.592,163.5H127.797c-9.196,0-17.562,3.583-23.821,9.438L86.007,154.75
				c-4.032-4.083-10.567-4.083-14.6,0c-4.03,4.082-4.03,10.7,0,14.78l15.669,15.86H66.735c-7.971,0-19.686,14.607-19.686,14.607
				s11.715,14.609,19.686,14.609h20.344L71.407,230.47c-4.03,4.078-4.03,10.698,0,14.778c4.033,4.084,10.568,4.084,14.6,0
				l18.966-19.197c6.141,5.32,14.109,8.543,22.824,8.543h154.795c19.394,0,35.112-15.917,35.112-35.547
				C317.704,179.418,301.985,163.5,282.592,163.5z"/>
			<path style="fill:#8ABFCD;" d="M284.148,163.535v71.025c19.609-0.441,68.802-16.556,68.802-35.512
				S303.758,163.977,284.148,163.535z"/>
			<path style="fill:#FFFFFF;" d="M333.96,193.42c2.206-5.625-4.181-13.475-14.27-17.526c-10.086-4.053-20.052-2.775-22.258,2.852
				s4.183,13.475,14.27,17.528C321.788,200.325,331.753,199.049,333.96,193.42z"/>
			<path style="fill:#493C47;" d="M176.792,213.055c-7.121,0-12.896-5.846-12.896-13.057l0,0c0-7.207,5.774-13.052,12.896-13.052
				h56.805c7.121,0,12.896,5.845,12.896,13.052l0,0c0,7.211-5.774,13.057-12.896,13.057H176.792z"/>
		</g>
		<path style="opacity:0.28;fill:#534551;enable-background:new    ;" d="M66.735,214.607h20.344l-15.672,15.864
			c-4.03,4.078-4.03,10.698,0,14.778c4.033,4.084,10.568,4.084,14.6,0l18.966-19.197c6.141,5.32,14.109,8.543,22.824,8.543h154.795
			c0.524,0,1.036-0.057,1.557-0.079v0.044c19.609-0.441,68.802-16.556,68.802-35.512c0-0.138-0.028-0.271-0.032-0.408H48.191
			c-0.726,0.839-1.141,1.357-1.141,1.357S58.765,214.607,66.735,214.607z"/>
	</g>
</g>
<g>
</g>
<g>
</g>
<g>
</g>
<g>
</g>
<g>
</g>
<g>
</g>
<g>
</g>
<g>
</g>
<g>
</g>
<g>
</g>
<g>
</g>
<g>
</g>
<g>
</g>
<g>
</g>
<g>
</g>
</svg>
