<?xml version="1.0" encoding="iso-8859-1"?>
<!-- Generator: Adobe Illustrator 19.0.0, SVG Export Plug-In . SVG Version: 6.00 Build 0)  -->
<svg version="1.1" id="Capa_1" xmlns="http://www.w3.org/2000/svg" xmlns:xlink="http://www.w3.org/1999/xlink" x="0px" y="0px"
	 viewBox="0 0 400 400" style="enable-background:new 0 0 400 400;" xml:space="preserve">
<g>
	<g>
		<path style="fill:#5D505B;" d="M400,318.644C400,363.577,364.018,400,319.634,400H80.366C35.982,400,0,363.577,0,318.644V81.356
			C0,36.423,35.982,0,80.366,0h239.268C364.018,0,400,36.423,400,81.356V318.644z"/>
		<path style="fill:#534551;" d="M400,318.644v-93.091L285.272,108.042l-12.388,65.229l-91.854,52.282l-59.589,28.045L260.722,400
			h58.912C364.018,400,400,363.577,400,318.644z"/>
		<g>
			<path style="fill:#C3E05E;" d="M291.59,108.042c0-1.936-0.866-3.766-2.354-4.981c-1.504-1.224-37.418-30.016-89.235-30.016
				c-56.938,0-88.283,29.091-89.591,30.33c-1.275,1.208-1.999,2.864-1.999,4.632c-0.002,0.073-0.008,0.329-0.008,0.401v121.504
				c0,51.232,85.381,90.52,89.017,92.168c0.82,0.373,1.701,0.559,2.581,0.559s1.76-0.186,2.581-0.559
				c3.636-1.648,89.017-40.936,89.017-92.168V108.408L291.59,108.042z"/>
			<path style="fill:#D3E886;" d="M272.213,125.122c0-0.968-0.435-1.884-1.179-2.49c-1.194-0.976-29.753-23.871-71.034-23.871
				c-45.344,0-70.179,23.046-71.213,24.027c-0.613,0.581-0.975,1.532-1.001,2.379c0,0.036-0.004,0.217-0.004,0.25v98.395
				c0,40.218,68.032,71.517,70.927,72.83c0.412,0.185,0.852,0.278,1.292,0.278s0.88-0.094,1.291-0.278
				c2.896-1.313,70.928-32.612,70.928-72.83v-98.395L272.213,125.122z"/>
			<g>
				<ellipse style="fill:#D66D5D;" cx="200" cy="186.735" rx="39.656" ry="40.145"/>
			</g>
		</g>
		<path style="opacity:0.18;fill:#534551;enable-background:new    ;" d="M291.598,229.912V108.408l-0.008-0.366
			c0-1.936-0.866-3.766-2.354-4.981c-1.504-1.224-37.418-30.016-89.235-30.016v249.594c0.88,0,1.76-0.186,2.581-0.559
			C206.217,320.432,291.598,281.145,291.598,229.912z"/>
	</g>
</g>
<g>
</g>
<g>
</g>
<g>
</g>
<g>
</g>
<g>
</g>
<g>
</g>
<g>
</g>
<g>
</g>
<g>
</g>
<g>
</g>
<g>
</g>
<g>
</g>
<g>
</g>
<g>
</g>
<g>
</g>
</svg>
