<?xml version="1.0" encoding="iso-8859-1"?>
<!-- Generator: Adobe Illustrator 19.0.0, SVG Export Plug-In . SVG Version: 6.00 Build 0)  -->
<svg version="1.1" id="Capa_1" xmlns="http://www.w3.org/2000/svg" xmlns:xlink="http://www.w3.org/1999/xlink" x="0px" y="0px"
	 viewBox="0 0 400 400" style="enable-background:new 0 0 400 400;" xml:space="preserve">
<g>
	<g>
		<path style="fill:#7996B1;" d="M400,318.644C400,363.577,364.018,400,319.633,400H80.365C35.98,400,0,363.577,0,318.644V81.354
			C0,36.423,35.98,0,80.365,0h239.268C364.018,0,400,36.423,400,81.354V318.644z"/>
		<path style="fill:#708DA8;" d="M400,318.644V164.178L227.746,70.217l-32.291,273.046L276.345,400h43.288
			C364.018,400,400,363.574,400,318.644z"/>
		<g>
			<path style="fill:#FFFFFF;" d="M271.117,169.909c-22.399,0.808-41.201-16.918-41.997-39.594
				c-0.033-0.941-0.021-1.874,0.006-2.804c-7.116,8.243-17.448,13.614-29.107,14.03c-11.728,0.425-22.459-4.24-30.146-12.028
				c-1.421,20.708-18.092,37.406-39.04,38.162c-22.396,0.806-41.199-16.92-41.995-39.596c-0.796-22.674,16.716-41.707,39.112-42.51
				c11.728-0.425,22.461,4.238,30.148,12.028c1.419-20.708,18.09-37.41,39.038-38.161c22.397-0.806,41.199,16.92,41.995,39.593
				c0.032,0.943,0.022,1.875-0.004,2.804c7.114-8.246,17.445-13.612,29.107-14.028c22.396-0.808,41.199,16.92,41.995,39.593
				S293.514,169.104,271.117,169.909z"/>
			<path style="fill:#FFFFFF;" d="M249.192,265.883c-15.538,0.559-28.581-11.74-29.133-27.47c-0.024-0.651-0.017-1.299,0.005-1.946
				c-4.939,5.721-12.104,9.444-20.194,9.736c-8.135,0.291-15.581-2.943-20.914-8.348c-0.985,14.368-12.55,25.952-27.082,26.475
				c-15.538,0.562-28.582-11.736-29.133-27.466c-0.553-15.729,11.596-28.936,27.134-29.493c8.133-0.293,15.579,2.943,20.914,8.344
				c0.985-14.364,12.548-25.948,27.08-26.471c15.538-0.56,28.582,11.736,29.136,27.466c0.021,0.653,0.013,1.303-0.006,1.944
				c4.938-5.719,12.102-9.44,20.193-9.734c15.538-0.556,28.582,11.743,29.133,27.468
				C276.879,252.121,264.73,265.323,249.192,265.883z"/>
			<path style="fill:#5D505B;" d="M270.284,147.462c-0.81-1.162-2.13-1.851-3.532-1.851h-9.479
				c6.016-7.956,9.479-17.197,9.479-27.066c0-29.776-31.368-53.914-70.059-53.914c-38.692,0-70.061,24.137-70.061,53.914
				c0,9.869,3.463,19.11,9.478,27.066h-3.794c-1.407,0-2.725,0.689-3.537,1.851c-0.81,1.166-1.012,2.654-0.541,3.995l67.216,191.807
				c0.613,1.749,2.246,2.916,4.078,2.916s3.465-1.167,4.078-2.916l67.216-191.807C271.301,150.117,271.097,148.628,270.284,147.462z
				"/>
			<path style="fill:#FFFFFF;" d="M271.117,108.943c-22.399-0.808-41.201,16.918-41.997,39.594
				c-0.033,0.941-0.021,1.874,0.006,2.804c-7.116-8.244-17.448-13.614-29.107-14.031c-11.728-0.425-22.459,4.24-30.146,12.028
				c-1.421-20.708-18.092-37.406-39.04-38.161c-22.396-0.806-41.199,16.92-41.995,39.596c-0.796,22.673,16.716,41.707,39.112,42.51
				c11.728,0.425,22.461-4.238,30.148-12.028c1.419,20.708,18.09,37.41,39.038,38.162c22.397,0.806,41.199-16.92,41.995-39.594
				c0.032-0.943,0.022-1.875-0.004-2.804c7.114,8.246,17.445,13.612,29.107,14.029c22.396,0.808,41.199-16.92,41.995-39.594
				C311.025,128.781,293.514,109.749,271.117,108.943z"/>
			<path style="fill:#FFFFFF;" d="M249.192,223.351c-15.538-0.559-28.581,11.74-29.133,27.47c-0.024,0.651-0.017,1.299,0.005,1.946
				c-4.939-5.721-12.104-9.444-20.194-9.736c-8.135-0.291-15.581,2.943-20.914,8.348c-0.985-14.368-12.55-25.952-27.082-26.475
				c-15.538-0.562-28.582,11.736-29.133,27.466c-0.553,15.729,11.596,28.936,27.134,29.493c8.133,0.294,15.579-2.943,20.914-8.344
				c0.985,14.364,12.548,25.948,27.08,26.471c15.538,0.561,28.582-11.736,29.136-27.466c0.021-0.653,0.013-1.303-0.006-1.944
				c4.938,5.719,12.102,9.44,20.193,9.734c15.538,0.556,28.582-11.743,29.133-27.468C276.879,237.112,264.73,223.91,249.192,223.351
				z"/>
		</g>
		<path style="opacity:0.28;fill:#534551;enable-background:new    ;" d="M199.533,346.18c1.832,0,3.465-1.167,4.078-2.916
			l24.912-71.088c4.837,4.799,11.368,7.873,18.67,8.138c15.538,0.556,28.582-11.743,29.133-27.468
			c0.099-2.848-0.229-5.608-0.905-8.229c0.677-2.621,1.004-5.382,0.905-8.229c-0.51-14.54-11.707-26.129-25.676-27.355l6.963-19.863
			c3.372,1.064,6.918,1.747,10.621,1.878c22.396,0.808,41.199-16.92,41.995-39.594c0.146-4.164-0.335-8.2-1.341-12.026
			c1.006-3.829,1.486-7.865,1.341-12.028c-0.796-22.673-19.6-40.401-41.995-39.593c-4.214,0.15-8.244,0.966-12.02,2.311
			c-7.461-9.228-18.438-16.591-31.495-20.983c-7.43-6.354-17.099-10.073-27.584-9.696c-0.566,0.021-1.121,0.083-1.68,0.125v283.703
			C196.068,345.013,197.701,346.18,199.533,346.18z"/>
	</g>
</g>
<g>
</g>
<g>
</g>
<g>
</g>
<g>
</g>
<g>
</g>
<g>
</g>
<g>
</g>
<g>
</g>
<g>
</g>
<g>
</g>
<g>
</g>
<g>
</g>
<g>
</g>
<g>
</g>
<g>
</g>
</svg>
