<?xml version="1.0" encoding="iso-8859-1"?>
<!-- Generator: Adobe Illustrator 19.0.0, SVG Export Plug-In . SVG Version: 6.00 Build 0)  -->
<svg version="1.1" id="Capa_1" xmlns="http://www.w3.org/2000/svg" xmlns:xlink="http://www.w3.org/1999/xlink" x="0px" y="0px"
	 viewBox="0 0 400 400" style="enable-background:new 0 0 400 400;" xml:space="preserve">
<g>
	<g>
		<path style="fill:#C3E05E;" d="M400,318.644c0,44.93-35.982,81.356-80.366,81.356H80.366C35.982,400,0,363.574,0,318.644V81.356
			C0,36.423,35.982,0,80.366,0h239.268C364.018,0,400,36.423,400,81.356V318.644z"/>
		<path style="fill:#B4D754;" d="M400,318.644V166.401l-82.299-65.442v198.306L86.366,299.24L191.783,400h127.851
			C364.018,400,400,363.574,400,318.644z"/>
		<g>
			<g>
				<path style="fill:#5D505B;" d="M93.806,185.28c4.111,0,7.44-3.372,7.44-7.531V108.47h68.392c4.108,0,7.44-3.372,7.44-7.531
					c0-4.164-3.332-7.532-7.44-7.532H93.806c-4.108,0-7.44,3.368-7.44,7.532c0,0,0,0.012,0,0.021c0,0,0,0.017,0,0.025v76.765
					C86.366,181.908,89.698,185.28,93.806,185.28z"/>
				<path style="fill:#5D505B;" d="M234.391,108.491h68.431v69.232c0,4.164,3.335,7.532,7.444,7.532
					c4.104,0,7.436-3.368,7.436-7.532v-76.764c0-4.159-3.331-7.531-7.436-7.531c-0.013,0-0.017,0-0.025,0s-0.016,0-0.016,0h-75.834
					c-4.113,0-7.444,3.372-7.444,7.531C226.946,105.123,230.277,108.491,234.391,108.491z"/>
				<path style="fill:#5D505B;" d="M169.638,291.755h-68.392v-69.279c0-4.159-3.329-7.531-7.44-7.531
					c-4.108,0-7.44,3.372-7.44,7.531v76.765c0,0.008,0,0.017,0,0.017c0,0.017,0,0.025,0,0.025c0,4.167,3.332,7.535,7.44,7.535
					h75.832c4.108,0,7.44-3.368,7.44-7.531C177.078,295.127,173.747,291.755,169.638,291.755z"/>
				<path style="fill:#5D505B;" d="M310.266,214.97c-4.109,0-7.444,3.368-7.444,7.531v69.232h-68.431
					c-4.113,0-7.444,3.368-7.444,7.532c0,4.159,3.331,7.531,7.444,7.531h75.829c0,0,0.013,0,0.021,0c0.009,0,0.013,0,0.025,0
					c4.104,0,7.436-3.372,7.436-7.531V222.5C317.701,218.338,314.37,214.97,310.266,214.97z"/>
				<path style="fill:#938991;" d="M320.111,193.157H278.35c-3.253-38.448-33.606-69.174-71.589-72.467V78.411
					c0-3.78-3.025-6.849-6.762-6.849c-3.734,0-6.763,3.068-6.763,6.849v42.279c-37.977,3.293-68.333,34.019-71.583,72.467H79.889
					c-3.737,0-6.766,3.064-6.766,6.845s3.029,6.849,6.766,6.849h41.764c3.253,38.444,33.607,69.171,71.583,72.46v42.278
					c0,3.785,3.029,6.849,6.763,6.849c3.736,0,6.762-3.063,6.762-6.849v-42.278c37.977-3.289,68.336-34.016,71.581-72.46h41.769
					c3.738,0,6.765-3.068,6.765-6.849S323.85,193.157,320.111,193.157z M265.672,193.157h-58.91v-59.632
					C237.775,136.735,262.5,161.762,265.672,193.157z M193.237,133.525v59.632h-58.904
					C137.501,161.762,162.225,136.735,193.237,133.525z M134.333,206.851h58.904v59.628
					C162.227,263.269,137.503,238.238,134.333,206.851z M206.762,266.479v-59.628h58.91
					C262.5,238.238,237.775,263.269,206.762,266.479z"/>
				<path style="fill:#938991;" d="M216.08,247.531c0.721,1.619,2.287,2.577,3.937,2.577c0.588,0,1.192-0.121,1.765-0.383
					l0.092-0.046c13.058-5.892,23.091-16.57,28.244-30.068c0.859-2.248-0.249-4.775-2.468-5.646
					c-2.225-0.866-4.722,0.246-5.581,2.498c-4.33,11.329-12.747,20.292-23.701,25.238l-0.127,0.059
					C216.068,242.747,215.098,245.333,216.08,247.531z"/>
				<path style="fill:#938991;" d="M216.167,157.374c11.235,4.367,20.125,12.906,25.025,24.035l0.062,0.146
					c0.716,1.624,2.295,2.594,3.944,2.594c0.588,0,1.183-0.125,1.752-0.379c2.176-0.979,3.161-3.56,2.192-5.766l-0.07-0.146
					c-5.834-13.26-16.424-23.431-29.816-28.635c-2.226-0.866-4.716,0.258-5.575,2.51
					C212.827,153.984,213.939,156.512,216.167,157.374z"/>
				<path style="fill:#938991;" d="M183.829,152.498c-0.979-2.186-3.537-3.156-5.705-2.178
					c-13.084,5.908-23.125,16.612-28.271,30.151c-0.854,2.248,0.255,4.775,2.478,5.642c0.508,0.2,1.032,0.291,1.548,0.291
					c1.731,0,3.368-1.062,4.026-2.798c4.318-11.366,12.747-20.354,23.726-25.309c0.021-0.009,0.074-0.029,0.09-0.038
					C183.878,157.252,184.808,154.684,183.829,152.498z"/>
				<path style="fill:#938991;" d="M183.771,242.602c-11.209-4.376-20.076-12.906-24.964-24.01l-0.033-0.071l-3.94,1.773
					l-3.909,1.849c5.826,13.235,16.387,23.395,29.741,28.606c0.51,0.2,1.037,0.292,1.551,0.292c1.731,0,3.366-1.062,4.026-2.794
					C187.101,245.995,185.992,243.468,183.771,242.602z"/>
			</g>
		</g>
		<path style="fill:none;" d="M134.333,193.157h58.904v-59.632C162.225,136.735,137.501,161.762,134.333,193.157z M178.125,150.32
			c2.167-0.978,4.726-0.008,5.705,2.178c0.979,2.186,0.049,4.754-2.106,5.762c-0.017,0.008-0.07,0.029-0.09,0.038
			c-10.979,4.954-19.408,13.943-23.726,25.309c-0.658,1.736-2.295,2.798-4.026,2.798c-0.516,0-1.041-0.091-1.548-0.291
			c-2.223-0.866-3.332-3.394-2.478-5.642C154.999,166.933,165.04,156.229,178.125,150.32z"/>
		<path style="fill:none;" d="M193.237,266.479v-59.628h-58.904C137.503,238.238,162.227,263.269,193.237,266.479z M158.774,218.521
			l0.033,0.071c4.888,11.104,13.755,19.634,24.964,24.01c2.221,0.866,3.329,3.394,2.472,5.646c-0.66,1.732-2.295,2.794-4.026,2.794
			c-0.514,0-1.041-0.092-1.551-0.292c-13.354-5.212-23.915-15.371-29.741-28.606l3.909-1.849L158.774,218.521z"/>
		<path style="fill:#938991;" d="M152.332,186.113c0.508,0.2,1.032,0.291,1.548,0.291c1.731,0,3.368-1.062,4.026-2.798
			c4.318-11.366,12.747-20.354,23.726-25.309c0.021-0.009,0.074-0.029,0.09-0.038c2.155-1.008,3.084-3.577,2.106-5.762
			c-0.979-2.186-3.537-3.156-5.705-2.178c-13.084,5.908-23.125,16.612-28.271,30.151C149,182.72,150.109,185.247,152.332,186.113z"
			/>
		<path style="fill:#938991;" d="M180.666,250.749c0.51,0.2,1.037,0.292,1.551,0.292c1.731,0,3.366-1.062,4.026-2.794
			c0.857-2.252-0.251-4.779-2.472-5.646c-11.209-4.376-20.076-12.906-24.964-24.01l-0.033-0.071l-3.94,1.773l-3.909,1.849
			C156.751,235.378,167.312,245.537,180.666,250.749z"/>
		<path style="opacity:0.28;fill:#534551;enable-background:new    ;" d="M310.266,93.428c-0.013,0-0.017,0-0.025,0
			s-0.016,0-0.016,0h-75.834c-4.113,0-7.444,3.372-7.444,7.531c0,4.164,3.331,7.532,7.444,7.532h68.431v69.232
			c0,4.164,3.335,7.532,7.444,7.532c4.104,0,7.436-3.368,7.436-7.532v-76.764C317.701,96.8,314.37,93.428,310.266,93.428z"/>
		<path style="opacity:0.28;fill:#534551;enable-background:new    ;" d="M310.266,214.97c-4.109,0-7.444,3.368-7.444,7.531v69.232
			h-68.431c-4.113,0-7.444,3.368-7.444,7.532c0,4.159,3.331,7.531,7.444,7.531h75.829c0,0,0.013,0,0.021,0c0.009,0,0.013,0,0.025,0
			c4.104,0,7.436-3.372,7.436-7.531V222.5C317.701,218.338,314.37,214.97,310.266,214.97z"/>
		<path style="opacity:0.28;fill:#534551;enable-background:new    ;" d="M206.762,321.589v-42.278
			c37.977-3.289,68.336-34.016,71.581-72.46h41.769c3.738,0,6.765-3.068,6.765-6.849s-3.026-6.845-6.765-6.845h-41.761
			c-3.253-38.448-33.606-69.174-71.589-72.467V78.411c0-3.78-3.025-6.849-6.762-6.849v256.875
			C203.736,328.438,206.762,325.374,206.762,321.589z M206.762,133.525c31.014,3.21,55.738,28.236,58.91,59.632h-58.91V133.525z
			 M206.762,206.851h58.91c-3.172,31.388-27.896,56.418-58.91,59.628V206.851z"/>
		<path style="opacity:0.28;fill:#534551;enable-background:new    ;" d="M247.649,213.966c-2.225-0.866-4.722,0.246-5.581,2.498
			c-4.33,11.329-12.747,20.292-23.701,25.238l-0.127,0.059c-2.172,0.986-3.143,3.572-2.16,5.771
			c0.721,1.619,2.287,2.577,3.937,2.577c0.588,0,1.192-0.121,1.765-0.383l0.092-0.046c13.058-5.892,23.091-16.57,28.244-30.068
			C250.977,217.363,249.868,214.836,247.649,213.966z"/>
		<path style="opacity:0.28;fill:#534551;enable-background:new    ;" d="M249.143,178.003l-0.07-0.146
			c-5.834-13.26-16.424-23.431-29.816-28.635c-2.226-0.866-4.716,0.258-5.575,2.51c-0.854,2.252,0.259,4.78,2.486,5.642
			c11.235,4.367,20.125,12.906,25.025,24.035l0.062,0.146c0.716,1.624,2.295,2.594,3.944,2.594c0.588,0,1.183-0.125,1.752-0.379
			C249.126,182.791,250.111,180.209,249.143,178.003z"/>
	</g>
</g>
<g>
</g>
<g>
</g>
<g>
</g>
<g>
</g>
<g>
</g>
<g>
</g>
<g>
</g>
<g>
</g>
<g>
</g>
<g>
</g>
<g>
</g>
<g>
</g>
<g>
</g>
<g>
</g>
<g>
</g>
</svg>
