<?xml version="1.0" encoding="iso-8859-1"?>
<!-- Generator: Adobe Illustrator 19.0.0, SVG Export Plug-In . SVG Version: 6.00 Build 0)  -->
<svg version="1.1" id="Capa_1" xmlns="http://www.w3.org/2000/svg" xmlns:xlink="http://www.w3.org/1999/xlink" x="0px" y="0px"
	 viewBox="0 0 400 400" style="enable-background:new 0 0 400 400;" xml:space="preserve">
<g>
	<g>
		<path style="fill:#5D505B;" d="M400,318.644c0,44.93-35.98,81.356-80.367,81.356H80.365C35.98,400,0,363.574,0,318.644V81.356
			C0,36.423,35.98,0,80.365,0h239.268C364.02,0,400,36.423,400,81.356V318.644z"/>
		<path style="fill:#534551;" d="M399.881,318.644V199.998L269.135,91.89l30.36,108.108l-34.724,83.353l-13.84,36.43L129.66,332.218
			L215.219,400h104.295C363.898,400,399.881,363.574,399.881,318.644z"/>
		<g>
			<g>
				<path style="fill:#FFFFFF;" d="M147.302,312.334c-0.547,0-1.065-0.331-1.283-0.879l-33.636-84.633
					c-0.284-0.716,0.058-1.532,0.767-1.821c0.706-0.285,1.514,0.057,1.799,0.776l33.638,84.635c0.284,0.717-0.06,1.532-0.769,1.82
					C147.649,312.301,147.477,312.334,147.302,312.334z"/>
			</g>
			<g>
				<path style="fill:#FFFFFF;" d="M163.031,310.535c-0.642-0.022-1.201-0.495-1.318-1.161l-16.768-97.733
					c-0.129-0.76,0.375-1.488,1.127-1.619c0.75-0.129,1.468,0.377,1.602,1.141l16.768,97.732c0.129,0.765-0.375,1.489-1.127,1.62
					C163.22,310.531,163.123,310.537,163.031,310.535z"/>
			</g>
			<g>
				<path style="fill:#FFFFFF;" d="M186.36,310.233c-0.736,0-1.351-0.589-1.38-1.343l-3.924-97.129
					c-0.029-0.774,0.563-1.426,1.327-1.459c0.722-0.069,1.409,0.567,1.439,1.342l3.921,97.132c0.031,0.772-0.562,1.426-1.326,1.455
					C186.399,310.233,186.381,310.233,186.36,310.233z"/>
			</g>
			<g>
				<path style="fill:#FFFFFF;" d="M252.912,312.334c-0.173,0-0.346-0.033-0.514-0.102c-0.712-0.288-1.055-1.104-0.77-1.82
					l33.639-84.635c0.285-0.72,1.094-1.062,1.797-0.776c0.709,0.289,1.053,1.105,0.767,1.821l-33.634,84.633
					C253.979,312.003,253.461,312.334,252.912,312.334z"/>
			</g>
			<g>
				<path style="fill:#FFFFFF;" d="M238.302,310.621c-0.093,0.004-0.191-0.002-0.286-0.017c-0.752-0.125-1.262-0.844-1.143-1.607
					l15.758-97.908c0.121-0.766,0.835-1.278,1.585-1.155c0.757,0.123,1.267,0.844,1.146,1.605l-15.756,97.907
					C239.499,310.115,238.941,310.592,238.302,310.621z"/>
			</g>
			<g>
				<path style="fill:#FFFFFF;" d="M213.855,310.233c-0.021,0-0.041,0-0.06-0.002c-0.763-0.029-1.354-0.683-1.324-1.455
					l3.922-97.132c0.028-0.774,0.653-1.409,1.439-1.342c0.763,0.033,1.354,0.685,1.326,1.459l-3.924,97.129
					C215.207,309.645,214.592,310.233,213.855,310.233z"/>
			</g>
			<path style="fill:#C3E05E;" d="M200,63.023c-58.372,0-105.862,48.075-105.862,107.165c0,22.012,6.566,43.176,18.984,61.206
				c0.395,0.57,1.193,0.912,1.882,0.912c0.014,0,0.027,0,0.041,0c1.164,0,2.106-0.953,2.106-2.132c0-0.21-0.029-0.412-0.084-0.604
				c-0.027-0.35-0.041-0.703-0.041-1.062c0-8.331,6.695-15.106,14.925-15.106c8.228,0,14.923,6.775,14.923,15.106
				c0,1.178,0.941,2.132,2.105,2.132c1.162,0,2.106-0.954,2.106-2.132c0-8.331,6.693-15.106,14.923-15.106
				s14.923,6.775,14.923,15.106c0,1.178,0.944,2.132,2.106,2.132c1.164,0,2.105-0.954,2.105-2.132
				c0-8.331,6.696-15.106,14.923-15.106c8.229,0,14.925,6.775,14.925,15.106c0,1.178,0.941,2.132,2.105,2.132
				s2.105-0.954,2.105-2.132c0-8.331,6.693-15.106,14.923-15.106s14.924,6.775,14.924,15.106c0,1.178,0.941,2.132,2.105,2.132
				s2.105-0.954,2.105-2.132c0-8.331,6.695-15.106,14.925-15.106c8.228,0,14.921,6.775,14.921,15.106
				c0,0.489-0.024,0.97-0.073,1.448c-0.06,0.6,0.134,1.197,0.532,1.645c0.399,0.448,0.967,0.704,1.562,0.704h0.023
				c0.688,0,1.332-0.342,1.727-0.912c12.421-18.031,18.984-39.196,18.984-61.206C305.861,111.098,258.372,63.023,200,63.023z"/>
			<path style="fill:#7996B1;" d="M279.45,319.78c0,8.341-6.68,15.104-14.922,15.104h-126.41c-8.242,0-14.923-6.764-14.923-15.104
				l0,0c0-8.342,6.681-15.104,14.923-15.104h126.411C272.771,304.676,279.45,311.438,279.45,319.78L279.45,319.78z"/>
		</g>
		<path style="fill:none;" d="M146.874,228.509c0-8.331-6.696-15.106-14.923-15.106c-8.229,0-14.925,6.775-14.925,15.106
			c0,0.358,0.014,0.712,0.041,1.062c0.056,0.191,0.084,0.394,0.084,0.604c0,0.271-0.062,0.524-0.152,0.762l29.307,73.74h14.6
			l-12.729-74.2C147.413,230.157,146.874,229.399,146.874,228.509z"/>
		<path style="fill:none;" d="M180.931,228.509c0-8.331-6.693-15.106-14.923-15.106s-14.923,6.775-14.923,15.106
			c0,0.36-0.111,0.685-0.268,0.982l12.9,75.185h21.092l-3.008-74.487C181.287,229.799,180.931,229.208,180.931,228.509z"/>
		<path style="fill:none;" d="M185.143,228.509c0,0.566-0.226,1.074-0.582,1.455l3.017,74.712h9.013v-90.843
			C190.035,215.423,185.143,221.392,185.143,228.509z"/>
		<path style="opacity:0.18;fill:#534551;enable-background:new    ;" d="M279.45,319.78c0-8.342-6.68-15.104-14.922-15.104h-7.637
			l28.789-72.443c0.479-0.127,0.907-0.418,1.196-0.839c12.421-18.031,18.984-39.196,18.984-61.206
			c0-59.09-47.489-107.165-105.861-107.165c-1.144,0-2.274,0.05-3.409,0.087v150.723c1.118-0.271,2.278-0.431,3.475-0.431
			c8.229,0,14.925,6.775,14.925,15.106c0,0.607,0.257,1.149,0.66,1.536l-3.013,74.631h-16.048v30.209h67.938
			C272.771,334.885,279.45,328.121,279.45,319.78z M215.406,304.676l3.011-74.543c0.469-0.392,0.785-0.96,0.785-1.624
			c0-8.331,6.693-15.106,14.923-15.106s14.924,6.775,14.924,15.106c0,0.548,0.218,1.032,0.551,1.411l-12.032,74.756L215.406,304.676
			L215.406,304.676z M240.373,304.676l11.984-74.464c0.532-0.386,0.902-0.987,0.902-1.703c0-8.331,6.695-15.106,14.925-15.106
			c8.228,0,14.921,6.775,14.921,15.106c0,0.489-0.024,0.97-0.073,1.448c-0.035,0.353,0.041,0.693,0.171,1.015l-29.293,73.704
			L240.373,304.676L240.373,304.676z"/>
	</g>
</g>
<g>
</g>
<g>
</g>
<g>
</g>
<g>
</g>
<g>
</g>
<g>
</g>
<g>
</g>
<g>
</g>
<g>
</g>
<g>
</g>
<g>
</g>
<g>
</g>
<g>
</g>
<g>
</g>
<g>
</g>
</svg>
