<?xml version="1.0" encoding="iso-8859-1"?>
<!-- Generator: Adobe Illustrator 19.0.0, SVG Export Plug-In . SVG Version: 6.00 Build 0)  -->
<svg version="1.1" id="Capa_1" xmlns="http://www.w3.org/2000/svg" xmlns:xlink="http://www.w3.org/1999/xlink" x="0px" y="0px"
	 viewBox="0 0 400 400" style="enable-background:new 0 0 400 400;" xml:space="preserve">
<g>
	<g>
		<path style="fill:#5D505B;" d="M400,318.644C400,363.577,364.018,400,319.633,400H80.365C35.98,400,0,363.577,0,318.644V81.356
			C0,36.423,35.98,0,80.365,0h239.268C364.018,0,400,36.423,400,81.356V318.644z"/>
		<path style="fill:#534551;" d="M400,318.644V207.109L247.768,100.204l25.116,73.067l-172.18,107.738l-10.592,30.955L189.26,400
			h130.373C364.018,400,400,363.577,400,318.644z"/>
		<g>
			<polygon style="fill:#C4E15E;" points="289.291,281.009 244.004,263.263 250.95,245.096 296.236,262.84 			"/>
			<polygon style="opacity:0.43;fill:#C4E15E;enable-background:new    ;" points="289.291,281.009 244.004,263.263 250.95,245.096 
				296.236,262.84 			"/>
			<g>
				<polygon style="fill:#C4E15E;" points="107.651,281.009 152.936,263.263 145.994,245.096 100.704,262.84 				"/>
				<polygon style="opacity:0.43;fill:#C4E15E;enable-background:new    ;" points="107.651,281.009 152.936,263.263 
					145.994,245.096 100.704,262.84 				"/>
				<polygon style="fill:#CAE46E;" points="90.112,311.964 124.059,298.666 101.093,238.597 67.148,251.896 				"/>
				<polygon style="fill:#DBEC9D;" points="116.666,301.562 124.059,298.666 101.093,238.597 93.702,241.494 				"/>
			</g>
			<path style="fill:#CAE46E;" d="M198.914,84.954c-40.825,0-90.981,36.205-86.671,80.305c1.604,16.396,8.46,41.851,12.75,64.472
				c8.238,43.438,33.097,80.308,73.922,80.308s65.685-36.869,73.92-80.308c4.29-22.621,11.146-48.076,12.75-64.472
				C289.895,121.158,239.739,84.954,198.914,84.954z M165.757,189.689c-11.063,3.584-22.375-2.042-25.269-12.578
				c-2.891-10.535,3.732-21.974,14.798-25.557c11.065-3.583,22.375,2.042,25.266,12.58
				C183.446,174.668,176.821,186.104,165.757,189.689z M257.338,177.112c-2.894,10.536-14.206,16.162-25.269,12.578
				c-11.063-3.585-17.689-15.021-14.798-25.555c2.892-10.538,14.203-16.162,25.269-12.58
				C253.604,155.138,260.229,166.577,257.338,177.112z"/>
			<path style="fill:#C4E15E;" d="M243.605,252.353c0-24.989-20.011-45.243-44.691-45.243c-24.683,0-44.691,20.254-44.691,45.243
				c0,24.979,20.008,45.239,44.691,45.239C223.595,297.592,243.605,277.332,243.605,252.353z"/>
			<line style="fill:none;" x1="107.651" y1="281.009" x2="152.936" y2="263.263"/>
			<path style="opacity:0.43;fill:#C4E15E;enable-background:new    ;" d="M243.605,252.353c0-24.989-20.011-45.243-44.691-45.243
				c-24.683,0-44.691,20.254-44.691,45.243c0,24.979,20.008,45.239,44.691,45.239C223.595,297.592,243.605,277.332,243.605,252.353z
				"/>
			<ellipse style="fill:#FFFFFF;" cx="176.735" cy="243.484" rx="4.827" ry="4.888"/>
			<ellipse style="fill:#FFFFFF;" cx="198.914" cy="243.484" rx="4.826" ry="4.888"/>
			<ellipse style="fill:#FFFFFF;" cx="221.092" cy="243.484" rx="4.829" ry="4.888"/>
			<ellipse style="fill:#FFFFFF;" cx="189.261" cy="262.213" rx="4.827" ry="4.886"/>
			<ellipse style="fill:#FFFFFF;" cx="211.438" cy="262.213" rx="4.826" ry="4.886"/>
			<polygon style="fill:#CAE46E;" points="306.83,311.964 272.884,298.666 295.85,238.597 329.794,251.896 			"/>
			<polygon style="fill:#DBEC9D;" points="280.276,301.562 272.884,298.666 295.85,238.597 303.24,241.494 			"/>
		</g>
		<path style="fill:none;" d="M155.287,151.555c-11.065,3.583-17.689,15.021-14.798,25.557
			c2.894,10.536,14.206,16.162,25.269,12.578c11.063-3.585,17.689-15.021,14.795-25.555
			C177.662,153.597,166.352,147.973,155.287,151.555z"/>
		<path style="opacity:0.28;fill:#534551;enable-background:new    ;" d="M259.369,269.285l21.524,8.433l-8.01,20.948l33.946,13.298
			l22.964-60.067l-33.944-13.3l-8.012,20.952l-20.745-8.129c2.402-6.935,4.325-14.21,5.741-21.689
			c4.29-22.621,11.146-48.076,12.75-64.472c4.273-43.711-44.958-79.646-85.584-80.276v225.013
			C226.873,309.557,246.727,293.058,259.369,269.285z M232.069,189.689c-11.063-3.585-17.689-15.021-14.798-25.555
			c2.892-10.538,14.203-16.162,25.269-12.58c11.063,3.583,17.688,15.021,14.798,25.557
			C254.444,187.647,243.132,193.274,232.069,189.689z"/>
	</g>
</g>
<g>
</g>
<g>
</g>
<g>
</g>
<g>
</g>
<g>
</g>
<g>
</g>
<g>
</g>
<g>
</g>
<g>
</g>
<g>
</g>
<g>
</g>
<g>
</g>
<g>
</g>
<g>
</g>
<g>
</g>
</svg>
