<?xml version="1.0" encoding="iso-8859-1"?>
<!-- Generator: Adobe Illustrator 19.0.0, SVG Export Plug-In . SVG Version: 6.00 Build 0)  -->
<svg version="1.1" id="Capa_1" xmlns="http://www.w3.org/2000/svg" xmlns:xlink="http://www.w3.org/1999/xlink" x="0px" y="0px"
	 viewBox="0 0 400 400" style="enable-background:new 0 0 400 400;" xml:space="preserve">
<g>
	<g>
		<path style="fill:#D66D5D;" d="M400,318.644c0,44.93-35.982,81.356-80.367,81.356H80.365C35.98,400,0,363.574,0,318.644V81.356
			C0,36.423,35.98,0,80.365,0h239.268C364.018,0,400,36.423,400,81.356V318.644z"/>
		<path style="fill:#CE6352;" d="M400,318.644V157.665L216.732,53.706l4.344,47.471L200,133.821v187.98l-80.507-36.238v28.132
			L249.731,400h69.901C364.018,400,400,363.574,400,318.644z"/>
		<g>
			<path style="fill:#736771;" d="M297.523,257.698c-0.054-1.308-0.773-2.49-1.904-3.123c-1.131-0.631-2.505-0.62-3.623,0.031
				l-37.457,21.776c-1.281,0.743-2.001,2.188-1.828,3.675c0.173,1.482,1.201,2.721,2.615,3.146l5.569,1.674
				c-10.232,5.824-29.633,15.975-47.256,20.204V164.903h46.851c2.038,0,3.691-1.671,3.691-3.737V141.83
				c0-2.063-1.653-3.735-3.691-3.735h-46.85V118.7c12.953-5.762,21.485-18.814,21.485-33.271c0-20.053-16.114-36.365-35.923-36.365
				s-35.923,16.312-35.923,36.365c0,14.458,8.534,27.509,21.491,33.271v19.395h-46.85c-2.038,0-3.689,1.672-3.689,3.735v19.336
				c0,2.065,1.651,3.737,3.689,3.737h46.85v139.808c-17.179-4.444-35.74-14.181-45.666-19.834l5.568-1.674
				c1.415-0.425,2.443-1.663,2.614-3.146c0.171-1.486-0.547-2.932-1.828-3.675l-37.457-21.776c-1.121-0.649-2.495-0.664-3.624-0.031
				s-1.851,1.817-1.902,3.123c-0.868,22.014,12.354,52.556,12.918,53.845c0.699,1.601,2.404,2.494,4.098,2.152
				c1.695-0.342,2.929-1.828,2.968-3.578l0.24-10.854c14.409,12.039,45.419,27.535,52.859,30.73
				c11.111,4.765,21.327,19.222,21.427,19.368c0.693,0.986,1.816,1.573,3.013,1.573c1.194,0,2.317-0.587,3.011-1.573
				c0.101-0.146,10.316-14.602,21.434-19.37c7.438-3.193,38.445-18.691,52.856-30.729l0.238,10.853
				c0.037,1.75,1.271,3.238,2.966,3.58c1.692,0.34,3.396-0.552,4.098-2.152C285.166,310.257,298.393,279.712,297.523,257.698z
				 M199.202,72.247c7.181,0,13.022,5.914,13.022,13.181c0,7.271-5.842,13.188-13.022,13.188s-13.023-5.916-13.023-13.188
				C186.179,78.161,192.021,72.247,199.202,72.247z"/>
			<ellipse style="fill:#C3E05E;" cx="199.999" cy="150.762" rx="16.734" ry="16.94"/>
		</g>
		<path style="fill:none;" d="M186.179,85.428c0,7.271,5.842,13.188,13.023,13.188c0.27,0,0.533-0.025,0.798-0.042V72.288
			c-0.265-0.017-0.528-0.042-0.798-0.042C192.021,72.247,186.179,78.161,186.179,85.428z"/>
		<path style="opacity:0.28;fill:#534551;enable-background:new    ;" d="M203.011,349.361c0.101-0.146,10.316-14.602,21.434-19.37
			c7.438-3.193,38.445-18.691,52.856-30.729l0.238,10.853c0.037,1.75,1.271,3.238,2.966,3.58c1.692,0.34,3.396-0.552,4.098-2.152
			c0.563-1.286,13.79-31.831,12.921-53.845c-0.054-1.308-0.773-2.49-1.904-3.123c-1.131-0.631-2.505-0.62-3.623,0.031
			l-37.457,21.776c-1.281,0.743-2.001,2.188-1.828,3.675c0.173,1.482,1.201,2.721,2.615,3.146l5.569,1.674
			c-10.232,5.824-29.633,15.975-47.256,20.204V164.903h46.851c2.038,0,3.691-1.671,3.691-3.737V141.83
			c0-2.063-1.653-3.735-3.691-3.735H213.64V118.7c12.953-5.762,21.485-18.814,21.485-33.271c0-19.78-15.687-35.888-35.125-36.323
			V72.29c6.809,0.42,12.225,6.145,12.225,13.14c0,6.999-5.416,12.725-12.225,13.146v252.36
			C201.197,350.935,202.317,350.348,203.011,349.361z"/>
	</g>
</g>
<g>
</g>
<g>
</g>
<g>
</g>
<g>
</g>
<g>
</g>
<g>
</g>
<g>
</g>
<g>
</g>
<g>
</g>
<g>
</g>
<g>
</g>
<g>
</g>
<g>
</g>
<g>
</g>
<g>
</g>
</svg>
