<?xml version="1.0" encoding="iso-8859-1"?>
<!-- Generator: Adobe Illustrator 19.0.0, SVG Export Plug-In . SVG Version: 6.00 Build 0)  -->
<svg version="1.1" id="Capa_1" xmlns="http://www.w3.org/2000/svg" xmlns:xlink="http://www.w3.org/1999/xlink" x="0px" y="0px"
	 viewBox="0 0 400 400" style="enable-background:new 0 0 400 400;" xml:space="preserve">
<g>
	<g>
		<path style="fill:#D66D5D;" d="M400,318.644C400,363.577,364.02,400,319.633,400H80.365C35.98,400,0,363.577,0,318.644V81.356
			C0,36.423,35.98,0,80.365,0h239.268C364.02,0,400,36.423,400,81.356V318.644z"/>
		<path style="fill:#CE6352;" d="M400,318.644V118.558l-72.836-44.617l-46.836,153.718L104.19,275.28l-25.484,45.77L176.837,400
			h142.796C364.018,400,400,363.574,400,318.644z"/>
		<g>
			<path style="fill:#938991;" d="M326.966,297.654c0.12-1.491,0.198-2.992,0.198-4.514V73.941H209.7v151.207h-83.76
				c-41.88,0-54.518,37.51-54.518,67.992c0,1.521,0.076,3.022,0.195,4.514L326.966,297.654L326.966,297.654z"/>
			<path style="fill:#5D505B;" d="M71.617,297.654v7.178v4.521v4.521c0,3.964,3.175,7.176,7.088,7.176
				c3.915,0,7.088-3.212,7.088-7.176c0,3.964,3.173,7.176,7.088,7.176c3.916,0,7.088-3.212,7.088-7.176
				c0,3.964,3.173,7.176,7.088,7.176s7.088-3.212,7.088-7.176c0,3.964,3.175,7.176,7.088,7.176c3.915,0,7.088-3.212,7.088-7.176
				c0,3.964,3.173,7.176,7.088,7.176s7.088-3.212,7.088-7.176c0,3.964,3.173,7.176,7.09,7.176c3.913,0,7.086-3.212,7.086-7.176
				c0,3.964,3.175,7.176,7.088,7.176c3.916,0,7.09-3.212,7.09-7.176c0,3.964,3.171,7.176,7.086,7.176s7.088-3.212,7.088-7.176
				c0,3.964,3.175,7.176,7.09,7.176c3.913,0,7.086-3.212,7.086-7.176c0,3.964,3.173,7.176,7.089,7.176
				c3.915,0,7.088-3.212,7.088-7.176c0,3.964,3.175,7.176,7.088,7.176c3.916,0,7.089-3.212,7.089-7.176
				c0,3.964,3.173,7.176,7.09,7.176c3.914,0,7.087-3.212,7.087-7.176c0,3.964,3.173,7.176,7.088,7.176s7.088-3.212,7.088-7.176
				c0,3.964,3.176,7.176,7.089,7.176c3.915,0,7.088-3.212,7.088-7.176c0,3.964,3.173,7.176,7.091,7.176
				c3.913,0,7.086-3.212,7.086-7.176c0,3.964,3.173,7.176,7.089,7.176c3.915,0,7.088-3.212,7.088-7.176
				c0,3.964,3.175,7.176,7.088,7.176c3.916,0,7.091-3.212,7.091-7.176c0,3.964,3.171,7.176,7.088,7.176
				c3.913,0,7.087-3.212,7.087-7.176v-4.521v-4.521v-7.178H71.617z"/>
			<ellipse style="fill:#C3E05E;" cx="280.326" cy="249.481" rx="21.559" ry="21.822"/>
			<rect x="209.7" y="73.941" style="opacity:0.36;fill:#938991;enable-background:new    ;" width="31.226" height="151.354"/>
			<path style="fill:#5D505B;" d="M254.307,103.479c0,3.743-2.996,6.774-6.691,6.774h-41.718c-3.695,0-6.691-3.031-6.691-6.774l0,0
				c0-3.739,2.996-6.774,6.691-6.774h41.718C251.311,96.705,254.307,99.74,254.307,103.479L254.307,103.479z"/>
			<path style="fill:#5D505B;" d="M254.307,137.597c0,3.741-2.996,6.774-6.691,6.774h-41.718c-3.695,0-6.691-3.033-6.691-6.774l0,0
				c0-3.741,2.996-6.774,6.691-6.774h41.718C251.311,130.823,254.307,133.856,254.307,137.597L254.307,137.597z"/>
			<path style="fill:#5D505B;" d="M254.307,171.716c0,3.739-2.996,6.773-6.691,6.773h-41.718c-3.695,0-6.691-3.035-6.691-6.773l0,0
				c0-3.743,2.996-6.774,6.691-6.774h41.718C251.311,164.942,254.307,167.973,254.307,171.716L254.307,171.716z"/>
			<path style="fill:#5D505B;" d="M254.307,205.833c0,3.74-2.996,6.773-6.691,6.773h-41.718c-3.695,0-6.691-3.033-6.691-6.773l0,0
				c0-3.741,2.996-6.772,6.691-6.772h41.718C251.311,199.061,254.307,202.092,254.307,205.833L254.307,205.833z"/>
		</g>
		<path style="fill:#5D505B;" d="M205.897,164.942c-3.695,0-6.691,3.031-6.691,6.774c0,3.739,2.996,6.773,6.691,6.773h3.803v-13.547
			H205.897z"/>
		<path style="fill:#5D505B;" d="M205.897,199.061c-3.695,0-6.691,3.031-6.691,6.772c0,3.74,2.996,6.773,6.691,6.773h3.803v-13.545
			H205.897z"/>
		<path style="fill:#5D505B;" d="M205.897,130.823c-3.695,0-6.691,3.033-6.691,6.774s2.996,6.774,6.691,6.774h3.803v-13.548H205.897
			z"/>
		<path style="fill:#5D505B;" d="M205.897,96.705c-3.695,0-6.691,3.035-6.691,6.774c0,3.743,2.996,6.774,6.691,6.774h3.803V96.705
			H205.897z"/>
		<path style="opacity:0.28;fill:#534551;enable-background:new    ;" d="M213.383,313.874c0,3.964,3.175,7.176,7.088,7.176
			c3.916,0,7.089-3.212,7.089-7.176c0,3.964,3.173,7.176,7.09,7.176c3.914,0,7.087-3.212,7.087-7.176
			c0,3.964,3.173,7.176,7.088,7.176s7.088-3.212,7.088-7.176c0,3.964,3.176,7.176,7.089,7.176c3.915,0,7.088-3.212,7.088-7.176
			c0,3.964,3.173,7.176,7.091,7.176c3.913,0,7.086-3.212,7.086-7.176c0,3.964,3.173,7.176,7.089,7.176
			c3.915,0,7.088-3.212,7.088-7.176c0,3.964,3.175,7.176,7.088,7.176c3.916,0,7.091-3.212,7.091-7.176
			c0,3.964,3.171,7.176,7.088,7.176c3.913,0,7.087-3.212,7.087-7.176v-4.521v-4.521v-7.178h0.17c0.12-1.491,0.198-2.992,0.198-4.514
			V73.941h-86.238H209.7v22.763v13.548v20.571v13.548v20.571v13.547v20.571v13.545v12.542v94.983
			C211.886,318.908,213.383,316.581,213.383,313.874z"/>
	</g>
</g>
<g>
</g>
<g>
</g>
<g>
</g>
<g>
</g>
<g>
</g>
<g>
</g>
<g>
</g>
<g>
</g>
<g>
</g>
<g>
</g>
<g>
</g>
<g>
</g>
<g>
</g>
<g>
</g>
<g>
</g>
</svg>
