<?xml version="1.0" encoding="iso-8859-1"?>
<!-- Generator: Adobe Illustrator 19.0.0, SVG Export Plug-In . SVG Version: 6.00 Build 0)  -->
<svg version="1.1" id="Capa_1" xmlns="http://www.w3.org/2000/svg" xmlns:xlink="http://www.w3.org/1999/xlink" x="0px" y="0px"
	 viewBox="0 0 400 400" style="enable-background:new 0 0 400 400;" xml:space="preserve">
<g>
	<g>
		<path style="fill:#C3E05E;" d="M400,318.652C400,363.574,364.018,400,319.633,400H80.365C35.98,400,0,363.574,0,318.652V81.348
			C0,36.426,35.98,0,80.365,0h239.268C364.018,0,400,36.426,400,81.348V318.652z"/>
		<path style="fill:#B4D754;" d="M400,318.652v-162.06L273.908,64.356l-72.977,66.895l-37.428,194.531L259.328,400h60.305
			C364.018,400,400,363.574,400,318.652z"/>
		<path style="fill:#5D505B;" d="M154.836,298.633c0,25.684,20.636,46.582,46.09,46.582c25.453,0,46.089-20.898,46.089-46.582
			V181.104h-92.179L154.836,298.633L154.836,298.633z"/>
		<rect x="154.836" y="181.104" style="fill:#746872;" width="92.179" height="117.529"/>
		<polygon style="fill:#938991;" points="218.625,139.941 183.224,139.941 154.836,181.104 247.015,181.104 		"/>
		<rect x="183.224" y="83.154" style="fill:#746872;" width="35.413" height="56.787"/>
		<polygon style="fill:#897E87;" points="273.908,121.191 218.637,139.941 218.637,83.105 273.908,64.355 		"/>
		<polygon style="fill:#897E87;" points="127.955,121.191 183.224,139.941 183.224,83.105 127.955,64.355 		"/>
		<rect x="182.229" y="66.357" style="fill:#5D505B;" width="37.403" height="9.863"/>
		<path style="fill:#897E87;" d="M100.174,117.041V96.533l-19.982,6.787l0,0H67.389l0,0l-19.982-6.787v20.508l19.982,6.787
			l-10.263,14.893v42.48c0,9.326,7.46,16.846,16.663,16.846s16.663-7.52,16.663-16.846v-42.48l-10.263-14.893h0.004L100.174,117.041
			z"/>
		<rect x="67.029" y="97.266" style="fill:#897E87;" width="13.522" height="3.516"/>
		<path style="fill:#897E87;" d="M133.318,260.352v-20.508l-19.982,6.787l0,0h-12.803l0,0l-19.982-6.787v20.508l19.982,6.836
			L90.27,282.032v42.48c0,9.375,7.46,16.895,16.663,16.895s16.663-7.52,16.663-16.895v-42.48l-10.263-14.844h0.004L133.318,260.352z
			"/>
		<rect x="100.174" y="240.576" style="fill:#897E87;" width="13.522" height="3.564"/>
		<path style="fill:#897E87;" d="M341.879,195.752v-20.557l-19.983,6.787l0,0h-12.804l0,0l-19.981-6.787v20.557l19.981,6.787
			l-10.261,14.893v42.432c0,9.375,7.458,16.895,16.66,16.895c9.205,0,16.663-7.52,16.663-16.895v-42.432l-10.264-14.893h0.005
			L341.879,195.752z"/>
		<rect x="308.732" y="175.928" style="fill:#897E87;" width="13.522" height="3.564"/>
		<rect x="182.229" y="66.357" style="fill:#5D505B;" width="18.703" height="9.863"/>
		<path style="opacity:0.28;fill:#534551;enable-background:new    ;" d="M247.015,298.633V181.104l-28.39-41.162h0.012
			l55.271-18.75V64.356l-55.271,18.75v0.049h-17.705v262.061C226.383,345.215,247.015,324.316,247.015,298.633z"/>
		<rect x="200.932" y="66.357" style="opacity:0.58;fill:#534551;enable-background:new    ;" width="18.7" height="9.863"/>
	</g>
</g>
<g>
</g>
<g>
</g>
<g>
</g>
<g>
</g>
<g>
</g>
<g>
</g>
<g>
</g>
<g>
</g>
<g>
</g>
<g>
</g>
<g>
</g>
<g>
</g>
<g>
</g>
<g>
</g>
<g>
</g>
</svg>
