<?xml version="1.0" encoding="iso-8859-1"?>
<!-- Generator: Adobe Illustrator 19.0.0, SVG Export Plug-In . SVG Version: 6.00 Build 0)  -->
<svg version="1.1" id="Capa_1" xmlns="http://www.w3.org/2000/svg" xmlns:xlink="http://www.w3.org/1999/xlink" x="0px" y="0px"
	 viewBox="0 0 400 400" style="enable-background:new 0 0 400 400;" xml:space="preserve">
<g>
	<g>
		<path style="fill:#5D505B;" d="M400,318.644C400,363.577,364.02,400,319.633,400H80.365C35.98,400,0,363.577,0,318.644V81.356
			C0,36.423,35.98,0,80.365,0h239.268C364.02,0,400,36.423,400,81.356V318.644z"/>
		<path style="fill:#534551;" d="M400,318.644V172.005l-60.702-48.901l-77.179,65.33l-54.749,29.087L77.648,274.92L212.535,400
			h107.098C364.018,400,400,363.574,400,318.644z"/>
		<polygon style="fill:none;" points="191.375,217.521 200,217.521 200,199.159 200,199.157 		"/>
		<g>
			<polygon style="fill:#7996B1;" points="134.741,185.89 122.985,191.994 140.801,227.157 152.558,221.054 			"/>
			<g>
				<path style="fill:#7996B1;" d="M118.199,257.484c1.752,3.459-5.02,10.549-15.049,15.757s-21.743,7.716-26.03,5.573
					c-4.288-2.142,0.666-8.288,11.007-13.657l8.083-4.197C106.551,255.591,116.446,254.026,118.199,257.484z"/>
			</g>
			<path style="fill:#C3E05E;" d="M350.787,136.717c6.844,13.504,6.234,39.273-7.106,46.201L126.026,284.309
				c-13.342,6.928-29.706,1.597-36.548-11.912l0,0c-6.846-13.508-1.577-30.074,11.767-37L309.573,115.6
				C322.913,108.674,343.941,123.207,350.787,136.717L350.787,136.717z"/>
			<path style="fill:#D66D5D;" d="M355.003,154.103c-1.228-5.438-3.204-11.008-5.972-16.477c-2.772-5.464-6.089-10.34-9.733-14.522
				c-9.154-7.446-21.059-12.003-29.725-7.504l-23.087,13.277c-1.982,10.979,0.15,24.643,6.77,37.708
				c6.624,13.066,16.338,22.792,26.306,27.57l24.119-11.237C352.344,178.419,355.634,165.977,355.003,154.103z"/>
			<path style="fill:#D66D5D;" d="M122.57,223.134l-18.039,10.371c0.985,8.653,3.691,17.846,8.228,26.802
				c4.536,8.955,10.335,16.545,16.704,22.398l18.845-8.776c-7.3-4.775-14.148-12.442-19.077-22.174
				C124.299,242.021,122.144,231.925,122.57,223.134z"/>
			<path style="fill:#D66D5D;" d="M350.785,136.715c9.332,18.41,7.199,38.37-4.752,44.573c-11.954,6.208-29.203-3.687-38.535-22.097
				c-9.327-18.41-7.199-38.365,4.753-44.573C324.204,108.41,341.457,118.306,350.785,136.715z"/>
			<path style="opacity:0.21;fill:#D66D5D;enable-background:new    ;" d="M350.785,136.715c9.332,18.41,7.199,38.37-4.752,44.573
				c-11.954,6.208-29.203-3.687-38.535-22.097c-9.327-18.41-7.199-38.365,4.753-44.573
				C324.204,108.41,341.457,118.306,350.785,136.715z"/>
			<path style="fill:#FFFFFF;" d="M343.938,140.27c6.377,12.588,4.921,26.228-3.249,30.47c-8.17,4.243-19.961-2.519-26.34-15.104
				c-6.375-12.588-4.923-26.225,3.249-30.47C325.766,120.925,337.562,127.687,343.938,140.27z"/>
			<path style="fill:#C3E05E;" d="M156.314,168.683c1.563,3.087,1.423,8.976-1.626,10.558l-49.741,23.172
				c-3.048,1.584-6.788,0.366-8.353-2.721l0,0c-1.563-3.085-0.36-6.872,2.689-8.456l47.611-27.376
				C149.944,162.276,154.75,165.598,156.314,168.683L156.314,168.683z"/>
			<path style="fill:#D66D5D;" d="M157.277,172.657c-0.282-1.243-0.732-2.517-1.365-3.768c-0.633-1.247-1.39-2.358-2.223-3.318
				c-2.093-1.699-4.814-2.741-6.794-1.711l-5.277,3.033c-0.452,2.51,0.033,5.628,1.546,8.616c1.514,2.987,3.736,5.21,6.013,6.301
				l5.511-2.569C156.668,178.213,157.421,175.372,157.277,172.657z"/>
			<path style="fill:#D66D5D;" d="M104.157,188.434l-4.123,2.371c0.228,1.976,0.845,4.078,1.879,6.122
				c1.039,2.048,2.365,3.783,3.818,5.122l4.308-2.005c-1.667-1.093-3.234-2.846-4.361-5.071
				C104.552,192.751,104.061,190.441,104.157,188.434z"/>
			<path style="fill:#D66D5D;" d="M156.312,168.683c2.132,4.207,1.645,8.768-1.086,10.186c-2.73,1.418-6.675-0.841-8.807-5.05
				c-2.132-4.205-1.645-8.768,1.088-10.188C150.238,162.213,154.18,164.476,156.312,168.683z"/>
			<path style="opacity:0.21;fill:#D66D5D;enable-background:new    ;" d="M156.312,168.683c2.132,4.207,1.645,8.768-1.086,10.186
				c-2.73,1.418-6.675-0.841-8.807-5.05c-2.132-4.205-1.645-8.768,1.088-10.188C150.238,162.213,154.18,164.476,156.312,168.683z"/>
			<path style="fill:#FFFFFF;" d="M154.748,169.495c1.456,2.877,1.127,5.995-0.74,6.965c-1.869,0.97-4.565-0.577-6.021-3.456
				c-1.458-2.873-1.125-5.989,0.742-6.959C150.598,165.076,153.29,166.62,154.748,169.495z"/>
		</g>
		<ellipse style="fill:#FFFFFF;" cx="334.632" cy="63.98" rx="8.879" ry="8.989"/>
		<ellipse style="fill:#FFFFFF;" cx="259.663" cy="278.354" rx="8.878" ry="8.988"/>
		<ellipse style="fill:#FFFFFF;" cx="181.505" cy="340.795" rx="8.879" ry="8.989"/>
		<ellipse style="fill:#FFFFFF;" cx="352.391" cy="287.344" rx="8.879" ry="8.989"/>
		<ellipse style="fill:#FFFFFF;" cx="234.661" cy="86.023" rx="8.878" ry="8.989"/>
		<ellipse style="fill:#FFFFFF;" cx="116.171" cy="54.992" rx="8.878" ry="8.989"/>
		<ellipse style="fill:#FFFFFF;" cx="51.849" cy="208.339" rx="8.879" ry="8.988"/>
		<ellipse style="fill:#FFFFFF;" cx="172.625" cy="137.479" rx="8.879" ry="8.989"/>
		<ellipse style="fill:#FFFFFF;" cx="86.479" cy="340.081" rx="8.878" ry="8.989"/>
		<ellipse style="fill:#FFFFFF;" cx="285.775" cy="340.795" rx="8.879" ry="8.989"/>
		<ellipse style="fill:#FFFFFF;" cx="95.358" cy="112.765" rx="8.879" ry="8.988"/>
		<path style="opacity:0.18;fill:#534551;enable-background:new    ;" d="M319.562,194.155l24.119-11.237
			c0.744-0.387,1.433-0.851,2.1-1.349c0.156-0.117,0.312-0.235,0.464-0.358c0.12-0.096,0.247-0.181,0.364-0.281
			c11.409-6.545,13.344-26.073,4.205-44.155c-0.01-0.019-0.017-0.04-0.026-0.058c-0.264-0.519-0.553-1.039-0.855-1.559
			c-9.33-17.084-25.488-26.21-37.062-20.802c-0.064,0.017-0.126,0.042-0.191,0.058c-0.381,0.102-0.757,0.221-1.129,0.35
			c-0.156,0.054-0.314,0.106-0.469,0.167c-0.513,0.198-1.017,0.417-1.508,0.67l-105.361,60.587v71.699l115.348-53.732
			C319.562,194.155,319.562,194.155,319.562,194.155z"/>
	</g>
</g>
<g>
</g>
<g>
</g>
<g>
</g>
<g>
</g>
<g>
</g>
<g>
</g>
<g>
</g>
<g>
</g>
<g>
</g>
<g>
</g>
<g>
</g>
<g>
</g>
<g>
</g>
<g>
</g>
<g>
</g>
</svg>
