<?xml version="1.0" encoding="iso-8859-1"?>
<!-- Generator: Adobe Illustrator 19.0.0, SVG Export Plug-In . SVG Version: 6.00 Build 0)  -->
<svg version="1.1" id="Capa_1" xmlns="http://www.w3.org/2000/svg" xmlns:xlink="http://www.w3.org/1999/xlink" x="0px" y="0px"
	 viewBox="0 0 400 400" style="enable-background:new 0 0 400 400;" xml:space="preserve">
<g>
	<g>
		<path style="fill:#7996B1;" d="M400,318.644C400,363.577,364.02,400,319.633,400H80.365C35.98,400,0,363.577,0,318.644V81.354
			C0,36.423,35.98,0,80.365,0h239.268C364.02,0,400,36.423,400,81.354V318.644z"/>
		<path style="fill:#708DA8;" d="M399.881,318.644L400,171.329l-148.58-83.52L260.013,200L140.01,147.325l-8.445,209.205
			l58.96,43.47h128.989C363.898,400,399.881,363.574,399.881,318.644z"/>
		<path style="fill:#D66D5D;" d="M290.029,107.067H187.065c-3.487,0-6.317,2.862-6.317,6.395v104.23c0,3.532,2.83,6.395,6.317,6.395
			h102.964c3.49,0,6.317-2.862,6.317-6.395v-104.23C296.347,109.93,293.52,107.067,290.029,107.067z"/>
		<path style="fill:#C3E05E;" d="M180.749,165.577v52.115c0,3.532,2.83,6.395,6.317,6.395l70.031-29.254L180.749,165.577z"/>
		<rect x="187.065" y="146.442" style="fill:#5D505B;" width="109.281" height="38.272"/>
		<path style="opacity:0.28;fill:#534551;enable-background:new    ;" d="M290.029,107.067H187.065c-3.49,0-6.317,2.862-6.317,6.395
			v104.23c0,3.532,2.827,6.395,6.317,6.395h102.964c3.49,0,6.317-2.862,6.317-6.395v-104.23
			C296.347,109.93,293.52,107.067,290.029,107.067z"/>
		<path style="fill:#D66D5D;" d="M251.42,81.415H148.455c-3.487,0-6.317,2.862-6.317,6.395v104.23c0,3.533,2.83,6.395,6.317,6.395
			H251.42c3.489,0,6.316-2.862,6.316-6.395V87.81C257.736,84.277,254.909,81.415,251.42,81.415z"/>
		<rect x="148.455" y="120.79" style="fill:#5D505B;" width="109.281" height="38.271"/>
		<path style="fill:#C3E05E;" d="M148.455,352.088c0,4.722-3.782,8.55-8.445,8.55l0,0c-4.664,0-8.445-3.828-8.445-8.55V80.705
			c0-4.722,3.781-8.55,8.445-8.55l0,0c4.664,0,8.445,3.828,8.445,8.55L148.455,352.088L148.455,352.088z"/>
		<ellipse style="fill:#5D505B;" cx="140.01" cy="66.905" rx="18.1" ry="18.323"/>
	</g>
</g>
<g>
</g>
<g>
</g>
<g>
</g>
<g>
</g>
<g>
</g>
<g>
</g>
<g>
</g>
<g>
</g>
<g>
</g>
<g>
</g>
<g>
</g>
<g>
</g>
<g>
</g>
<g>
</g>
<g>
</g>
</svg>
