<?xml version="1.0" encoding="iso-8859-1"?>
<!-- Generator: Adobe Illustrator 19.0.0, SVG Export Plug-In . SVG Version: 6.00 Build 0)  -->
<svg version="1.1" id="Capa_1" xmlns="http://www.w3.org/2000/svg" xmlns:xlink="http://www.w3.org/1999/xlink" x="0px" y="0px"
	 viewBox="0 0 400 400" style="enable-background:new 0 0 400 400;" xml:space="preserve">
<g>
	<g>
		<path style="fill:#D66D5D;" d="M400,318.644C400,363.577,364.018,400,319.634,400H80.366C35.982,400,0,363.577,0,318.644V81.354
			C0,36.423,35.982,0,80.366,0h239.268C364.018,0,400,36.423,400,81.354V318.644z"/>
		<path style="fill:#CE6352;" d="M400,318.557v-74.652L191.404,87.81l16.922,31.746l4.409,123.75l-67.771,38.599l151.88,118.008
			h22.79C364.018,399.912,400,363.487,400,318.557z"/>
		<g>
			<g>
				<path style="fill:#C3E05E;" d="M208.347,151.759c-2.615,0-4.884-1.971-5.217-4.667c-0.623-5.029-0.175-9.765,0.257-14.347
					c0.646-6.845,1.203-12.757-1.687-18.812c-4.275-8.955-16.206-19-25.955-15c-3.461,1.419-6.044,4.436-9.034,7.929
					c-3.804,4.446-8.119,9.486-15.162,11.776c-11.458,3.73-18.377-2.579-23.434-7.18c-1.63-1.484-3.173-2.885-4.707-3.872
					c-2.455-1.576-3.181-4.869-1.622-7.354c1.557-2.485,4.808-3.22,7.265-1.642c2.276,1.461,4.222,3.23,6.102,4.941
					c4.917,4.478,7.74,6.729,13.177,4.961c4.236-1.378,7.105-4.729,10.426-8.608c3.389-3.959,7.228-8.447,13.035-10.831
					c16.237-6.646,33.299,7.484,39.39,20.243c4.17,8.741,3.382,17.095,2.688,24.464c-0.397,4.19-0.77,8.147-0.292,12.009
					c0.361,2.918-1.685,5.583-4.569,5.949C208.785,151.747,208.564,151.759,208.347,151.759z"/>
			</g>
			<g>
				<g>
					<path style="fill:#5D505B;" d="M203.13,147.092c-0.623-5.031-0.156-9.965,0.218-13.929l10.479,1.016
						c-0.342,3.62-0.729,7.725-0.251,11.589L203.13,147.092z"/>
				</g>
				<g>
					<path style="fill:#5D505B;" d="M203.893,123.994c-0.067-3.874-0.765-7.072-2.192-10.063c-1.215-2.544-3.014-5.133-5.204-7.49
						l7.67-7.303c2.914,3.135,5.338,6.649,7.015,10.157c2.113,4.43,3.142,9.039,3.24,14.507L203.893,123.994z M145.079,119.757
						l-0.115-10.658c1.028-0.01,2.161-0.216,3.364-0.608c4.24-1.378,7.109-4.731,10.432-8.612l1.127-1.313l7.917,7.028l-1.085,1.263
						c-3.807,4.449-8.123,9.491-15.17,11.78C149.344,119.357,147.167,119.734,145.079,119.757z M190.119,101.13
						c-5.046-3.137-10.092-3.955-14.372-2.2c-0.681,0.281-1.337,0.625-2.003,1.049l-5.618-9.014
						c1.181-0.753,2.412-1.396,3.663-1.911c7.349-3.019,15.926-1.924,23.837,2.991L190.119,101.13z"/>
				</g>
				<g>
					<path style="fill:#5D505B;" d="M132.903,115.506c-1.746-1.28-3.294-2.689-4.791-4.051c-1.629-1.482-3.169-2.883-4.701-3.868
						l5.638-9.001c2.276,1.463,4.222,3.231,6.102,4.942c1.355,1.232,2.632,2.396,3.93,3.348L132.903,115.506z"/>
				</g>
			</g>
			<path style="fill:#5D505B;" d="M228.663,147.529v-11.758h-39.305v11.758c-36.204,8.93-63.083,41.958-63.083,81.358
				c0,46.257,37.041,83.757,82.735,83.757s82.735-37.5,82.735-83.757C291.746,189.487,264.867,156.459,228.663,147.529z"/>
		</g>
		<path style="opacity:0.28;fill:#534551;enable-background:new    ;" d="M291.746,228.888c0-39.4-26.879-72.428-63.083-81.358
			v-11.758h-14.976c0.06-0.668,0.117-1.332,0.181-2.013c0.298-3.152,0.588-6.491,0.524-9.957h0.028
			c-0.004-0.262-0.039-0.5-0.047-0.757c-0.027-0.716-0.076-1.441-0.138-2.167c-0.046-0.512-0.087-1.03-0.148-1.525
			c-0.08-0.619-0.197-1.241-0.311-1.865c-0.097-0.533-0.177-1.079-0.298-1.599c-0.13-0.556-0.314-1.118-0.476-1.678
			c-0.16-0.547-0.292-1.107-0.479-1.645c-0.377-1.083-0.822-2.173-1.345-3.27c-0.397-0.831-0.842-1.667-1.329-2.502
			c-0.073-0.129-0.154-0.256-0.229-0.385c-0.399-0.666-0.819-1.332-1.27-1.994c-0.008-0.012-0.019-0.025-0.026-0.038v208.252
			c0.229,0,0.454,0.017,0.685,0.017C254.705,312.645,291.746,275.145,291.746,228.888z"/>
	</g>
</g>
<g>
</g>
<g>
</g>
<g>
</g>
<g>
</g>
<g>
</g>
<g>
</g>
<g>
</g>
<g>
</g>
<g>
</g>
<g>
</g>
<g>
</g>
<g>
</g>
<g>
</g>
<g>
</g>
<g>
</g>
</svg>
