<?xml version="1.0" encoding="iso-8859-1"?>
<!-- Generator: Adobe Illustrator 19.0.0, SVG Export Plug-In . SVG Version: 6.00 Build 0)  -->
<svg version="1.1" id="Capa_1" xmlns="http://www.w3.org/2000/svg" xmlns:xlink="http://www.w3.org/1999/xlink" x="0px" y="0px"
	 viewBox="0 0 400 400" style="enable-background:new 0 0 400 400;" xml:space="preserve">
<g>
	<g>
		<path style="fill:#7996B1;" d="M400,318.644C400,363.577,364.018,400,319.633,400H80.365C35.98,400,0,363.577,0,318.644V81.356
			C0,36.423,35.98,0,80.365,0h239.268C364.018,0,400,36.423,400,81.356V318.644z"/>
		<path style="fill:#708DA8;" d="M73.809,331.806L158.918,400h160.715C364.018,400,400,363.577,400,318.644V156.576l-70.862-51.94
			l-85.108,94.521L73.809,331.806z"/>
		<polygon style="fill:#5D505B;" points="158.918,301.449 73.809,331.806 73.809,134.993 158.918,104.636 		"/>
		<polygon style="fill:#5D505B;" points="329.138,301.449 244.029,331.806 244.029,134.993 329.138,104.636 		"/>
		<polygon style="fill:#5D505B;" points="158.918,301.449 244.029,331.806 244.029,134.993 158.918,104.636 		"/>
		<polygon style="opacity:0.15;fill:#5D505B;enable-background:new    ;" points="158.918,301.449 244.029,331.806 244.029,134.993 
			158.918,104.636 		"/>
		<path style="fill:#D66D5D;" d="M220.638,67.828c-19.665,0-35.608,16.139-35.608,36.044c0,19.907,35.608,80.501,35.608,80.501
			s35.608-60.594,35.608-80.501C256.246,83.967,240.303,67.828,220.638,67.828z M220.638,123.7
			c-11.308,0-20.475-9.278-20.475-20.728s9.167-20.728,20.475-20.728s20.474,9.278,20.474,20.728S231.945,123.7,220.638,123.7z"/>
		<path style="opacity:0.28;fill:#534551;enable-background:new    ;" d="M329.138,301.449V104.636l-82.308,29.358
			c5.364-12.078,9.416-23.413,9.416-30.122c0-19.905-15.943-36.044-35.608-36.044s-35.608,16.139-35.608,36.044
			c0,2.854,0.75,6.563,2.005,10.792l-2.005-0.714l-26.112-9.313V301.45l85.111,30.356L329.138,301.449z M220.638,123.7
			c-11.308,0-20.475-9.278-20.475-20.728s9.167-20.728,20.475-20.728s20.474,9.278,20.474,20.728S231.945,123.7,220.638,123.7z"/>
	</g>
</g>
<g>
</g>
<g>
</g>
<g>
</g>
<g>
</g>
<g>
</g>
<g>
</g>
<g>
</g>
<g>
</g>
<g>
</g>
<g>
</g>
<g>
</g>
<g>
</g>
<g>
</g>
<g>
</g>
<g>
</g>
</svg>
