<?xml version="1.0" encoding="iso-8859-1"?>
<!-- Generator: Adobe Illustrator 19.0.0, SVG Export Plug-In . SVG Version: 6.00 Build 0)  -->
<svg version="1.1" id="Capa_1" xmlns="http://www.w3.org/2000/svg" xmlns:xlink="http://www.w3.org/1999/xlink" x="0px" y="0px"
	 viewBox="0 0 400 400" style="enable-background:new 0 0 400 400;" xml:space="preserve">
<g>
	<g>
		<path style="fill:#C3E05E;" d="M400,318.644C400,363.577,364.02,400,319.633,400H80.365C35.98,400,0,363.577,0,318.644V81.354
			C0,36.423,35.98,0,80.365,0h239.268C364.02,0,400,36.423,400,81.354V318.644z"/>
		<path style="fill:#B4D754;" d="M399.881,318.644v-141.11L227.597,70.217l-73.922,74.177L76.666,294.592L218.951,400h100.562
			C363.898,400,399.881,363.574,399.881,318.644z"/>
		<path style="fill:#FFFFFF;" d="M225.337,294.592h-50.673c-11.121,0-20.14,9.124-20.14,20.386c0,11.256,9.02,20.393,20.14,20.393
			h50.673c11.12,0,20.138-9.137,20.138-20.393C245.475,303.716,236.457,294.592,225.337,294.592z"/>
		<path style="fill:#938991;" d="M125.948,193.957l-11.48,1.663c-19.77,0-36.758,14.948-39.476,34.561
			c-0.331,1.275-0.481,2.383-0.481,3.48v53.48c0,7.675,6.169,13.924,13.753,13.924c8.314,0,11.777-7.612,13.661-13.337
			c1.279-3.896,8.375-11.208,12.801-11.229l11.742-1.687c0.909-0.131,1.583-0.918,1.583-1.847v-77.161
			c0-0.543-0.232-1.056-0.635-1.412C127.011,194.04,126.471,193.882,125.948,193.957z"/>
		<path style="fill:#938991;" d="M325.048,230.385c-2.76-19.806-19.721-34.744-39.215-34.744c-0.011,0-0.025,0-0.037,0
			l-11.802-1.695c-0.524-0.075-1.067,0.087-1.468,0.441c-0.403,0.354-0.634,0.866-0.634,1.405v77.166
			c0,0.929,0.675,1.717,1.581,1.849l12.062,1.713c4.169,0,11.259,7.312,12.542,11.208c1.882,5.725,5.345,13.337,13.66,13.337
			c7.578,0,13.751-6.249,13.751-13.924v-53.48C325.489,232.56,325.338,231.454,325.048,230.385z"/>
		<path style="fill:#5D505B;" d="M199.998,64.632c-39.643,0-71.893,32.647-71.893,72.78v57.467l-0.056,0.006v77.164l0.056-0.01
			v19.699c0,2.602,0.15,5.302,0.444,8.028c0.292,2.669,2.513,4.69,5.166,4.69h132.566c2.648,0,4.879-2.021,5.169-4.688
			c0.294-2.714,0.442-5.418,0.442-8.03v-19.699v-77.16V178.86v-41.448C271.893,97.279,239.643,64.632,199.998,64.632z"/>
		<ellipse style="fill:#8ABFCD;" cx="199.97" cy="131.469" rx="45.504" ry="46.063"/>
		<path style="fill:#FDFAFB;" d="M205.211,114.676c0-10.15-8.127-18.379-18.154-18.379s-18.153,8.229-18.153,18.379
			c0,10.146,8.126,18.373,18.153,18.373S205.211,124.822,205.211,114.676z"/>
		<path style="opacity:0.28;fill:#534551;enable-background:new    ;" d="M245.475,314.978c0-3.855-1.075-7.446-2.912-10.521h23.719
			c2.648,0,4.879-2.021,5.169-4.688c0.294-2.714,0.442-5.418,0.442-8.03V272.96c0,0.929,0.675,1.717,1.581,1.849l12.062,1.713
			c4.169,0,11.259,7.312,12.542,11.208c1.882,5.725,5.345,13.337,13.66,13.337c7.578,0,13.751-6.249,13.751-13.924v-53.48
			c0-1.102-0.151-2.207-0.441-3.276c-2.76-19.806-19.721-34.744-39.215-34.744c-0.011,0-0.025,0-0.037,0l-11.802-1.695
			c-0.524-0.075-1.067,0.087-1.468,0.441c-0.403,0.354-0.634,0.866-0.634,1.405v-0.914v-16.02v-41.448
			c0-40.131-32.248-72.778-71.893-72.78V335.37h25.337C236.457,335.37,245.475,326.233,245.475,314.978z"/>
	</g>
</g>
<g>
</g>
<g>
</g>
<g>
</g>
<g>
</g>
<g>
</g>
<g>
</g>
<g>
</g>
<g>
</g>
<g>
</g>
<g>
</g>
<g>
</g>
<g>
</g>
<g>
</g>
<g>
</g>
<g>
</g>
</svg>
