<?xml version="1.0" encoding="iso-8859-1"?>
<!-- Generator: Adobe Illustrator 19.0.0, SVG Export Plug-In . SVG Version: 6.00 Build 0)  -->
<svg version="1.1" id="Capa_1" xmlns="http://www.w3.org/2000/svg" xmlns:xlink="http://www.w3.org/1999/xlink" x="0px" y="0px"
	 viewBox="0 0 400 400" style="enable-background:new 0 0 400 400;" xml:space="preserve">
<g>
	<g>
		<path style="fill:#7996B1;" d="M400,318.644C400,363.577,364.018,400,319.634,400H80.366C35.982,400,0,363.577,0,318.644V81.356
			C0,36.423,35.982,0,80.366,0h239.268C364.018,0,400,36.423,400,81.356V318.644z"/>
		<path style="fill:#708DA8;" d="M400,318.644V131.771l-54.24-32.095h-71.183v145.073L119.615,233.14l-33.341,16.699l-25.824-2.148
			L273.095,400h46.539C364.018,400,400,363.574,400,318.644z"/>
		<path style="fill:#D66D5D;" d="M210.378,92.604h128.396c3.855,0,6.985,3.165,6.985,7.072s-3.13,7.071-6.985,7.071H281.35v41.719
			c0,3.514-2.816,6.366-6.288,6.366c-3.471,0-6.286-2.852-6.286-6.366v-41.719h-58.398c-3.857,0-6.985-3.164-6.985-7.071
			S206.521,92.604,210.378,92.604z"/>
		<path style="fill:#6D6C62;" d="M311.155,317.713c0,3.512,2.815,6.364,6.289,6.364l0,0c3.469,0,6.284-2.853,6.284-6.364v-56.571
			c0-3.515-2.815-6.366-6.284-6.366l0,0c-3.474,0-6.289,2.852-6.289,6.366V317.713z"/>
		<path style="fill:#6D6C62;" d="M230.822,317.713c0,3.512,2.815,6.364,6.289,6.364l0,0c3.471,0,6.286-2.853,6.286-6.364v-56.571
			c0-3.515-2.815-6.366-6.286-6.366l0,0c-3.474,0-6.289,2.852-6.289,6.366V317.713z"/>
		<path style="fill:#736771;" d="M77.325,220.336l0.64-2.744c1.768-7.604,9.292-12.312,16.8-10.522l100.216,19.343
			c-1.524-6.322-2.349-12.923-2.349-19.722c0-45.828,36.698-82.976,81.966-82.976c45.267,0,81.962,37.148,81.962,82.976
			c0,45.826-36.695,82.974-81.962,82.974c-14.423,0-27.966-3.782-39.736-10.399l-147.14-41.919
			C80.208,235.558,75.556,227.938,77.325,220.336z"/>
		<path style="fill:#D66D5D;" d="M203.393,317.005c0,3.907,3.128,7.072,6.985,7.072h136.317c3.854,0,6.983-3.165,6.983-7.072l0,0
			c0-3.907-3.13-7.071-6.983-7.071H210.378C206.521,309.934,203.393,313.098,203.393,317.005L203.393,317.005z"/>
		<g>
			<path style="fill:#C3E05E;" d="M43.442,217.592c0,19.271,15.484,34.945,34.522,34.945c19.033,0,34.52-15.675,34.52-34.945
				c0-19.27-15.486-34.945-34.52-34.945C58.927,182.647,43.442,198.322,43.442,217.592z M49.031,217.592
				c0-16.151,12.98-29.289,28.933-29.289c15.951,0,28.931,13.138,28.931,29.289c0,16.154-12.98,29.29-28.931,29.29
				C62.011,246.882,49.031,233.746,49.031,217.592z"/>
			<path style="fill:#C3E05E;" d="M97.296,217.592v-0.104l3.734,0.104c0,12.782-10.275,23.262-22.901,23.351l-0.027-3.778
				C88.686,237.085,97.296,228.305,97.296,217.592z"/>
			<path style="fill:#C3E05E;" d="M77.907,194.24l0.008,3.78c-10.634,0.027-19.285,8.808-19.285,19.571v0.211l-3.734-0.211
				C54.896,204.748,65.221,194.273,77.907,194.24z"/>
			<path style="fill:#C3E05E;" d="M77.874,201.854l0.021,3.778c-6.476,0.04-11.742,5.404-11.742,11.959
				c0,6.593,5.299,11.96,11.713,11.962l0.257-0.004l-0.158,3.778c-8.573,0-15.544-7.058-15.544-15.736
				C62.42,208.968,69.352,201.907,77.874,201.854z"/>
		</g>
		<path style="fill:#8ABFCD;" d="M274.577,123.714c0.007,0,0.011,0,0.021,0c45.267,0,81.962,37.148,81.962,82.976
			c0,3.662-0.261,7.259-0.711,10.798h-81.271v-93.774H274.577z"/>
		<path style="fill:#FFFFFF;" d="M300.266,142.002c-4.389,5.367-1.097,15.457,7.355,22.547c8.451,7.082,18.862,8.481,23.253,3.114
			s1.096-15.461-7.357-22.544C315.064,138.032,304.655,136.636,300.266,142.002z"/>
		<path style="fill:none;" d="M243.397,283.409v26.524h62.764l-20.757-21.013c-3.539,0.475-7.14,0.743-10.807,0.743
			C263.543,289.664,253.015,287.427,243.397,283.409z"/>
		<path style="opacity:0.28;fill:#534551;enable-background:new    ;" d="M353.679,317.005c0-3.907-3.13-7.071-6.983-7.071h-22.967
			v-36.825c17.246-13.096,29.202-32.919,32.117-55.62h0.003c0.004-0.025,0.004-0.052,0.008-0.077
			c0.208-1.628,0.368-3.269,0.481-4.923c0.014-0.184,0.03-0.366,0.041-0.55c0.108-1.738,0.181-3.484,0.181-5.248
			c0-43.524-33.104-79.193-75.209-82.672v-17.272h57.424c3.855,0,6.985-3.164,6.985-7.071s-3.13-7.072-6.985-7.072H210.378
			c-3.857,0-6.985,3.165-6.985,7.072s3.128,7.071,6.985,7.071h58.398v17.199c-38.943,2.771-70.37,33.065-75.417,71.797
			l92.044,93.178c9.143-1.226,17.813-3.957,25.751-7.969v28.981h-4.994l13.971,14.144h26.563
			C350.549,324.077,353.679,320.912,353.679,317.005z"/>
	</g>
</g>
<g>
</g>
<g>
</g>
<g>
</g>
<g>
</g>
<g>
</g>
<g>
</g>
<g>
</g>
<g>
</g>
<g>
</g>
<g>
</g>
<g>
</g>
<g>
</g>
<g>
</g>
<g>
</g>
<g>
</g>
</svg>
