<?xml version="1.0" encoding="iso-8859-1"?>
<!-- Generator: Adobe Illustrator 19.0.0, SVG Export Plug-In . SVG Version: 6.00 Build 0)  -->
<svg version="1.1" id="Capa_1" xmlns="http://www.w3.org/2000/svg" xmlns:xlink="http://www.w3.org/1999/xlink" x="0px" y="0px"
	 viewBox="0 0 400 400" style="enable-background:new 0 0 400 400;" xml:space="preserve">
<g>
	<g>
		<path style="fill:#FFFFFF;" d="M283.174,356.026c0-4.963-3.973-8.988-8.879-8.988c-4.902,0-8.878,4.025-8.878,8.988
			c0,4.965,3.976,8.989,8.878,8.989C279.201,365.016,283.174,360.991,283.174,356.026z"/>
		<ellipse style="fill:#FFFFFF;" cx="110.222" cy="338.049" rx="8.878" ry="8.988"/>
		<path style="fill:#7996B1;" d="M400,318.644C400,363.577,364.018,400,319.633,400H80.365C35.98,400,0,363.577,0,318.644V81.354
			C0,36.423,35.98,0,80.365,0h239.268C364.018,0,400,36.423,400,81.354V318.644z"/>
		<path style="fill:#708DA8;" d="M400,318.644V157.491l-169.364-92.89L157.48,347.038L227.011,400h92.622
			C364.018,400,400,363.574,400,318.644z"/>
		<g>
			<path style="fill:#888087;" d="M247.513,237.438c0,11.652-9.534,21.187-21.187,21.187h-56.325
				c-11.653,0-21.187-9.534-21.187-21.187v-56.62c0-11.653,9.534-21.187,21.187-21.187h56.325c11.652,0,21.187,9.534,21.187,21.187
				V237.438z"/>
		</g>
		<rect x="165.691" y="258.624" style="fill:#5D505B;" width="64.944" height="21.916"/>
		<polygon style="fill:#888087;" points="238.849,294.143 157.48,294.143 165.691,280.54 230.636,280.54 		"/>
		<g>
			<path style="fill:#D66D5D;" d="M238.849,329.871c0,5.826-4.767,10.593-10.593,10.593h-60.182
				c-5.826,0-10.593-4.767-10.593-10.593v-31.71c0-5.826,4.767-10.593,10.593-10.593h60.182c5.826,0,10.593,4.767,10.593,10.593
				V329.871z"/>
		</g>
		<path style="fill:#888087;" d="M198.166,52.96c-28.516,0-51.631,23.4-51.631,52.265c0,28.866,23.116,52.266,51.631,52.266
			c28.512,0,51.629-23.4,51.629-52.266C249.795,76.36,226.678,52.96,198.166,52.96z M198.166,122.652
			c-9.509,0-17.216-7.803-17.216-17.427s7.708-17.426,17.216-17.426c9.506,0,17.214,7.802,17.214,17.426
			S207.672,122.652,198.166,122.652z"/>
		<rect x="165.694" y="146.031" style="fill:#5D505B;" width="64.944" height="13.6"/>
		<path style="opacity:0.56;fill:#888087;enable-background:new    ;" d="M198.166,83.993c-11.584,0-20.975,9.507-20.975,21.232
			c0,11.726,9.391,21.233,20.975,21.233c11.583,0,20.973-9.507,20.973-21.233C219.139,93.5,209.749,83.993,198.166,83.993z
			 M198.166,122.514c-9.433,0-17.078-7.74-17.078-17.289c0-9.548,7.646-17.289,17.078-17.289s17.078,7.741,17.078,17.289
			C215.244,114.774,207.599,122.514,198.166,122.514z"/>
		<rect x="165.691" y="227.022" style="fill:#C3E05E;" width="68.716" height="15.59"/>
		<g>
			<path style="fill:#C3E05E;" d="M273.241,215.972c0,2.33-1.658,5.179-3.685,6.329l-18.359,10.426
				c-2.026,1.15-3.685,0.185-3.685-2.146V187.92c0-2.331,1.658-5.179,3.685-6.33l18.359-10.425c2.026-1.151,3.685-0.186,3.685,2.145
				V215.972z"/>
		</g>
		<g>
			<path style="fill:#C3E05E;" d="M324.7,215.972c0,2.33-1.658,5.179-3.685,6.329l-18.36,10.426
				c-2.026,1.15-3.685,0.185-3.685-2.146V187.92c0-2.331,1.658-5.179,3.685-6.33l18.36-10.425c2.026-1.151,3.685-0.186,3.685,2.145
				V215.972z"/>
		</g>
		<g>
			<path style="fill:#C3E05E;" d="M324.704,215.972c0,2.33,1.658,5.179,3.685,6.33l18.358,10.424
				c2.026,1.151,3.685,0.186,3.685-2.145V187.92c0-2.331-1.658-5.179-3.685-6.33l-18.358-10.425
				c-2.026-1.151-3.685-0.186-3.685,2.145V215.972z"/>
		</g>
		<g>
			<path style="fill:#C3E05E;" d="M273.244,215.972c0,2.33,1.658,5.179,3.685,6.329l18.361,10.426
				c2.026,1.15,3.685,0.185,3.685-2.146V187.92c0-2.331-1.658-5.179-3.685-6.33l-18.361-10.425
				c-2.026-1.151-3.685-0.186-3.685,2.145V215.972z"/>
		</g>
		<g>
			<path style="fill:#B4D754;" d="M273.241,215.972c0,2.33,1.658,5.179,3.685,6.329l18.362,10.426
				c2.026,1.15,3.685,0.185,3.685-2.146V187.92c0-2.331-1.658-5.179-3.685-6.33l-18.362-10.425
				c-2.026-1.151-3.685-0.186-3.685,2.145V215.972z"/>
		</g>
		<g>
			<path style="fill:#B4D754;" d="M324.704,215.972c0,2.33,1.658,5.179,3.685,6.33l18.356,10.424
				c2.026,1.151,3.685,0.186,3.685-2.145V187.92c0-2.331-1.658-5.179-3.685-6.33l-18.356-10.425
				c-2.026-1.151-3.685-0.186-3.685,2.145V215.972z"/>
		</g>
		<g>
			<path style="fill:#C3E05E;" d="M122.788,215.972c0,2.33,1.658,5.179,3.685,6.33l18.358,10.424
				c2.026,1.151,3.685,0.186,3.685-2.145V187.92c0-2.331-1.658-5.179-3.685-6.33l-18.358-10.425
				c-2.026-1.151-3.685-0.186-3.685,2.145V215.972z"/>
		</g>
		<g>
			<path style="fill:#C3E05E;" d="M71.327,215.972c0,2.33,1.658,5.179,3.685,6.329l18.362,10.426
				c2.026,1.15,3.685,0.185,3.685-2.146V187.92c0-2.331-1.658-5.179-3.685-6.33l-18.362-10.425
				c-2.026-1.151-3.685-0.186-3.685,2.145V215.972z"/>
		</g>
		<g>
			<path style="fill:#C3E05E;" d="M71.325,215.972c0,2.33-1.658,5.179-3.685,6.33l-18.358,10.424
				c-2.026,1.151-3.685,0.186-3.685-2.145V187.92c0-2.331,1.658-5.179,3.685-6.33l18.358-10.425
				c2.026-1.151,3.685-0.186,3.685,2.145V215.972z"/>
		</g>
		<g>
			<path style="fill:#C3E05E;" d="M122.786,215.972c0,2.33-1.658,5.179-3.685,6.329l-18.362,10.426
				c-2.026,1.15-3.685,0.185-3.685-2.146V187.92c0-2.331,1.658-5.179,3.685-6.33l18.362-10.425c2.026-1.151,3.685-0.186,3.685,2.145
				V215.972z"/>
		</g>
		<g>
			<path style="fill:#B4D754;" d="M122.786,215.972c0,2.33-1.658,5.179-3.685,6.329l-18.36,10.426
				c-2.026,1.15-3.685,0.185-3.685-2.146V187.92c0-2.331,1.658-5.179,3.685-6.33l18.36-10.425c2.026-1.151,3.685-0.186,3.685,2.145
				V215.972z"/>
		</g>
		<g>
			<path style="fill:#B4D754;" d="M71.325,215.972c0,2.33-1.658,5.179-3.685,6.33l-18.358,10.424
				c-2.026,1.151-3.685,0.186-3.685-2.145V187.92c0-2.331,1.658-5.179,3.685-6.33l18.358-10.425
				c2.026-1.151,3.685-0.186,3.685,2.145V215.972z"/>
		</g>
		<ellipse style="fill:#FFFFFF;" cx="341.549" cy="61.949" rx="8.878" ry="8.989"/>
		<ellipse style="fill:#FFFFFF;" cx="298.971" cy="287.339" rx="8.879" ry="8.988"/>
		<ellipse style="fill:#FFFFFF;" cx="350.428" cy="311.602" rx="8.878" ry="8.989"/>
		<ellipse style="fill:#FFFFFF;" cx="283.174" cy="126.458" rx="8.879" ry="8.988"/>
		<ellipse style="fill:#FFFFFF;" cx="123.087" cy="52.96" rx="8.878" ry="8.988"/>
		<ellipse style="fill:#FFFFFF;" cx="54.78" cy="311.602" rx="8.879" ry="8.989"/>
		<ellipse style="fill:#FFFFFF;" cx="110.222" cy="267.613" rx="8.878" ry="8.989"/>
		<ellipse style="fill:#FFFFFF;" cx="101.343" cy="135.447" rx="8.878" ry="8.989"/>
		<ellipse style="fill:#FFFFFF;" cx="58.765" cy="83.993" rx="8.879" ry="8.989"/>
	</g>
</g>
<g>
</g>
<g>
</g>
<g>
</g>
<g>
</g>
<g>
</g>
<g>
</g>
<g>
</g>
<g>
</g>
<g>
</g>
<g>
</g>
<g>
</g>
<g>
</g>
<g>
</g>
<g>
</g>
<g>
</g>
</svg>
