<?xml version="1.0" encoding="iso-8859-1"?>
<!-- Generator: Adobe Illustrator 19.0.0, SVG Export Plug-In . SVG Version: 6.00 Build 0)  -->
<svg version="1.1" id="Capa_1" xmlns="http://www.w3.org/2000/svg" xmlns:xlink="http://www.w3.org/1999/xlink" x="0px" y="0px"
	 viewBox="0 0 400 400" style="enable-background:new 0 0 400 400;" xml:space="preserve">
<g>
	<g>
		<path style="fill:#7996B1;" d="M400,318.644C400,363.577,364.02,400,319.633,400H80.365C35.98,400,0,363.577,0,318.644V81.354
			C0,36.423,35.98,0,80.365,0h239.268C364.02,0,400,36.423,400,81.354V318.644z"/>
		<path style="fill:#708DA8;" d="M399.881,318.644V194.869l-80.793-49.675l-16.961,71.322l-247.876,0.448l-6.93,55.443L190.524,400
			h128.989C363.898,400,399.881,363.574,399.881,318.644z"/>
		<g>
			<path style="fill:#736771;" d="M61.181,272.407c0,3.876-3.101,7.018-6.93,7.018l0,0c-3.827,0-6.93-3.142-6.93-7.018V161.52
				c0-3.876,3.103-7.017,6.93-7.017l0,0c3.829,0,6.93,3.141,6.93,7.017V272.407z"/>
			<path style="fill:#938991;" d="M96.54,216.516c0,6.564-5.254,11.885-11.737,11.885H54.889c-6.484,0-11.738-5.32-11.738-11.885
				l0,0c0-6.561,5.254-11.882,11.738-11.882h29.914C91.286,204.634,96.54,209.955,96.54,216.516L96.54,216.516z"/>
			<path style="fill:#8ABFCD;" d="M205.153,179.339c0-20.536-16.445-37.181-36.729-37.181s-36.727,16.646-36.727,37.181
				c0,20.532,16.443,37.176,36.727,37.176C188.708,216.516,205.153,199.871,205.153,179.339z"/>
			<path style="fill:#C3E05E;" d="M356.848,216.966c0,22.547-18.06,30.461-40.334,30.461l-214.286,10.365
				c-22.274,0-40.332-18.279-40.332-40.826l0,0c0-22.551,18.057-40.83,40.332-40.83L316.514,186.5
				C338.788,186.5,356.848,194.415,356.848,216.966L356.848,216.966z"/>
			<path style="fill:#C3E05E;" d="M336.982,200.512c0,16.152-12.938,29.25-28.894,29.25l0,0c-15.96,0-28.895-13.098-28.895-29.25
				v-28.271c0-16.154,12.935-29.248,28.895-29.248l0,0c15.955,0,28.894,13.094,28.894,29.248V200.512z"/>
			<path style="fill:#D66D5D;" d="M102.228,176.136c-22.274,0-40.332,18.279-40.332,40.83c0,22.547,18.057,40.826,40.332,40.826
				l16.914-0.818v-80.02L102.228,176.136z"/>
			<path style="fill:#C3E05E;" d="M172.646,201.884v-59.461c-1.386-0.161-2.791-0.265-4.222-0.265c-2.577,0-5.09,0.275-7.516,0.785
				v58.941H172.646z"/>
			<path style="fill:#C3E05E;" d="M238.561,219.482c0,4.926-3.941,8.918-8.807,8.918H163.43c-4.863,0-8.808-3.992-8.808-8.918l0,0
				c0-4.925,3.944-8.916,8.808-8.916h66.324C234.619,210.566,238.561,214.558,238.561,219.482L238.561,219.482z"/>
			<path style="fill:#B9D654;" d="M238.561,219.482c0,4.926-3.941,8.918-8.807,8.918H163.43c-4.863,0-8.808-3.992-8.808-8.918l0,0
				c0-4.925,3.944-8.916,8.808-8.916h66.324C234.619,210.566,238.561,214.558,238.561,219.482L238.561,219.482z"/>
		</g>
		<path style="opacity:0.28;fill:#534551;enable-background:new    ;" d="M47.321,225.595v46.812c0,3.876,3.103,7.018,6.93,7.018
			c3.829,0,6.93-3.142,6.93-7.018V228.4h2.348c4.89,16.977,20.35,29.392,38.699,29.392l16.914-0.818l197.372-9.547
			c19.914,0,36.416-6.361,39.7-23.812H45.489C46.025,224.341,46.636,225.01,47.321,225.595z"/>
	</g>
</g>
<g>
</g>
<g>
</g>
<g>
</g>
<g>
</g>
<g>
</g>
<g>
</g>
<g>
</g>
<g>
</g>
<g>
</g>
<g>
</g>
<g>
</g>
<g>
</g>
<g>
</g>
<g>
</g>
<g>
</g>
</svg>
