<?xml version="1.0" encoding="utf-8"?>
<!-- Generator: Adobe Illustrator 23.0.3, SVG Export Plug-In . SVG Version: 6.00 Build 0)  -->
<svg version="1.1" id="Layer_1" xmlns="http://www.w3.org/2000/svg" xmlns:xlink="http://www.w3.org/1999/xlink" x="0px" y="0px"
	 viewBox="0 0 512 512" style="enable-background:new 0 0 512 512;" xml:space="preserve">
<style type="text/css">
	.st0{fill:#FFFFFF;}
	.st1{fill:#BADA55;}
</style>
<g>
	<title  style="fill:null">Add User</title>
	<path class="st0" d="M55,474.5h244v-14H62v-44.6c0-3.3,0.3-6.7,1-9.9c0.1-0.6,0.3-1.2,0.4-1.8c4.1-14.9,15.7-26.8,30.9-31.7
		l72.8-23.6c29.2,14.6,63.6,14.6,92.9,0l33.8,11l4.3-13.3l-31.8-10.3V304c25.2-15,42.7-40.1,48.2-68.8l4.2-14.3
		c16.4-5.3,25.8-22.4,21.8-39.1c-2.1-8.8-8.5-15.8-17.1-18.7v-46.7c0-60.6-49.1-109.8-109.8-109.8s-109.7,49-109.7,109.7V163
		c-8.5,2.9-15,10-17.1,18.7c-4.1,16.7,5.4,33.7,21.8,39.1l4.2,14.3c5.5,28.8,23.1,53.8,48.2,68.8v32.3l-70.8,23
		C70.3,365.6,55.3,381,50,400.5c-0.2,0.8-0.4,1.5-0.6,2.3c-1,4.3-1.5,8.7-1.4,13.1v51.6C48,471.3,51.1,474.5,55,474.5z M222.5,118.3
		c8.9,9.5,37,34.7,86.9,39.9v3.6c-19.3-0.5-76.5-4.7-121.9-36.9l0.6-0.1C199.7,123.3,211.2,121.1,222.5,118.3z M117.9,116.3
		c0-52.9,42.9-95.8,95.8-95.8s95.8,42.9,95.8,95.8V144c-36.7-4.2-60.2-20.4-71.3-30.2c18.7-6.1,34.7-14.2,47.7-24.2
		c3.1-2.4,3.6-6.7,1.3-9.8c-2.4-3.1-6.7-3.6-9.8-1.3c-26.6,20.4-64,28.8-90.7,32.4c-17.5,2.3-35.2,3.3-52.9,2.7
		c-3.9-0.2-7.2,2.8-7.4,6.6l0,0l-1.7,37.3c-0.1,2.4-1.4,4.5-3.5,5.6c-1,0.5-2.1,0.8-3.2,0.8L117.9,116.3z M126.4,232.1
		c0-0.2-0.1-0.4-0.2-0.7l-5.1-17.7c-0.5-2.9-2.8-5.2-5.7-5.7c-10.3-1.8-17.1-11.6-15.3-21.9c0.1-0.4,0.2-0.8,0.2-1.2
		c1-4.3,4.3-7.8,8.6-9c10.3,4.9,22.7,0.6,27.7-9.8c1.2-2.5,1.9-5.2,2-8l1.4-30.5c6,0.1,15.6-0.1,27.3-0.9
		c31.2,26.8,69.5,38.6,96.5,43.9c29.8,5.8,51.9,5,52.9,5c0.2,0,0.3,0,0.5,0c4.8,0.9,8.6,4.5,9.7,9.3c2.5,10.1-3.7,20.3-13.8,22.8
		c-0.4,0.1-0.8,0.2-1.2,0.2c-2.9,0.5-5.2,2.8-5.7,5.7l-5.1,17.7c-0.1,0.2-0.1,0.4-0.2,0.7c-9.1,48.2-55.5,79.9-103.6,70.8
		C161.3,296.2,133.2,268,126.4,232.1L126.4,232.1z M213.7,318.5c13.3,0,26.4-2.6,38.7-7.6v26.2c-24.5,11.7-52.9,11.7-77.4,0v-26.2
		C187.2,315.9,200.4,318.5,213.7,318.5L213.7,318.5z"/>
	<path class="st1" d="M367,505.5c53.6,0,97-43.4,97-97s-43.4-97-97-97s-97,43.4-97,97C270.1,462,313.5,505.4,367,505.5z M367,325.5
		c45.8,0,83,37.2,83,83s-37.2,83-83,83s-83-37.2-83-83l0,0C284.1,362.7,321.2,325.6,367,325.5z"/>
	<path class="st1" d="M332.9,415.8H360v27.1c0,3.9,3.1,7,7,7s7-3.1,7-7v-27.1h27.1c3.9,0,7-3.1,7-7s-3.1-7-7-7H374v-27.1
		c0-3.9-3.1-7-7-7s-7,3.1-7,7v27.1h-27.1c-3.9,0-7,3.1-7,7S329.1,415.8,332.9,415.8z"/>
</g>
</svg>
