<?xml version="1.0" encoding="utf-8"?>
<!-- Generator: Adobe Illustrator 23.0.1, SVG Export Plug-In . SVG Version: 6.00 Build 0)  -->
<svg version="1.1" id="Capa_1" xmlns="http://www.w3.org/2000/svg" xmlns:xlink="http://www.w3.org/1999/xlink" x="0px" y="0px"
	 viewBox="0 0 512 512" style="enable-background:new 0 0 512 512;" xml:space="preserve">
<style type="text/css">
	.st0{fill:#FFC107;}
	.st1{fill:#FAFAFA;}
	.st2{fill:#416AB3;}
</style>
<path class="st0" d="M508.3,101.8c-3-3.6-7.6-5.8-12.3-5.8H107.5c-5,0-9.7,2.3-12.7,6.2c-3,4-4,9.1-2.8,13.9l51.2,191.4
	c1.9,7,8.2,11.9,15.5,11.9c0.3,0,0.5,0,0.8,0L464.8,304c7.4-0.4,13.6-5.8,14.9-13.1l32-176C512.6,110.2,511.3,105.4,508.3,101.8z"/>
<g>
	<path class="st1" d="M400,256c-8.8,0-16-7.2-16-16v-64c0-8.8,7.2-16,16-16s16,7.2,16,16v64C416,248.8,408.8,256,400,256z"/>
	<path class="st1" d="M304,256c-8.8,0-16-7.2-16-16v-64c0-8.8,7.2-16,16-16s16,7.2,16,16v64C320,248.8,312.8,256,304,256z"/>
	<path class="st1" d="M208,256c-8.8,0-16-7.2-16-16v-64c0-8.8,7.2-16,16-16s16,7.2,16,16v64C224,248.8,216.8,256,208,256z"/>
</g>
<g>
	<circle class="st2" cx="208" cy="464" r="48"/>
	<circle class="st2" cx="400" cy="464" r="48"/>
	<path class="st2" d="M432,384H176c-7.3,0-13.6-4.9-15.5-11.9L78.3,64H16C7.2,64,0,56.8,0,48s7.2-16,16-16h74.6
		c7.3,0,13.6,4.9,15.5,11.9L188.3,352H432c8.8,0,16,7.2,16,16S440.8,384,432,384z"/>
</g>
</svg>
