<?xml version="1.0" encoding="utf-8"?>
<!-- Generator: Adobe Illustrator 23.0.2, SVG Export Plug-In . SVG Version: 6.00 Build 0)  -->
<svg version="1.1" id="Layer_1" xmlns="http://www.w3.org/2000/svg" xmlns:xlink="http://www.w3.org/1999/xlink" x="0px" y="0px"
	 viewBox="0 0 665 507" style="enable-background:new 0 0 665 507;" xml:space="preserve">
<style type="text/css">
	.st0{fill:none;stroke:#FFFFFF;stroke-width:20;stroke-miterlimit:10;}
</style>
<path class="st0" d="M109,211c35.3,0,64-28.7,64-64s-28.7-64-64-64s-64,28.7-64,64S73.7,211,109,211z M557,210c35.3,0,64-28.7,64-64
	s-28.7-64-64-64s-64,28.7-64,64S521.7,210,557,210z M589,256h-64c-17.6,0-52.8,32.3-64.4,43.8c40.3,22.1,58.2,36.8,64.4,84.2h96
	c17.7,0,32-14.3,32-32v-32C653,284.7,624.3,256,589,256z M333,246c61.9,0,112-50.1,112-112S394.9,22,333,22S221,72.1,221,134
	S271.1,246,333,246z M409.8,288h-8.3c-20.8,10-43.9,16-68.5,16s-47.6-6-68.5-16h-8.3C192.6,288,141,339.6,141,403.2V432
	c0,26.5,21.5,48,48,48h288c26.5,0,48-21.5,48-48v-28.8C525,339.6,473.4,288,409.8,288z M215.7,295.3C204.1,283.8,158.6,256,141,256
	H77c-35.3,0-64,28.7-64,64v32c0,17.7,14.3,32,32,32h97.6C148.9,336.6,175.4,317.4,215.7,295.3L215.7,295.3z"/>
</svg>
