<?xml version="1.0" encoding="utf-8"?>
<!-- Generator: Adobe Illustrator 23.0.2, SVG Export Plug-In . SVG Version: 6.00 Build 0)  -->
<svg version="1.1" id="Capa_1" xmlns="http://www.w3.org/2000/svg" xmlns:xlink="http://www.w3.org/1999/xlink" x="0px" y="0px"
	 viewBox="0 0 511.6 511.6" style="enable-background:new 0 0 511.6 511.6;" xml:space="preserve">
<style type="text/css">
	.st0{opacity:0.6;}
	.st1{fill:#FFFFFF;}
</style>
<g class="st0">
	<path class="st1" d="M431.9,24c2.2,0,4-1.8,4-4c0-2.2-1.8-4-4-4h-0.1c-2.2,0-4,1.8-4,4C427.9,22.2,429.7,24,431.9,24z"/>
	<path class="st1" d="M431.9,495.6c2.2,0,4-1.8,4-4c0-2.2-1.8-4-4-4h-0.1c-2.2,0-4,1.8-4,4C427.9,493.9,429.7,495.6,431.9,495.6z"/>
	<path class="st1" d="M80.2,495.6c2.2,0,4-1.8,4-4c0-2.2-1.8-4-4-4h-0.1c-2.2,0-4,1.8-4,4C76.1,493.9,78,495.6,80.2,495.6z"/>
	<path class="st1" d="M80.2,24c2.2,0,4-1.8,4-4c0-2.2-1.8-4-4-4h-0.1c-2.2,0-4,1.8-4,4C76.1,22.2,78,24,80.2,24z"/>
	<path class="st1" d="M192.1,360.8L192.1,360.8c-2.3,0-4,1.8-4,4c0,2.2,1.8,4,4,4c2.2,0,4-1.8,4-4
		C196.1,362.6,194.3,360.8,192.1,360.8z"/>
	<path class="st1" d="M208.1,376.8L208.1,376.8c-2.3,0-4,1.8-4,4c0,2.2,1.8,4,4,4c2.2,0,4-1.8,4-4
		C212.1,378.6,210.3,376.8,208.1,376.8z"/>
	<path class="st1" d="M224.1,392.8L224.1,392.8c-2.3,0-4,1.8-4,4c0,2.2,1.8,4,4,4c2.2,0,4-1.8,4-4
		C228.1,394.5,226.3,392.8,224.1,392.8z"/>
	<path class="st1" d="M240.1,408.7L240.1,408.7c-2.3,0-4,1.8-4,4s1.8,4,4,4c2.2,0,4-1.8,4-4S242.3,408.7,240.1,408.7z"/>
	<path class="st1" d="M240.1,376.8L240.1,376.8c-2.3,0-4,1.8-4,4c0,2.2,1.8,4,4,4c2.2,0,4-1.8,4-4
		C244.1,378.6,242.3,376.8,240.1,376.8z"/>
	<path class="st1" d="M256.1,392.8L256.1,392.8c-2.3,0-4,1.8-4,4c0,2.2,1.8,4,4,4c2.2,0,4-1.8,4-4
		C260.1,394.5,258.3,392.8,256.1,392.8z"/>
	<path class="st1" d="M272,408.7L272,408.7c-2.3,0-4,1.8-4,4s1.8,4,4,4c2.2,0,4-1.8,4-4S274.3,408.7,272,408.7z"/>
	<path class="st1" d="M272,376.8L272,376.8c-2.3,0-4,1.8-4,4c0,2.2,1.8,4,4,4c2.2,0,4-1.8,4-4C276,378.6,274.3,376.8,272,376.8z"/>
	<path class="st1" d="M288,392.8L288,392.8c-2.3,0-4,1.8-4,4c0,2.2,1.8,4,4,4c2.2,0,4-1.8,4-4C292,394.5,290.2,392.8,288,392.8z"/>
	<path class="st1" d="M304,384.8c2.2,0,4-1.8,4-4c0-2.2-1.8-4-4-4h-0.1c-2.2,0-4,1.8-4,4C300,383,301.8,384.8,304,384.8z"/>
	<path class="st1" d="M320,368.8c2.2,0,4-1.8,4-4c0-2.2-1.8-4-4-4h-0.1c-2.2,0-4,1.8-4,4C316,367,317.8,368.8,320,368.8z"/>
	<path class="st1" d="M175.3,340.1c2.1-0.6,3.4-2.7,2.8-4.9c-2-7.8-3.1-15.6-3.1-23.3c0-2.2-1.8-4-4-4s-4,1.8-4,4
		c0,8.3,1.1,16.8,3.4,25.3c0.5,1.8,2.1,3,3.9,3C174.6,340.2,174.9,340.2,175.3,340.1z"/>
	<path class="st1" d="M340.9,308c-2.2,0-4,1.8-4,4c0,7.6-1,15.4-3.1,23.2c-0.6,2.1,0.7,4.3,2.9,4.9c0.3,0.1,0.7,0.1,1,0.1
		c1.8,0,3.4-1.2,3.9-3c2.2-8.5,3.4-17,3.4-25.3C344.9,309.7,343.1,308,340.9,308z"/>
	<path class="st1" d="M344.1,264.9c-2.2-0.2-4.1,1.5-4.3,3.7c-0.2,2.2,1.5,4.1,3.7,4.3c18.9,1.5,34.7,5.4,41.1,8.9
		c-23.4,3.2-40.9,7.9-56.5,12c-22.4,5.9-41.7,11.1-72.1,11.1c0,0,0,0-0.1,0c0,0,0,0-0.1,0c-30.4,0-49.7-5.1-72.1-11.1
		c-15.6-4.1-33.1-8.8-56.5-12c6.5-3.5,22.2-7.4,41.1-8.9c1.9-0.2,3.3-1.6,3.6-3.3c0.2,1.3,1.1,2.5,2.4,3
		c1.6,0.7,39.9,16.3,81.5,16.3c0,0,0,0,0,0c0,0,0,0,0,0s0,0,0,0c0,0,0,0,0,0c41.6,0,79.9-15.6,81.5-16.3c1.7-0.7,2.7-2.5,2.4-4.3
		c-3-20.3-11.7-67.4-27.9-67.4c-13.7,0-48.4,12.8-56,15.7c-7.6-2.9-42.2-15.7-56-15.7c-16.2,0-24.9,47-27.9,67.3
		c-0.3-2-2.1-3.5-4.2-3.3c-15.5,1.2-51.6,5.7-51.6,20c0,2,1.5,3.7,3.5,4c26.3,3.2,44.5,8,62.1,12.7c22,5.8,42.7,11.3,74.1,11.3
		c0,0,0,0,0.1,0c0,0,0,0,0.1,0c31.4,0,52.2-5.5,74.1-11.3c17.6-4.7,35.9-9.5,62.1-12.7c2-0.2,3.5-1.9,3.5-4
		C395.7,270.5,359.6,266.1,344.1,264.9z M199.9,208.9c11.3,0,43.2,11.3,54.5,15.7c0.1,0,0.1,0,0.2,0.1c0.2,0,0.3,0.1,0.5,0.1
		c0.1,0,0.2,0,0.4,0c0.1,0,0.3,0,0.4,0c0.1,0,0.3,0,0.4,0c0.1,0,0.2,0,0.4,0c0.2,0,0.3-0.1,0.5-0.1c0.1,0,0.1,0,0.2-0.1
		c11.3-4.4,43.2-15.7,54.5-15.7c5.7,0,14.7,26.5,19.5,57.4c-9.7,3.6-41.9,14.6-75.5,14.6c-33.6,0-65.8-11-75.5-14.6
		C185.2,235.3,194.1,208.9,199.9,208.9z"/>
	<path class="st1" d="M339.6,347.8c0,0,0-0.1,0-0.1c0-0.1-0.1-0.2-0.1-0.3c0-0.1-0.1-0.2-0.1-0.3c-0.1-0.1-0.1-0.2-0.2-0.3
		c-0.1-0.1-0.1-0.2-0.2-0.3c-0.1-0.1-0.1-0.1-0.2-0.2c-0.1-0.1-0.2-0.3-0.4-0.4c0,0-0.1,0-0.1-0.1c-0.5-0.4-1.1-0.7-1.8-0.9
		c-0.7-0.1-1.3-0.1-1.9,0.1c-3.3,0.9-58.1,15.8-78.6,15.8c0,0,0,0,0,0c-25.8,0-78.4-15.7-78.9-15.8c0,0-0.1,0-0.1,0
		c-0.1,0-0.3-0.1-0.4-0.1c-0.2,0-0.3,0-0.5-0.1c-0.1,0-0.1,0-0.2,0c-0.2,0-0.4,0-0.7,0.1c0,0,0,0,0,0c0,0,0,0,0,0
		c-0.2,0-0.5,0.1-0.7,0.2c0,0-0.1,0-0.1,0.1c-0.2,0.1-0.4,0.2-0.5,0.3c-0.1,0-0.1,0.1-0.2,0.1c-0.1,0.1-0.3,0.2-0.4,0.3
		c-0.1,0.1-0.1,0.1-0.2,0.2c-0.1,0.1-0.2,0.2-0.3,0.4c-0.1,0.1-0.1,0.2-0.2,0.3c-0.1,0.1-0.1,0.2-0.2,0.3c-0.1,0.1-0.1,0.3-0.2,0.4
		c0,0.1-0.1,0.1-0.1,0.2c0,0,0,0.1,0,0.1c0,0.2-0.1,0.3-0.1,0.5c0,0.1,0,0.2,0,0.3c0,0.1,0,0.3,0,0.4c0,0.1,0,0.3,0,0.4
		c0,0,0,0.1,0,0.1c0.4,2.3,10.9,56.4,82.3,90.8c0,0,0,0,0,0c0.2,0.1,0.5,0.2,0.8,0.3c0.1,0,0.1,0,0.2,0c0.3,0.1,0.5,0.1,0.8,0.1
		c0,0,0,0,0,0c0.3,0,0.5,0,0.8-0.1c0.1,0,0.1,0,0.2,0c0.3-0.1,0.5-0.2,0.8-0.3c0,0,0,0,0,0c71.4-34.5,81.6-88.6,82-90.8c0,0,0,0,0,0
		c0-0.2,0-0.4,0-0.6c0-0.1,0-0.1,0-0.2c0-0.2,0-0.3-0.1-0.5C339.7,348,339.7,347.9,339.6,347.8z M259.7,430.4c0.2-0.5,0.4-1,0.4-1.6
		c0-2.2-1.8-4-4-4H256c-2.2,0-4,1.8-4,4c0,0.6,0.2,1.2,0.4,1.8c-49.2-25.6-65.8-61.3-70.8-75.9c8.4,2.4,23.2,6.3,38.4,9.5
		c0,0.2-0.1,0.5-0.1,0.7c0,2.2,1.8,4,4,4c1.9,0,3.5-1.4,3.9-3.2c10.2,1.9,20.1,3.2,28,3.2c0,0,0,0,0,0c0,0,0,0,0,0
		c6.9,0,17.2-1.5,28.1-3.6c0.2,2,1.9,3.6,4,3.6c2.2,0,4-1.8,4-4c0-0.4-0.1-0.8-0.2-1.2c14.9-3.1,29.9-6.9,38.2-9.1
		C325.3,368.8,309,404.6,259.7,430.4z"/>
	<path class="st1" d="M447.7,0H64c-2.2,0-4,1.8-4,4v503.6c0,2.2,1.8,4,4,4h383.7c2.2,0,4-1.8,4-4V4C451.7,1.8,449.9,0,447.7,0z
		 M443.7,503.6H68V8h375.7V503.6z"/>
	<path class="st1" d="M124,135.8C124,135.8,124,135.8,124,135.8c0,0.1,0.1,0.2,0.1,0.3c0,0.1,0.1,0.3,0.1,0.4c0,0.1,0.1,0.2,0.1,0.3
		c0.1,0.1,0.1,0.3,0.2,0.4c0.1,0.1,0.1,0.2,0.2,0.2c0.1,0.1,0.2,0.2,0.3,0.3c0.1,0.1,0.2,0.1,0.2,0.2c0.1,0.1,0.2,0.2,0.3,0.2
		c0.1,0.1,0.2,0.1,0.3,0.2c0.1,0.1,0.3,0.1,0.4,0.2c0.1,0,0.2,0.1,0.3,0.1c0.2,0.1,0.5,0.2,0.7,0.2c0,0,0,0,0,0
		c0.2,0,0.4,0.1,0.7,0.1c0.3,0,0.5,0,0.8-0.1c0,0,0.1,0,0.1,0c0.1,0,0.1-0.1,0.2-0.1c0.1,0,0.3-0.1,0.4-0.1c0.1,0,0.2-0.1,0.3-0.1
		c0.1-0.1,0.2-0.1,0.3-0.2c0.1-0.1,0.2-0.1,0.3-0.2c0.1-0.1,0.2-0.2,0.3-0.3c0.1-0.1,0.1-0.1,0.2-0.2c0.1-0.1,0.2-0.2,0.3-0.4
		c0-0.1,0.1-0.1,0.1-0.2c0.1-0.1,0.2-0.3,0.2-0.4c0-0.1,0.1-0.2,0.1-0.2c0-0.1,0.1-0.3,0.1-0.4c0-0.1,0.1-0.2,0.1-0.3c0,0,0,0,0,0
		l8-48.3l8,48.3c0,0,0,0,0,0c0,0.1,0.1,0.2,0.1,0.3c0,0.1,0.1,0.3,0.1,0.4c0,0.1,0.1,0.2,0.1,0.2c0.1,0.2,0.1,0.3,0.2,0.4
		c0,0.1,0.1,0.1,0.1,0.2c0.1,0.1,0.2,0.3,0.3,0.4c0.1,0.1,0.1,0.1,0.2,0.2c0.1,0.1,0.2,0.2,0.3,0.3c0.1,0.1,0.2,0.1,0.3,0.2
		c0.1,0.1,0.2,0.1,0.3,0.2c0.1,0.1,0.2,0.1,0.3,0.1c0.1,0.1,0.3,0.1,0.4,0.1c0.1,0,0.1,0.1,0.2,0.1c0,0,0.1,0,0.1,0
		c0.3,0.1,0.5,0.1,0.8,0.1c0.2,0,0.4,0,0.7-0.1c0,0,0,0,0,0c0.2,0,0.5-0.1,0.7-0.2c0.1,0,0.2-0.1,0.2-0.1c0.1-0.1,0.3-0.1,0.4-0.2
		c0.1-0.1,0.2-0.1,0.3-0.2c0.1-0.1,0.2-0.2,0.3-0.2c0.1-0.1,0.2-0.1,0.2-0.2c0.1-0.1,0.2-0.2,0.3-0.3c0.1-0.1,0.1-0.2,0.2-0.2
		c0.1-0.1,0.2-0.2,0.2-0.4c0-0.1,0.1-0.2,0.1-0.3c0.1-0.1,0.1-0.3,0.1-0.4c0-0.1,0.1-0.2,0.1-0.3c0,0,0,0,0,0l16-71.9
		c0.5-2.2-0.9-4.3-3-4.8c-2.1-0.5-4.3,0.9-4.8,3L152.5,114l-8.6-51.7c0,0,0-0.1,0-0.1c0-0.2-0.1-0.3-0.1-0.4c0-0.1-0.1-0.2-0.1-0.3
		c-0.1-0.1-0.1-0.2-0.2-0.3c-0.1-0.1-0.1-0.2-0.2-0.4c-0.1-0.1-0.1-0.1-0.2-0.2c-0.1-0.1-0.2-0.3-0.3-0.4c0,0-0.1-0.1-0.1-0.1
		c-0.2-0.1-0.3-0.3-0.5-0.4c0,0,0,0,0,0c-0.4-0.3-0.9-0.5-1.4-0.5c0,0,0,0,0,0c0,0,0,0-0.1,0c-0.2,0-0.4,0-0.6,0c-1,0-2,0.4-2.7,1.1
		c0,0,0,0,0,0c-0.2,0.1-0.3,0.3-0.4,0.5c0,0-0.1,0.1-0.1,0.1c-0.1,0.1-0.2,0.3-0.3,0.4c0,0.1-0.1,0.2-0.1,0.3
		c-0.1,0.1-0.1,0.2-0.1,0.4c0,0.1-0.1,0.3-0.1,0.4c0,0,0,0.1,0,0.1l-8.6,51.7l-11.5-51.9c-0.5-2.2-2.6-3.5-4.8-3
		c-2.2,0.5-3.5,2.6-3,4.8L124,135.8z"/>
	<path class="st1" d="M174.8,138.8c0.4,0.1,0.7,0.1,1.1,0.1c1.7,0,3.4-1.2,3.9-2.9l5.8-21.1h20.6L212,136c0.5,1.8,2.1,2.9,3.9,2.9
		c0.4,0,0.7,0,1.1-0.1c2.1-0.6,3.4-2.8,2.8-4.9l-20-71.9c0,0,0-0.1,0-0.1c0-0.1-0.1-0.2-0.1-0.4c-0.1-0.1-0.1-0.3-0.2-0.4
		c-0.1-0.1-0.1-0.2-0.2-0.3c-0.1-0.1-0.1-0.2-0.2-0.3c-0.1-0.1-0.2-0.2-0.3-0.3c-0.1-0.1-0.2-0.2-0.2-0.2c-0.1-0.1-0.3-0.2-0.4-0.3
		c-0.1,0-0.1-0.1-0.2-0.1c-0.1-0.1-0.3-0.1-0.5-0.2c-0.1,0-0.2-0.1-0.3-0.1c0,0-0.1,0-0.1-0.1c-0.1,0-0.2,0-0.3-0.1
		c-0.1,0-0.2,0-0.3-0.1c-0.1,0-0.3,0-0.4,0c-0.1,0-0.3,0-0.4,0c-0.1,0-0.2,0-0.3,0.1c-0.1,0-0.2,0-0.3,0.1c0,0-0.1,0-0.1,0.1
		c-0.1,0-0.2,0.1-0.3,0.1c-0.2,0.1-0.3,0.1-0.5,0.2c-0.1,0-0.2,0.1-0.2,0.1c-0.1,0.1-0.3,0.2-0.4,0.3c-0.1,0.1-0.2,0.2-0.2,0.2
		c-0.1,0.1-0.2,0.2-0.3,0.3c-0.1,0.1-0.2,0.2-0.2,0.3c-0.1,0.1-0.1,0.2-0.2,0.3c-0.1,0.1-0.1,0.2-0.2,0.4c0,0.1-0.1,0.2-0.1,0.4
		c0,0,0,0.1,0,0.1l-20,71.9C171.4,136,172.7,138.2,174.8,138.8z M195.9,77.9l8.1,29h-16.1L195.9,77.9z"/>
	<path class="st1" d="M231.8,138.9c2.2,0,4-1.8,4-4V81.8l24.3,54.7c0,0,0,0,0,0l0,0.1c0.1,0.2,0.2,0.4,0.3,0.6c0,0,0.1,0.1,0.1,0.1
		c0.1,0.2,0.2,0.3,0.4,0.4c0,0,0.1,0.1,0.1,0.1c0.1,0.1,0.3,0.2,0.4,0.3c0,0,0.1,0.1,0.1,0.1c0.2,0.1,0.4,0.2,0.6,0.3
		c0.1,0,0.1,0,0.2,0.1c0.2,0.1,0.3,0.1,0.5,0.2c0.1,0,0.1,0,0.2,0c0.2,0,0.5,0.1,0.7,0.1c0,0,0,0,0,0h0c0,0,0,0,0,0
		c0.3,0,0.5,0,0.8-0.1c0,0,0,0,0.1,0c0.2-0.1,0.5-0.1,0.7-0.2c0,0,0,0,0,0c0.1,0,0.2-0.1,0.3-0.1c0.1-0.1,0.3-0.1,0.4-0.2
		c0.1-0.1,0.2-0.2,0.3-0.2c0.1-0.1,0.2-0.2,0.3-0.3c0.1-0.1,0.2-0.2,0.3-0.3c0.1-0.1,0.2-0.2,0.2-0.3c0.1-0.1,0.1-0.2,0.2-0.3
		c0.1-0.1,0.1-0.2,0.2-0.3c0.1-0.1,0.1-0.3,0.1-0.4c0-0.1,0.1-0.2,0.1-0.3c0-0.2,0-0.4,0.1-0.6c0-0.1,0-0.1,0-0.2v0c0,0,0,0,0,0V63
		c0-2.2-1.8-4-4-4c-2.2,0-4,1.8-4,4v53.1l-24.3-54.7c0-0.1-0.1-0.1-0.1-0.2c-0.1-0.2-0.2-0.3-0.3-0.5c-0.1-0.1-0.1-0.1-0.2-0.2
		c-0.1-0.1-0.2-0.3-0.3-0.4c-0.1-0.1-0.2-0.1-0.2-0.2c-0.1-0.1-0.2-0.2-0.4-0.3c-0.1-0.1-0.2-0.1-0.3-0.2c-0.1-0.1-0.2-0.1-0.4-0.2
		c-0.1-0.1-0.3-0.1-0.4-0.1c-0.1,0-0.2-0.1-0.3-0.1c-0.2,0-0.4-0.1-0.7-0.1c0,0-0.1,0-0.1,0c0,0,0,0,0,0c-0.2,0-0.5,0-0.7,0.1
		c0,0-0.1,0-0.1,0c-0.1,0-0.2,0.1-0.4,0.1c-0.1,0-0.3,0.1-0.4,0.1c0,0,0,0,0,0c-0.1,0-0.1,0.1-0.2,0.1c-0.2,0.1-0.3,0.2-0.5,0.3
		c-0.1,0.1-0.2,0.1-0.2,0.2c-0.1,0.1-0.3,0.2-0.4,0.3c-0.1,0.1-0.1,0.1-0.2,0.2c-0.1,0.1-0.2,0.2-0.3,0.4c0,0.1-0.1,0.1-0.1,0.2
		c-0.1,0.2-0.2,0.3-0.2,0.5c0,0.1,0,0.2-0.1,0.2c-0.1,0.2-0.1,0.3-0.1,0.5c0,0.1,0,0.2,0,0.3c0,0.1,0,0.3,0,0.4v71.9
		C227.8,137.1,229.6,138.9,231.8,138.9z"/>
	<path class="st1" d="M279.8,67h12v68c0,2.2,1.8,4,4,4c2.2,0,4-1.8,4-4V67h12c2.2,0,4-1.8,4-4c0-2.2-1.8-4-4-4h-32c-2.2,0-4,1.8-4,4
		C275.8,65.2,277.6,67,279.8,67z"/>
	<path class="st1" d="M327.8,138.9C327.8,138.9,327.8,138.9,327.8,138.9C327.8,138.9,327.8,138.9,327.8,138.9h24c2.2,0,4-1.8,4-4
		c0-2.2-1.8-4-4-4h-20v-28h12c2.2,0,4-1.8,4-4c0-2.2-1.8-4-4-4h-12V67h20c2.2,0,4-1.8,4-4c0-2.2-1.8-4-4-4h-24c0,0,0,0,0,0s0,0,0,0
		c-2.2,0-4,1.8-4,4v71.9C323.8,137.1,325.6,138.9,327.8,138.9z"/>
	<path class="st1" d="M367.7,138.9C367.8,138.9,367.8,138.9,367.7,138.9l12,0c11,0,20-9,20-20V79c0,0,0,0,0,0c0-11-9-20-20-20
		c0,0,0,0,0,0h-12c-2.2,0-4,1.8-4,4v71.9C363.7,137.1,365.5,138.9,367.7,138.9z M371.7,67h8c0,0,0,0,0,0c6.6,0,12,5.4,12,12
		c0,0,0,0,0,0v40c0,6.6-5.4,12-12,12h-8V67z"/>
	<path class="st1" d="M111.9,146.9c-2.2,0-4,1.8-4,4c0,2.2,1.8,4,4,4h287.8c2.2,0,4-1.8,4-4c0-2.2-1.8-4-4-4H111.9z"/>
</g>
</svg>
