<?xml version="1.0" encoding="utf-8"?>
<!-- Generator: Adobe Illustrator 23.0.2, SVG Export Plug-In . SVG Version: 6.00 Build 0)  -->
<svg version="1.1" id="Layer_1" xmlns="http://www.w3.org/2000/svg" xmlns:xlink="http://www.w3.org/1999/xlink" x="0px" y="0px"
	 viewBox="0 0 766 530" style="enable-background:new 0 0 766 530;" xml:space="preserve">
<style type="text/css">
	.st0{fill:none;stroke:#FFFFFF;stroke-width:15;stroke-miterlimit:10;}
	.st1{fill:none;stroke:#FFFFFF;stroke-width:20;stroke-miterlimit:10;}
</style>
<path class="st0" d="M729.1,70H506.8c-8.7,0-15.9,9-15.9,19.9v39.8c0,11,7.1,19.9,15.9,19.9h222.3c8.7,0,15.9-9,15.9-19.9V89.9
	C745,79,737.9,70,729.1,70z"/>
<path class="st0" d="M729.3,225.9H509.5c-8.6,0-15.7,8.9-15.7,19.7V285c0,10.8,7.1,19.7,15.7,19.7h219.8c8.6,0,15.7-8.9,15.7-19.7
	v-39.4C745,234.8,737.9,225.9,729.3,225.9z"/>
<path class="st0" d="M729.3,381.1H509.5c-8.6,0-15.7,8.9-15.7,19.7v39.4c0,10.8,7.1,19.7,15.7,19.7h219.8c8.6,0,15.7-8.9,15.7-19.7
	v-39.4C745,390,737.9,381.1,729.3,381.1z"/>
<path class="st1" d="M210,15.8c-76.2,0-138,61.8-138,138s61.8,138,138,138s138-61.8,138-138S286.2,15.8,210,15.8z"/>
<path class="st1" d="M357,512.8h26.7c7.3,0,13.3-6.8,13.3-15.2v-43.9c0-26.4-7-50.9-19-71.3c-20.5-34.2-54.9-52.1-90.1-52.1l0,0
	c-32.5,0-40.7,13.3-78.1,13.3s-45.5-13.3-78.1-13.3c-35.4,0-69.7,17.9-89.7,52.1c-12,20.4-19,44.9-19,71.3v43.9
	c0,8.4,6,15.2,13.3,15.2H63"/>
</svg>
