<?xml version="1.0" encoding="utf-8"?>
<!-- Generator: Adobe Illustrator 23.0.2, SVG Export Plug-In . SVG Version: 6.00 Build 0)  -->
<svg version="1.1" id="Layer_1" xmlns="http://www.w3.org/2000/svg" xmlns:xlink="http://www.w3.org/1999/xlink" x="0px" y="0px"
	 viewBox="0 0 480 512" style="enable-background:new 0 0 480 512;" xml:space="preserve">
<style type="text/css">
	.st0{fill:#FFFFFF;}
</style>
<path class="st0" d="M129.8,217.3L41.2,348.1c-2.6,4.2,0.1,9.7,4.9,10.2l174.7,18.5L129.8,217.3L129.8,217.3z M46.4,301.5
	l63.2-102.6l-64.3-38.6c-2.2-1.3-5.1,0.3-5.1,2.9v136.6C40.2,303.1,44.7,304.4,46.4,301.5z M55.5,392.2l163.1,73.5
	c4.5,2.1,9.5-1.2,9.5-6.1v-55.1L57.3,385.9C53.6,385.5,52.1,390.6,55.5,392.2L55.5,392.2z M123.6,176l67-119.9c3.6-6-3-12.8-9-9.3
	L55.1,129.4c-2.1,1.4-2.1,4.4,0.1,5.7L123.6,176L123.6,176z M241.5,184.5h91.6L253,43.3c-2.6-4.3-7-6.4-11.5-6.4s-8.8,2.1-11.5,6.4
	l-80.2,141.2H241.5z M437.7,160.3l-64.3,38.6l63.2,102.6c1.8,2.9,6.2,1.6,6.2-1.8V163.2C442.8,160.6,440,159,437.7,160.3z
	 M359.4,176l68.4-40.8c2.1-1.3,2.1-4.3,0.1-5.7L301.4,46.8c-6.1-3.4-12.7,3.4-9,9.3L359.4,176z M425.7,385.9l-170.8,18.7v55.1
	c0,4.9,5,8.1,9.5,6.1l163.1-73.5C430.9,390.6,429.4,385.5,425.7,385.9L425.7,385.9z M353.3,217.3l-91.2,159.5l174.7-18.5
	c4.8-0.6,7.5-6,4.9-10.2L353.3,217.3L353.3,217.3z M241.5,211.4h-84.3l84.3,147.5l84.3-147.5H241.5z"/>
</svg>
