<svg height="511pt" viewBox="-56 0 511 511.9996" width="511pt" xmlns="http://www.w3.org/2000/svg"><path d="m389.039062 241.066406c-14.679687-44.445312-39.441406-77.546875-61.320312-106.785156-27.625-36.914062-49.433594-66.074219-49.433594-108.988281 0-9.507813-5.28125-18.121094-13.761718-22.46875-8.5-4.363281-18.582032-3.632813-26.3125 1.917969-11.9375 8.480468-23.378907 18.410156-34.070313 29.382812-32.601563 33.449219-58.113281 76.625-68.753906 118.335938-7.191407 28.261718-9.691407 58.402343-10.589844 82.914062-14.070313-14.300781-20.832031-38.992188-22.441406-49.53125-1.160157-7.941406-6.089844-14.933594-13.191407-18.703125l-.121093-.058594c-7.148438-3.710937-15.679688-3.839843-22.828125-.351562-3.113282 1.511719-18.742188 9.863281-34.125 32.132812-19.609375 28.421875-30.238282 66.464844-31.578125 113.054688l-.011719.429687c0 79.554688 47.03125 148.398438 114.894531 180.472656 14.140625 6.6875 29.191407 11.769532 44.902344 15.019532 13.082031 2.710937 29.222656 4.101562 43.082031 4.140625.222656.007812.472656.019531.75.019531h.011719c.21875 0 .46875-.011719.761719-.019531 15.480468-.070313 27.890625-1.519531 42.25-4.390625 16.550781-3.300782 32.230468-8.441406 46.804687-15.3125 10.46875-4.9375 20.359375-10.769532 29.570313-17.480469 17.601562-12.808594 32.519531-28.679687 44.421875-47.089844 11.902343-18.421875 20.78125-39.382812 26.300781-62.375 9.882812-41.082031 8.082031-84.054687-5.210938-124.265625zm0 0" fill="#fede81"/><path d="m394.25 365.332031c-5.519531 22.992188-14.398438 43.953125-26.300781 62.375-11.902344 18.410157-26.820313 34.28125-44.421875 47.089844-9.210938 6.710937-19.101563 12.542969-29.570313 17.480469-14.574219 6.871094-30.253906 12.011718-46.804687 15.3125-14.359375 2.871094-26.769532 4.320312-42.25 4.390625-.292969.007812-.542969.019531-.761719.019531v-477.875c10.691406-10.972656 22.132813-20.902344 34.070313-29.382812 7.730468-5.550782 17.8125-6.28125 26.3125-1.917969 8.480468 4.347656 13.761718 12.960937 13.761718 22.46875 0 42.914062 21.808594 72.074219 49.433594 108.988281 21.878906 29.238281 46.640625 62.339844 61.320312 106.785156 13.292969 40.210938 15.09375 83.183594 5.210938 124.265625zm0 0" fill="#feaf45"/><path d="m302.035156 423.90625c0 15.429688 0 36.160156-8.078125 68.371094-27.214843 12.84375-55.734375 19.550781-89.054687 19.703125-.292969.007812-.542969.019531-.761719.019531h-.011719c-.277344 0-.527344-.011719-.75-.019531-30.53125-.082031-62.070312-6.910157-87.984375-19.160157-9.148437-30.242187-9.148437-52.523437-9.148437-68.914062 0-34.8125 9.570312-67.734375 26.972656-92.695312 18.539062-26.613282 43.730469-41.261719 70.921875-41.261719s52.371094 14.648437 70.921875 41.261719c17.394531 24.960937 26.972656 57.882812 26.972656 92.695312zm0 0" fill="#feaf45"/><path d="m302.035156 423.90625c0 15.429688 0 36.160156-8.078125 68.371094-27.214843 12.84375-55.734375 19.550781-89.054687 19.703125-.292969.007812-.542969.019531-.761719.019531v-222.050781c27.191406 0 52.371094 14.648437 70.921875 41.261719 17.394531 24.960937 26.972656 57.882812 26.972656 92.695312zm0 0" fill="#fa6f2c"/><path d="m254.984375 468.558594c0 7.460937 0 18.378906-7.832031 39.03125-14.359375 2.871094-26.769532 4.320312-42.25 4.390625-.292969.007812-.542969.019531-.761719.019531h-.011719c-.277344 0-.527344-.011719-.75-.019531-13.859375-.039063-30-1.429688-43.082031-4.140625-6.257813-19.671875-7.007813-30.273438-7.007813-39.28125 0-37.261719 22.339844-66.445313 50.851563-66.445313s50.84375 29.183594 50.84375 66.445313zm0 0" fill="#ff6464"/><path d="m254.984375 468.558594c0 7.460937 0 18.378906-7.832031 39.03125-14.359375 2.871094-26.769532 4.320312-42.25 4.390625-.292969.007812-.542969.019531-.761719.019531v-109.886719c28.511719 0 50.84375 29.183594 50.84375 66.445313zm0 0" fill="#f72828"/></svg>