<?xml version="1.0" encoding="utf-8"?>
<!-- Generator: Adobe Illustrator 23.0.2, SVG Export Plug-In . SVG Version: 6.00 Build 0)  -->
<svg version="1.1" id="Capa_1" xmlns="http://www.w3.org/2000/svg" xmlns:xlink="http://www.w3.org/1999/xlink" x="0px" y="0px"
	 viewBox="0 0 60 60" style="enable-background:new 0 0 60 60;" xml:space="preserve">
<g>
	<path d="M34.7,36.5l9.4-12.9c0.3-0.4,0.2-0.9-0.1-1.3c-0.3-0.3-0.9-0.4-1.3-0.1l-12.9,9.4c-0.8,0.6-1.4,1.6-1.5,2.6s0.3,2.1,1,2.8
		c0.7,0.7,1.6,1,2.5,1C33,38,34.1,37.5,34.7,36.5z"/>
	<path d="M54.5,19.6C54.5,19.5,54.5,19.5,54.5,19.6c0-0.1-0.1-0.1-0.1-0.1c-1-1.7-2.2-3.3-3.6-4.8l2.1-2.1l1.4,1.4l4.2-4.2l-4.2-4.2
		l-4.2,4.2l1.4,1.4l-2.1,2.1c-1.5-1.4-3.1-2.6-4.8-3.6c0,0,0,0,0,0c0,0,0,0-0.1,0c-3.1-1.8-6.6-3-10.3-3.4V5h1.5
		c1.4,0,2.5-1.1,2.5-2.5S37.2,0,35.8,0h-9c-1.4,0-2.5,1.1-2.5,2.5S25.4,5,26.8,5h1.5v1.2c-1.1,0.1-2.2,0.3-3.2,0.5
		c-0.5,0.1-0.9,0.7-0.8,1.2c0.1,0.5,0.7,0.9,1.2,0.8c0.9-0.2,1.9-0.4,2.9-0.5l1-0.1c0.3,0,0.6,0,0.9-0.1l0,0v2c0,0.6,0.4,1,1,1
		s1-0.4,1-1V8c3.8,0.2,7.3,1.2,10.5,2.8l-1,1.7c-0.3,0.5-0.1,1.1,0.4,1.4c0.2,0.1,0.3,0.1,0.5,0.1c0.3,0,0.7-0.2,0.9-0.5l1-1.7
		c3.1,2,5.8,4.6,7.8,7.8l-1.7,1c-0.5,0.3-0.6,0.9-0.4,1.4c0.2,0.3,0.5,0.5,0.9,0.5c0.2,0,0.3,0,0.5-0.1l1.7-1
		c1.7,3.2,2.7,6.8,2.8,10.6h-2c-0.6,0-1,0.4-1,1s0.4,1,1,1h2c-0.2,3.8-1.2,7.4-2.8,10.6l-1.7-1c-0.5-0.3-1.1-0.1-1.4,0.4
		c-0.3,0.5-0.1,1.1,0.4,1.4l1.7,1c-2,3.1-4.6,5.8-7.8,7.8l-1-1.7c-0.3-0.5-0.9-0.6-1.4-0.4c-0.5,0.3-0.6,0.9-0.4,1.4l1,1.7
		c-3.2,1.7-6.7,2.7-10.5,2.8v-2c0-0.6-0.4-1-1-1s-1,0.4-1,1v2c-1.6-0.1-3.2-0.3-4.8-0.6c-0.5-0.1-1.1,0.2-1.2,0.8
		c-0.1,0.5,0.2,1.1,0.8,1.2c2,0.5,4,0.7,6.1,0.7c0,0,0.1,0,0.1,0c0,0,0,0,0,0c0,0,0,0,0,0c4.8,0,9.3-1.3,13.2-3.6c0,0,0.1,0,0.1,0
		c0,0,0,0,0,0c4-2.4,7.4-5.7,9.8-9.8c0,0,0,0,0.1-0.1c0,0,0,0,0-0.1c2.3-4,3.6-8.5,3.6-13.4S56.8,23.5,54.5,19.6z"/>
	<path d="M22.3,13h-5c-1.1,0-2,0.9-2,2s0.9,2,2,2h5c1.1,0,2-0.9,2-2S23.4,13,22.3,13z"/>
	<path d="M22.3,20h-10c-1.1,0-2,0.9-2,2s0.9,2,2,2h10c1.1,0,2-0.9,2-2S23.4,20,22.3,20z"/>
	<path d="M22.3,27h-15c-1.1,0-2,0.9-2,2s0.9,2,2,2h15c1.1,0,2-0.9,2-2S23.4,27,22.3,27z"/>
	<path d="M22.3,34h-19c-1.1,0-2,0.9-2,2s0.9,2,2,2h19c1.1,0,2-0.9,2-2S23.4,34,22.3,34z"/>
	<path d="M22.3,41h-13c-1.1,0-2,0.9-2,2s0.9,2,2,2h13c1.1,0,2-0.9,2-2S23.4,41,22.3,41z"/>
	<path d="M22.3,48h-7c-1.1,0-2,0.9-2,2s0.9,2,2,2h7c1.1,0,2-0.9,2-2S23.4,48,22.3,48z"/>
</g>
</svg>
