<?xml version="1.0" encoding="utf-8"?>
<!-- Generator: Adobe Illustrator 23.0.2, SVG Export Plug-In . SVG Version: 6.00 Build 0)  -->
<svg version="1.1" id="Layer_1" xmlns="http://www.w3.org/2000/svg" xmlns:xlink="http://www.w3.org/1999/xlink" x="0px" y="0px"
	 viewBox="0 0 510.2 512" style="enable-background:new 0 0 510.2 512;" xml:space="preserve">
<style type="text/css">
	.st0{fill:none;stroke:#FFFFFF;stroke-width:20;stroke-miterlimit:10;}
</style>
<path class="st0" d="M321.8,256l100.1-100.1c12.3-12.3,12.3-32.2,0-44.5l-22.2-22.2c-12.3-12.3-32.2-12.3-44.5,0L255.1,189.3
	L155,89.2c-12.3-12.3-32.2-12.3-44.5,0l-22.2,22.2c-12.3,12.3-12.3,32.2,0,44.5L188.4,256L88.3,356.1c-12.3,12.3-12.3,32.2,0,44.5
	l22.2,22.2c12.3,12.3,32.2,12.3,44.5,0l100.1-100.1l100.1,100.1c12.3,12.3,32.2,12.3,44.5,0l22.2-22.2c12.3-12.3,12.3-32.2,0-44.5
	L321.8,256z"/>
</svg>
