<?xml version="1.0" encoding="utf-8"?>
<!-- Generator: Adobe Illustrator 23.0.2, SVG Export Plug-In . SVG Version: 6.00 Build 0)  -->
<svg version="1.1" id="Layer_1" xmlns="http://www.w3.org/2000/svg" xmlns:xlink="http://www.w3.org/1999/xlink" x="0px" y="0px"
	 viewBox="0 0 16 16" style="enable-background:new 0 0 16 16;" xml:space="preserve">
<style type="text/css">
	.st0{fill:#FFFFFF;}
</style>
<title>no-results</title>
<path class="st0" d="M15.4,16c-0.1-0.1-0.2-0.1-0.3-0.2l-3.3-3.4c0-0.1-0.1-0.1-0.1-0.2c-1.6,1.4-3.7,2-5.8,1.6
	c-1.7-0.3-3.3-1.2-4.3-2.6c-2.4-3-1.8-7.4,1.2-9.8s7.4-1.8,9.8,1.2c2.1,2.7,2,6.4-0.3,9l0.2,0.1l3.4,3.4c0.2,0.2,0.3,0.5,0.1,0.7
	c-0.1,0.1-0.2,0.1-0.3,0.2l0,0L15.4,16z M13,7c0-3.3-2.7-6-6-6S1,3.7,1,7s2.7,6,6,6S13,10.3,13,7z"/>
<path class="st0" d="M6.3,7L6.2,6.9L3.7,4.4C3.6,4.3,3.6,4.2,3.5,4.1c-0.1-0.2,0-0.4,0.2-0.5C4,3.4,4.2,3.5,4.3,3.6
	C4.5,3.8,4.7,4,4.9,4.2L7,6.3l0.1-0.1l2.5-2.5c0.2-0.2,0.5-0.2,0.7,0c0.1,0.1,0.1,0.1,0.2,0.2c0,0.2,0,0.4-0.2,0.5L8,6.7
	C7.9,6.8,7.8,6.9,7.7,7l0.1,0.1l2.5,2.5c0.2,0.1,0.2,0.4,0.2,0.6c-0.1,0.3-0.4,0.4-0.6,0.3c-0.1,0-0.1,0-0.2-0.1
	c-0.1,0-0.1-0.1-0.1-0.1C8.7,9.4,7.9,8.6,7.1,7.8c0,0-0.1-0.1-0.1-0.1L6.9,7.8l-2.5,2.5c-0.1,0.2-0.4,0.2-0.6,0.2
	c-0.3-0.1-0.4-0.4-0.3-0.6c0-0.1,0.1-0.1,0.1-0.2c0-0.1,0.1-0.1,0.1-0.1L6.3,7z"/>
</svg>
