<?xml version="1.0" encoding="utf-8"?>
<!-- Generator: Adobe Illustrator 23.0.2, SVG Export Plug-In . SVG Version: 6.00 Build 0)  -->
<svg version="1.1" id="Capa_1" xmlns="http://www.w3.org/2000/svg" xmlns:xlink="http://www.w3.org/1999/xlink" x="0px" y="0px"
	 viewBox="0 0 402 402" style="enable-background:new 0 0 402 402;" xml:space="preserve">
<g>
	<path d="M321.5,171.8c-3.3-3.3-7.4-5-12.1-5h-74.2V92.6c0-4.8-1.7-8.8-5-12.1c-3.3-3.3-7.4-5-12.1-5h-34.2c-4.8,0-8.8,1.7-12.1,5
		s-5,7.4-5,12.1v74.2H92.6c-4.8,0-8.8,1.7-12.1,5c-3.3,3.3-5,7.4-5,12.1v34.2c0,4.8,1.7,8.8,5,12.1s7.4,5,12.1,5h74.2v74.2
		c0,4.8,1.7,8.8,5,12.1c3.3,3.3,7.4,5,12.1,5h34.2c4.8,0,8.8-1.7,12.1-5s5-7.4,5-12.1v-74.2h74.2c4.8,0,8.8-1.7,12.1-5
		c3.3-3.3,5-7.4,5-12.1v-34.2C326.5,179.1,324.8,175.1,321.5,171.8z"/>
</g>
</svg>
