<?xml version="1.0" encoding="utf-8"?>
<!-- Generator: Adobe Illustrator 23.0.2, SVG Export Plug-In . SVG Version: 6.00 Build 0)  -->
<svg version="1.1" id="Layer_1" xmlns="http://www.w3.org/2000/svg" xmlns:xlink="http://www.w3.org/1999/xlink" x="0px" y="0px"
	 viewBox="0 0 512 512" style="enable-background:new 0 0 512 512;" xml:space="preserve">
<style type="text/css">
	.st0{fill:none;stroke:#FFFFFF;stroke-width:20;stroke-miterlimit:10;}
</style>
<path class="st0" d="M256,271.6c63.6,0,115.2-51.6,115.2-115.2S319.6,41.2,256,41.2S140.8,92.8,140.8,156.4S192.4,271.6,256,271.6z
	 M358.4,307.2h-44.1c-17.8,8.2-37.5,12.8-58.3,12.8s-40.5-4.6-58.3-12.8h-44.1C97,307.2,51.2,353,51.2,409.6v12.8
	c0,21.2,17.2,38.4,38.4,38.4h332.8c21.2,0,38.4-17.2,38.4-38.4v-12.8C460.8,353,415,307.2,358.4,307.2z"/>
</svg>
