<svg xmlns="http://www.w3.org/2000/svg" viewBox="0 0 16 16"><title>register</title><path d="M15.07,9.25a.38.38,0,0,0-.39.39v3.51a1.19,1.19,0,0,1-1.18,1.19h-11a1.19,1.19,0,0,1-1.18-1.19V2.85A1.19,1.19,0,0,1,2.47,1.66H6a.39.39,0,0,0,.39-.39A.4.4,0,0,0,6,.87H2.47a2,2,0,0,0-2,2v10.3a2,2,0,0,0,2,2h11a2,2,0,0,0,2-2V9.64A.38.38,0,0,0,15.07,9.25Z"/><path d="M4.65,9.17l5.74-5.78,1.85,1.87L6.5,11Z"/><path d="M3.71,12l2.05-.57L4.28,9.91Z"/><path d="M12.75,2.42a1,1,0,0,0-1.39,0l-.42.41L12.8,4.7l.41-.42a1,1,0,0,0,0-1.4Z"/></svg>