<?xml version="1.0" encoding="utf-8"?>
<!-- Generator: Adobe Illustrator 23.0.2, SVG Export Plug-In . SVG Version: 6.00 Build 0)  -->
<svg version="1.1" id="Layer_1" xmlns="http://www.w3.org/2000/svg" xmlns:xlink="http://www.w3.org/1999/xlink" x="0px" y="0px"
	 viewBox="0 0 539 512" style="enable-background:new 0 0 539 512;" xml:space="preserve">
<style type="text/css">
	.st0{fill:none;stroke:#FFFFFF;stroke-width:20;stroke-miterlimit:10;}
</style>
<path class="st0" d="M509,384H77V80c0-8.8-7.2-16-16-16H29c-8.8,0-16,7.2-16,16v336c0,17.7,14.3,32,32,32h464c8.8,0,16-7.2,16-16
	v-32C525,391.2,517.8,384,509,384z"/>
<path class="st0" d="M466,108H362.4c-18.8,0-28.2,22.6-14.9,36l28.4,28.4l-64.3,64.3l-64.4-64.4c-11-11-28.8-11-39.7,0l-60.3,60.3
	c-5.5,5.5-5.5,14.4,0,19.8l19.8,19.8c5.4,5.5,14.4,5.5,19.8,0l40.4-40.4l64.4,64.4c11,11,28.8,11,39.7,0l84.2-84.2l28.4,28.5
	c13.2,13.2,36,3.9,36-14.9V122C480,114.3,473.7,108,466,108z"/>
</svg>
