<?xml version="1.0" encoding="utf-8"?>
<!-- Generator: Adobe Illustrator 23.0.2, SVG Export Plug-In . SVG Version: 6.00 Build 0)  -->
<svg version="1.1" id="Layer_1" xmlns="http://www.w3.org/2000/svg" xmlns:xlink="http://www.w3.org/1999/xlink" x="0px" y="0px"
	 viewBox="0 0 550 500" style="enable-background:new 0 0 550 500;" xml:space="preserve">
<style type="text/css">
	.st0{fill:none;stroke:#FFFFFF;stroke-width:20;stroke-miterlimit:10;enable-background:new    ;}
</style>
<path class="st0" d="M525,215.3v13.9c0,11.5-9.3,20.8-20.8,20.8h-6.9l-22.7,158.7c-3,20.5-20.5,35.8-41.2,35.8H116.7
	c-20.7,0-38.3-15.3-41.2-35.8L52.8,250h-6.9c-11.6,0-20.9-9.3-20.9-20.8v-13.9c0-11.5,9.3-20.8,20.8-20.8h58.4L197,67
	c9-12.4,26.4-15.2,38.8-6.2c12.4,9,15.2,26.4,6.2,38.8l-69,94.8h204l-68.9-94.8c-9-12.4-6.3-29.8,6.2-38.8c12.4-9,29.8-6.2,38.8,6.2
	l92.7,127.4h58.4C515.7,194.4,525,203.7,525,215.3z M295.8,368.1v-97.2c0-11.5-9.3-20.8-20.8-20.8s-20.8,9.3-20.8,20.8v97.2
	c0,11.5,9.3,20.8,20.8,20.8S295.8,379.6,295.8,368.1z M393.1,368.1v-97.2c0-11.5-9.3-20.8-20.8-20.8s-20.8,9.3-20.8,20.8v97.2
	c0,11.5,9.3,20.8,20.8,20.8S393.1,379.6,393.1,368.1z M198.6,368.1v-97.2c0-11.5-9.3-20.8-20.8-20.8s-20.8,9.3-20.8,20.8v97.2
	c0,11.5,9.3,20.8,20.8,20.8C189.3,388.9,198.6,379.6,198.6,368.1z"/>
</svg>
