<svg xmlns="http://www.w3.org/2000/svg" viewBox="0 0 512 512"><title>shuffle</title><path d="M288,138.67H394.67v74.66L512,128,394.67,42.67v74.66H288c-76.46,0-138.67,62.21-138.67,138.67A117.47,117.47,0,0,1,32,373.33H10.67a10.67,10.67,0,0,0,0,21.34H32c76.46,0,138.67-62.21,138.67-138.67A117.47,117.47,0,0,1,288,138.67Z" style="fill:#fff"/><path d="M10.67,138.67H32a117.18,117.18,0,0,1,78.25,29.85,10.67,10.67,0,0,0,14.23-15.89A138.49,138.49,0,0,0,32,117.33H10.67a10.67,10.67,0,1,0,0,21.34Z" style="fill:#fff"/><path d="M394.67,373.33H288A117.29,117.29,0,0,1,210.37,344a10.66,10.66,0,0,0-14.1,16A138.46,138.46,0,0,0,288,394.67H394.67v74.66L512,384,394.67,298.67Z" style="fill:#fff"/></svg>