<?xml version="1.0" encoding="utf-8"?>
<!-- Generator: Adobe Illustrator 23.0.2, SVG Export Plug-In . SVG Version: 6.00 Build 0)  -->
<svg version="1.1" id="Capa_1" xmlns="http://www.w3.org/2000/svg" xmlns:xlink="http://www.w3.org/1999/xlink" x="0px" y="0px"
	 viewBox="0 0 512 512" style="enable-background:new 0 0 512 512;" xml:space="preserve">
<style type="text/css">
	.st0{fill:#FFFFFF;}
</style>
<g>
	<g>
		<g id="Layer_1_155_">
			<g>
				<path class="st0" d="M282.7,76.2H113.5c-12.5,0-22.6,6.7-22.6,15s10.1,15,22.6,15h169.2c12.5,0,22.6-6.7,22.6-15
					C305.3,82.9,295.2,76.2,282.7,76.2z"/>
				<path class="st0" d="M282.7,141.1H113.5c-12.5,0-22.6,6.7-22.6,15s10.1,15,22.6,15h169.2c12.5,0,22.6-6.7,22.6-15
					C305.3,147.9,295.2,141.1,282.7,141.1z"/>
				<path class="st0" d="M282.7,208.2H113.5c-12.5,0-22.6,6.7-22.6,15s10.1,15,22.6,15h169.2c12.5,0,22.6-6.7,22.6-15
					C305.3,215,295.2,208.2,282.7,208.2z"/>
				<path class="st0" d="M184.5,304c10.6,0,19.1-6.7,19.1-15c0-8.3-8.6-15-19.1-15h-71.8c-10.6,0-19.1,6.7-19.1,15s8.6,15,19.1,15
					H184.5z"/>
				<path class="st0" d="M369.4,404v81.5H26.9V26.5h342.5v112l26.5-60.6V23.3c0-12.9-10.4-23.3-23.3-23.3H23.6
					C10.7,0,0.3,10.4,0.3,23.3v465.5c0,12.9,10.4,23.3,23.3,23.3h349.1c12.9,0,23.3-10.4,23.3-23.3V360.5"/>
				<path class="st0" d="M467.2,145.5c-0.3-1.7-3.6-16.6-23.1-30.2c-19.5-13.6-31.8-9.5-33.2-9c-1.8,0.7-3.4,2.2-4.3,4.2l-95.8,200
					c-0.6,1.3-0.9,2.6-1,4.1l-3.6,72.2c-0.2,3.5,1.3,6.8,3.8,8.6c2.5,1.7,5.6,1.6,8.1-0.3l50.1-39.8c1-0.8,1.8-1.8,2.4-3.1l95.8-200
					C467.3,150.1,467.6,147.8,467.2,145.5z M337.4,363.1c-2.5-2.5-5.4-4.8-8.5-7c-3.1-2.2-6.2-4-9.3-5.4l1.1-21.6
					c4,0.6,9.9,2.6,17.5,7.8c7.5,5.2,11.9,10.5,14.3,14.3L337.4,363.1z"/>
				<path class="st0" d="M162.6,419.8c0.8,4.7,6.2,6.1,9.8,7.6c3.5,1.5,7.6-1.3,10.5-2.7c17.8-8.6,41.8,1.5,60.8,1.5
					c11.3,0,11.3-17.5,0-17.5c-22.2,0-40.6-5.6-62.6-2c0-1.3-0.5-3-1.8-5.3c-4.1-7-9.3-9-14.6-8.2c-0.3-0.8-0.7-1.7-1.2-2.5
					c-1.4-2.2-3.3-3.4-5.4-3.8c6.1-10.7,10.1-22.1,6.1-31.2c-1.2-2.8-4.7-4.2-7.5-4.3c-11.7-0.4-21.7,11.8-29.2,19.1
					c-18.7,18.4-35.3,39.2-51.2,60c-6.9,8.9,8.3,17.6,15.1,8.8c14.2-18.4,29.2-36.2,45.3-52.9c-3.9,6.4-8,12.6-12.4,18.7
					c-6.2,9.6,8.6,17.8,15.1,8.8c1.5-2.3,3.5-4,5.6-5.5c-0.4,1.1-0.9,2.1-1.3,3.2c0,0,0,0,0.1,0c-0.3,0.7-0.7,1.4-0.9,2.1
					c-3.9,9.8,10.7,14.2,16,6.7c1.3-1.9,2.6-3.9,3.7-6C162.3,415.8,162.2,417.8,162.6,419.8z"/>
			</g>
		</g>
	</g>
</g>
</svg>
