<svg xmlns="http://www.w3.org/2000/svg" height="512pt" version="1.1" viewBox="0 0 512 512.00034" width="512pt">
<g id="surface1">
<path d="M 97.667969 221.972656 L 0 221.972656 C -0.101562 274.027344 18.199219 324.441406 51.675781 364.300781 C 71.226562 351.484375 92.558594 341.613281 114.980469 335 C 103.246094 298.484375 97.402344 260.328125 97.667969 221.972656 Z M 97.667969 221.972656 " style=" stroke:none;fill-rule:nonzero;fill:rgb(23.921569%,60.392157%,88.627451%);fill-opacity:1;" />
<path d="M 114.984375 335 C 92.558594 341.609375 71.226562 351.484375 51.675781 364.300781 C 92.816406 413.707031 153.429688 442.75 217.710938 443.855469 C 173.9375 441.191406 135.9375 398.21875 114.984375 335 Z M 114.984375 335 " style=" stroke:none;fill-rule:nonzero;fill:rgb(11.764706%,50.588235%,80.784314%);fill-opacity:1;" />
<path d="M 115 108.945312 C 92.578125 102.332031 71.246094 92.460938 51.695312 79.644531 C 18.210938 119.503906 -0.0976562 169.917969 0 221.972656 L 97.667969 221.972656 C 97.414062 183.613281 103.261719 145.460938 115 108.945312 Z M 115 108.945312 " style=" stroke:none;fill-rule:nonzero;fill:rgb(35.294118%,66.666667%,90.588235%);fill-opacity:1;" />
<path d="M 114.984375 335 C 149.691406 324.617188 185.746094 319.441406 221.972656 319.640625 L 221.972656 221.972656 L 97.667969 221.972656 C 97.402344 260.328125 103.246094 298.484375 114.984375 335 Z M 114.984375 335 " style=" stroke:none;fill-rule:nonzero;fill:rgb(11.764706%,50.588235%,80.784314%);fill-opacity:1;" />
<path d="M 410.417969 376.464844 C 427.171875 341.132812 412.109375 298.910156 376.777344 282.160156 C 371.5 279.660156 365.933594 277.820312 360.207031 276.683594 C 357.492188 299.402344 352.980469 321.871094 346.722656 343.878906 C 369.21875 352.066406 390.613281 363.011719 410.417969 376.464844 Z M 410.417969 376.464844 " style=" stroke:none;fill-rule:nonzero;fill:rgb(34.117647%,64.313725%,100%);fill-opacity:1;" />
<path d="M 360.207031 276.675781 C 355.625 275.738281 350.957031 275.257812 346.277344 275.246094 C 345.035156 275.246094 343.878906 275.246094 342.636719 275.335938 C 313.460938 276.851562 288.195312 296.09375 278.976562 323.8125 C 301.921875 329.199219 324.542969 335.898438 346.722656 343.878906 C 352.980469 321.867188 357.492188 299.398438 360.207031 276.675781 Z M 360.207031 276.675781 " style=" stroke:none;fill-rule:nonzero;fill:rgb(14.117647%,53.333333%,100%);fill-opacity:1;" />
<path d="M 278.976562 323.8125 C 276.511719 331.046875 275.25 338.636719 275.246094 346.277344 C 275.242188 365.855469 283.34375 384.558594 297.621094 397.953125 C 301.917969 401.96875 306.6875 405.441406 311.828125 408.296875 C 326.464844 388.59375 338.214844 366.902344 346.722656 343.878906 C 324.542969 335.898438 301.925781 329.199219 278.976562 323.8125 Z M 278.976562 323.8125 " style=" stroke:none;fill-rule:nonzero;fill:rgb(0%,30.980392%,67.45098%);fill-opacity:1;" />
<path d="M 346.722656 343.878906 C 338.21875 366.902344 326.46875 388.59375 311.835938 408.296875 C 317.671875 411.589844 323.953125 414.027344 330.480469 415.53125 C 360.632812 422.402344 391.765625 408.972656 407.460938 382.324219 C 408.570312 380.445312 409.484375 378.445312 410.425781 376.457031 C 390.621094 363.003906 369.222656 352.0625 346.722656 343.878906 Z M 346.722656 343.878906 " style=" stroke:none;fill-rule:nonzero;fill:rgb(0%,36.862745%,80.784314%);fill-opacity:1;" />
<path d="M 286.34375 434.355469 C 281.757812 431.269531 277.425781 427.824219 273.382812 424.054688 L 273.203125 423.878906 C 260.070312 435.242188 243.707031 442.203125 226.414062 443.785156 C 246.734375 443.476562 266.910156 440.300781 286.34375 434.355469 Z M 286.34375 434.355469 " style=" stroke:none;fill-rule:nonzero;fill:rgb(23.921569%,60.392157%,88.627451%);fill-opacity:1;" />
<path d="M 221.972656 319.640625 C 226.785156 319.640625 231.492188 319.871094 236.222656 320.066406 C 231.359375 319.816406 226.570312 319.640625 221.972656 319.640625 Z M 221.972656 319.640625 " style=" stroke:none;fill-rule:nonzero;fill:rgb(69.803922%,84.313725%,95.686275%);fill-opacity:1;" />
<path d="M 225.789062 443.855469 C 226.003906 443.855469 226.207031 443.792969 226.414062 443.785156 C 225.125 443.785156 223.855469 443.917969 222.558594 443.925781 C 223.632812 443.945312 224.714844 443.945312 225.789062 443.855469 Z M 225.789062 443.855469 " style=" stroke:none;fill-rule:nonzero;fill:rgb(69.803922%,84.313725%,95.686275%);fill-opacity:1;" />
<path d="M 221.527344 319.640625 L 221.527344 443.945312 L 221.972656 443.945312 L 221.972656 319.640625 Z M 221.527344 319.640625 " style=" stroke:none;fill-rule:nonzero;fill:rgb(69.803922%,84.313725%,95.686275%);fill-opacity:1;" />
<path d="M 221.972656 443.945312 L 222.558594 443.945312 C 223.855469 443.945312 225.125 443.820312 226.414062 443.800781 C 243.707031 442.222656 260.070312 435.257812 273.203125 423.894531 C 251.835938 403.734375 239.722656 375.65625 239.730469 346.277344 C 239.699219 337.511719 240.773438 328.777344 242.925781 320.277344 C 236.019531 319.90625 229.074219 319.640625 221.972656 319.640625 Z M 221.972656 443.945312 " style=" stroke:none;fill-rule:nonzero;fill:rgb(23.921569%,60.392157%,88.627451%);fill-opacity:1;" />
<path d="M 115 108.945312 C 103.261719 145.460938 97.414062 183.613281 97.667969 221.972656 L 221.972656 221.972656 L 221.972656 124.304688 C 185.753906 124.503906 149.699219 119.328125 115 108.945312 Z M 115 108.945312 " style=" stroke:none;fill-rule:nonzero;fill:rgb(23.921569%,60.392157%,88.627451%);fill-opacity:1;" />
<path d="M 221.972656 124.304688 L 221.972656 221.972656 L 346.277344 221.972656 C 346.535156 183.613281 340.683594 145.460938 328.945312 108.945312 C 294.246094 119.328125 258.195312 124.503906 221.972656 124.304688 Z M 221.972656 124.304688 " style=" stroke:none;fill-rule:nonzero;fill:rgb(47.058824%,72.54902%,92.156863%);fill-opacity:1;" />
<path d="M 328.945312 108.945312 C 340.683594 145.460938 346.535156 183.613281 346.277344 221.972656 L 443.945312 221.972656 C 444.046875 169.917969 425.746094 119.503906 392.269531 79.644531 C 372.71875 92.460938 351.386719 102.332031 328.964844 108.945312 Z M 328.945312 108.945312 " style=" stroke:none;fill-rule:nonzero;fill:rgb(58.823529%,78.431373%,93.72549%);fill-opacity:1;" />
<path d="M 328.945312 108.945312 C 307.289062 43.730469 267.496094 0 221.972656 0 L 221.972656 124.304688 C 258.195312 124.503906 294.246094 119.328125 328.945312 108.945312 Z M 328.945312 108.945312 " style=" stroke:none;fill-rule:nonzero;fill:rgb(58.823529%,78.431373%,93.72549%);fill-opacity:1;" />
<path d="M 328.945312 108.945312 C 351.371094 102.332031 372.699219 92.460938 392.253906 79.644531 C 350.144531 29.117188 287.746094 -0.0664062 221.972656 0 C 267.496094 0 307.289062 43.730469 328.945312 108.945312 Z M 328.945312 108.945312 " style=" stroke:none;fill-rule:nonzero;fill:rgb(76.078431%,87.45098%,96.470588%);fill-opacity:1;" />
<path d="M 115 108.945312 C 136.65625 43.730469 176.449219 0 221.972656 0 C 156.191406 -0.0703125 93.789062 29.113281 51.675781 79.644531 C 71.226562 92.460938 92.558594 102.332031 114.980469 108.945312 Z M 115 108.945312 " style=" stroke:none;fill-rule:nonzero;fill:rgb(47.058824%,72.54902%,92.156863%);fill-opacity:1;" />
<path d="M 115 108.945312 C 149.703125 119.328125 185.753906 124.503906 221.972656 124.304688 L 221.972656 0 C 176.449219 0 136.65625 43.730469 115 108.945312 Z M 115 108.945312 " style=" stroke:none;fill-rule:nonzero;fill:rgb(35.294118%,66.666667%,90.588235%);fill-opacity:1;" />
<path d="M 114.984375 335 C 135.9375 398.21875 173.9375 441.191406 217.710938 443.855469 C 219.132812 443.945312 220.550781 443.945312 221.972656 443.945312 L 221.972656 319.640625 C 185.746094 319.441406 149.691406 324.617188 114.984375 335 Z M 114.984375 335 " style=" stroke:none;fill-rule:nonzero;fill:rgb(10.196078%,43.529412%,69.019608%);fill-opacity:1;" />
<path d="M 337.398438 221.972656 L 221.972656 221.972656 L 221.972656 319.640625 C 226.570312 319.640625 231.359375 319.816406 236.222656 320.074219 C 238.445312 320.164062 240.714844 320.15625 242.925781 320.28125 C 253.988281 276.265625 291.734375 244.097656 336.945312 240.15625 C 339.875 239.90625 342.839844 239.757812 345.824219 239.746094 L 346.277344 239.746094 L 346.277344 221.972656 Z M 337.398438 221.972656 " style=" stroke:none;fill-rule:nonzero;fill:rgb(35.294118%,66.666667%,90.588235%);fill-opacity:1;" />
<path d="M 346.277344 221.972656 L 346.277344 239.730469 C 381.601562 239.6875 414.636719 257.1875 434.445312 286.433594 C 440.785156 265.535156 443.984375 243.8125 443.945312 221.972656 Z M 346.277344 221.972656 " style=" stroke:none;fill-rule:nonzero;fill:rgb(63.137255%,80.784314%,94.509804%);fill-opacity:1;" />
<path d="M 342.636719 275.335938 C 343.878906 275.246094 345.035156 275.246094 346.277344 275.246094 C 379.464844 275.289062 408.207031 298.28125 415.53125 330.648438 C 416.707031 335.777344 417.304688 341.015625 417.308594 346.277344 C 417.289062 365.109375 409.800781 383.164062 396.488281 396.484375 L 421.648438 421.648438 C 425.863281 417.4375 429.695312 412.863281 433.113281 407.984375 C 467.191406 360.015625 455.933594 293.5 407.960938 259.417969 C 389.941406 246.617188 368.382812 239.734375 346.277344 239.730469 L 345.832031 239.730469 C 317.722656 239.8125 290.796875 251.046875 270.964844 270.964844 L 296.136719 296.136719 C 308.515625 283.664062 325.089844 276.25 342.636719 275.335938 Z M 342.636719 275.335938 " style=" stroke:none;fill-rule:nonzero;fill:rgb(100%,81.960784%,58.431373%);fill-opacity:1;" />
<path d="M 396.488281 396.488281 C 368.738281 424.214844 323.765625 424.203125 296.035156 396.453125 C 282.730469 383.144531 275.253906 365.097656 275.246094 346.277344 C 275.25 338.636719 276.511719 331.046875 278.976562 323.8125 C 282.46875 313.378906 288.34375 303.90625 296.136719 296.136719 L 270.96875 270.964844 C 257.324219 284.554688 247.632812 301.59375 242.929688 320.261719 C 240.773438 328.765625 239.699219 337.507812 239.730469 346.277344 C 239.726562 375.738281 251.90625 403.886719 273.382812 424.054688 C 310.394531 458.691406 366.671875 462.476562 407.988281 433.113281 C 412.867188 429.695312 417.441406 425.863281 421.652344 421.648438 Z M 396.488281 396.488281 " style=" stroke:none;fill-rule:nonzero;fill:rgb(100%,77.647059%,48.235294%);fill-opacity:1;" />
<path d="M 506.761719 506.761719 L 506.761719 506.71875 C 513.675781 499.816406 513.6875 488.621094 506.789062 481.707031 C 506.78125 481.695312 506.773438 481.6875 506.761719 481.679688 L 433.070312 407.984375 C 429.652344 412.867188 425.816406 417.4375 421.605469 421.648438 Z M 506.761719 506.761719 " style=" stroke:none;fill-rule:nonzero;fill:rgb(100%,81.960784%,58.431373%);fill-opacity:1;" />
<path d="M 421.652344 421.648438 C 417.4375 425.863281 412.867188 429.699219 407.988281 433.113281 L 481.679688 506.808594 C 488.582031 513.722656 499.78125 513.734375 506.695312 506.832031 C 506.703125 506.824219 506.710938 506.816406 506.71875 506.808594 L 506.765625 506.808594 Z M 421.652344 421.648438 " style=" stroke:none;fill-rule:nonzero;fill:rgb(100%,77.647059%,48.235294%);fill-opacity:1;" />
</g>
</svg>