<svg height="511pt" viewBox="-86 0 511 511.99888" width="511pt" xmlns="http://www.w3.org/2000/svg"><path d="m.503906 85.707031v33.308594h288.9375v-104.015625c0-4.648438-2.15625-9.039062-5.839844-11.878906-3.6875-2.839844-8.480468-3.8125-12.976562-2.625l-258.9375 68.144531c-7.171875 1.882813-11.7578125 8.652344-11.132812 15.792969-.035157.421875-.050782.84375-.050782 1.273437zm0 0" fill="#b5c9f5"/><path d="m289.441406 119.015625v-104.015625c0-4.648438-2.15625-9.039062-5.839844-11.878906-3.6875-2.839844-8.480468-3.8125-12.976562-2.625l-100.394531 26.417968-.085938 92.101563zm0 0" fill="#799ce3"/><path d="m324.953125 70.707031h-309.449219c-8.285156 0-15 6.714844-15 15v411.292969c0 8.28125 6.714844 15 15 15h309.449219c8.285156 0 15-6.71875 15-15v-411.292969c0-8.285156-6.714844-15-15-15zm0 0" fill="#f2f7ff"/><path d="m324.953125 70.707031h-154.726563v441.292969h154.726563c8.285156 0 15-6.71875 15-15v-411.292969c0-8.285156-6.714844-15-15-15zm0 0" fill="#b5c9f5"/><path d="m252.292969 210.683594c0-22.59375-18.371094-40.910156-41.035157-40.910156-22.605468 0-40.941406 18.226562-41.03125 40.742187-.148437-22.46875-18.457031-40.636719-41.027343-40.636719-22.664063 0-41.035157 18.3125-41.035157 40.90625 0 13.054688 8.347657 23.296875 15.6875 32.160156l66.371094 70.273438 66.441406-70.417969h-.007812c8.738281-9.425781 15.636719-19.085937 15.636719-32.117187zm0 0" fill="#f07a97"/><path d="m252.292969 210.683594c0-22.59375-18.371094-40.910156-41.035157-40.910156-22.605468 0-40.941406 18.226562-41.03125 40.742187l-.003906 102.703125 66.441406-70.417969h-.007812c8.738281-9.425781 15.636719-19.085937 15.636719-32.117187zm0 0" fill="#e6486d"/><path d="m126.054688 396.863281h88.347656c8.285156 0 15-6.714843 15-15 0-8.285156-6.714844-15-15-15h-88.347656c-8.285157 0-15 6.714844-15 15 0 8.285157 6.714843 15 15 15zm0 0" fill="#b5c9f5"/><path d="m240.296875 413.425781h-140.136719c-8.285156 0-15 6.71875-15 15 0 8.285157 6.714844 15 15 15h140.136719c8.285156 0 15-6.714843 15-15 0-8.28125-6.714844-15-15-15zm0 0" fill="#b5c9f5"/><g fill="#799ce3"><path d="m214.402344 366.863281h-44.175782v30h44.175782c8.285156 0 15-6.714843 15-15 0-8.285156-6.714844-15-15-15zm0 0"/><path d="m240.296875 413.425781h-70.066406v30h70.066406c8.285156 0 15-6.714843 15-15 0-8.28125-6.714844-15-15-15zm0 0"/></g></svg>